<?xml version="1.0" standalone="no"?>
<!DOCTYPE svg PUBLIC "-//W3C//DTD SVG 20001102//EN"
"http://www.w3.org/TR/2000/CR-SVG-20001102/DTD/svg-20001102.dtd">
<svg width="345" height="512"
	xmlns:sodipodi="http://sodipodi.sourceforge.net/DTD/sodipodi-0.dtd">
<desc>wmf2svg</desc>
<polygon points="208.977280,319.600342 
	272.840912,306.583374 310.795471,303.157898 325.795471,316.174835 326.704529,328.049927 
	338.977264,347.917908 341.704559,371.439758 330.795471,409.348755 305.795471,428.531647 
	320.568176,443.603912 315.113647,448.856354 200.340897,508.688660 163.977280,483.111511 
	141.022736,468.724335 88.295456,453.423706 88.295456,445.430847 124.886360,431.957184 
	149.431808,426.933075 177.386353,415.057983 188.750000,360.249786 208.977280,319.600342 
	208.977280,319.600342 208.977280,319.600342 "
	style="fill-opacity:1.0; fill-rule:evenodd; fill:lavender; stroke:none" />
<polygon points="206.250000,319.143616 
	233.068192,336.271179 240.568192,344.720795 265.568176,368.242615 268.522736,377.148956 
	265.568176,406.380005 257.386383,430.358582 253.977280,439.493286 295.795471,426.933075 
	318.750031,416.428192 329.204529,405.466522 337.159088,391.307739 328.295471,415.057983 
	317.159088,426.476349 301.250000,436.067780 308.750000,444.745728 319.659088,444.745728 
	306.250000,477.630676 301.704529,480.142731 203.750000,506.633362 213.522720,471.921478 
	215.568192,468.952698 214.659088,461.644958 206.250000,452.510254 177.840912,435.382660 
	203.295456,442.005341 214.204544,394.048157 229.431824,342.208740 206.250000,319.143616 
	206.250000,319.143616 206.250000,319.143616 "
	style="fill-opacity:1.0; fill-rule:evenodd; fill:lightsteelblue; stroke:none" />
<polygon points="79.886360,357.737732 
	188.295456,363.218536 173.295456,424.421051 159.886368,428.988403 147.840912,426.476349 
	106.022728,437.437958 87.613632,444.974091 89.659096,452.966949 95.113640,455.022308 
	94.659096,461.188202 76.931824,464.613739 59.886364,437.437958 79.886360,357.737732 
	79.886360,357.737732 79.886360,357.737732 "
	style="fill-opacity:1.0; fill-rule:evenodd; fill:lightcyan; stroke:none" />
<polygon points="108.522728,220.488846 
	87.159096,245.380890 75.340912,244.010696 63.750000,249.034790 54.431820,257.941101 
	50.340908,273.013367 51.477272,288.999084 62.159088,305.441559 63.295452,323.254242 
	88.295456,366.415680 102.159096,377.834076 116.250000,382.858154 123.068184,384.228333 
	110.113640,400.214081 100.795456,412.545929 96.250008,424.877747 96.704544,433.555756 
	102.159096,438.579834 138.977280,429.901825 144.886368,429.445129 152.386368,429.445129 
	158.068176,426.933075 158.977280,418.026764 166.704559,415.057983 169.886353,404.781403 
	167.840912,391.992859 163.977280,383.314880 186.704544,367.329163 205.340912,321.198914 
	240.113647,312.064209 245.113647,285.573608 250.340897,259.996429 246.022736,253.145401 
	228.068192,249.034790 216.022720,224.371078 202.840912,207.928619 162.386353,196.281876 
	108.522728,220.488846 108.522728,220.488846 108.522728,220.488846 "
	style="fill-opacity:1.0; fill-rule:evenodd; fill:mistyrose; stroke:none" />
<polygon points="191.704544,223.914352 
	183.977280,225.969650 178.295456,230.993744 175.795456,236.931305 175.340912,242.868835 
	175.795456,249.034790 179.886368,255.657440 187.613632,258.854584 196.704544,257.941101 
	204.886368,253.145401 208.068176,244.467438 207.840912,234.419250 202.840912,228.481689 
	197.159103,224.827820 191.704544,223.914352 191.704544,223.914352 191.704544,223.914352 "
	style="fill-opacity:1.0; fill-rule:evenodd; fill:white; stroke:none" />
<polygon points="158.522736,221.402298 
	145.795456,222.315781 135.113632,230.537018 131.022736,242.412125 133.977280,250.633347 
	140.113632,254.058868 152.386368,253.602127 161.022736,249.491531 166.704559,242.868835 
	169.204559,236.474564 169.204559,228.481689 165.568176,222.315781 158.522736,221.402298 
	158.522736,221.402298 158.522736,221.402298 "
	style="fill-opacity:1.0; fill-rule:evenodd; fill:white; stroke:none" />
<polygon points="200.795456,207.471893 
	187.159103,187.603912 176.931824,186.233719 167.840912,180.296158 145.795456,180.752884 
	126.931816,187.147186 108.522728,203.818008 103.977280,212.267609 88.750000,215.236389 
	91.704544,221.859039 102.159096,221.859039 122.159088,217.748428 157.386368,200.392487 
	169.886353,199.935760 195.113647,205.873306 200.795456,207.471893 200.795456,207.471893 
	200.795456,207.471893 "
	style="fill-opacity:1.0; fill-rule:evenodd; fill:darksalmon; stroke:none" />
<polygon points="117.159088,17.470114 
	145.795456,43.047276 145.795456,48.299728 139.431808,50.355038 133.977280,48.756462 
	108.068184,22.722569 108.068184,17.013380 117.159088,17.470114 117.159088,17.470114 
	117.159088,17.470114 "
	style="fill-opacity:1.0; fill-rule:evenodd; fill:khaki; stroke:none" />
<polygon points="214.659088,2.626226 
	206.250000,13.359499 200.795456,14.272969 183.295456,38.023190 185.795456,45.102585 
	192.159103,45.330952 201.250000,38.023190 221.704544,5.138269 222.159088,0.114184 
	214.659088,2.626226 214.659088,2.626226 214.659088,2.626226 "
	style="fill-opacity:1.0; fill-rule:evenodd; fill:khaki; stroke:none" />
<polygon points="268.522736,33.912579 
	247.613647,40.535233 213.068192,54.922390 206.250000,59.489738 205.340912,67.025864 
	210.113647,70.451378 218.068192,69.766281 229.431824,62.458511 251.477280,48.756462 
	275.795441,38.936665 285.340912,33.455841 268.522736,33.912579 268.522736,33.912579 
	268.522736,33.912579 "
	style="fill-opacity:1.0; fill-rule:evenodd; fill:khaki; stroke:none" />
<polygon points="289.431824,96.485275 
	249.886383,90.090988 229.431824,89.634247 212.159088,91.689560 208.522720,99.454056 
	220.113647,104.021400 237.613647,102.651199 274.431824,104.021400 288.522736,102.651199 
	296.250000,100.595894 289.431824,96.485275 289.431824,96.485275 289.431824,96.485275 "
	style="fill-opacity:1.0; fill-rule:evenodd; fill:khaki; stroke:none" />
<polygon points="244.659088,139.646729 
	216.022720,127.543259 208.977280,128.228363 210.113647,136.221222 233.522720,146.041031 
	243.522736,146.041031 244.659088,139.646729 244.659088,139.646729 244.659088,139.646729 "
	style="fill-opacity:1.0; fill-rule:evenodd; fill:khaki; stroke:none" />
<polygon points="128.522736,140.103470 
	122.613640,142.615509 121.250000,147.639603 96.250008,185.320236 98.295456,190.115952 
	106.477280,183.950043 115.113640,178.240845 135.568192,151.293488 136.022736,142.158783 
	128.522736,140.103470 128.522736,140.103470 128.522736,140.103470 "
	style="fill-opacity:1.0; fill-rule:evenodd; fill:khaki; stroke:none" />
<polygon points="110.568184,122.975914 
	103.977280,122.519173 54.431820,156.774292 53.522728,161.570023 63.750000,160.199814 
	113.068176,134.622650 114.659088,127.543259 110.568184,122.975914 110.568184,122.975914 
	110.568184,122.975914 "
	style="fill-opacity:1.0; fill-rule:evenodd; fill:khaki; stroke:none" />
<polygon points="48.295452,82.554855 
	104.431816,81.413025 108.068184,84.610161 106.477280,91.004456 100.795456,93.973236 
	86.250000,91.689560 50.340908,88.035683 48.295452,82.554855 48.295452,82.554855 
	48.295452,82.554855 "
	style="fill-opacity:1.0; fill-rule:evenodd; fill:khaki; stroke:none" />
<polygon points="167.840912,52.638710 
	156.250000,52.638710 142.613632,56.520958 129.431808,63.600357 119.886368,74.561996 
	114.204552,85.980370 112.159088,98.768951 112.386368,108.817123 116.250000,118.865288 
	120.113640,124.802849 125.113640,128.228363 133.977280,130.283676 145.340912,130.283676 
	154.204559,130.283676 159.431824,133.480820 166.477280,134.851013 174.431824,142.615509 
	182.840912,142.387146 189.431824,138.733261 191.022720,131.882233 189.204544,119.778763 
	194.886368,112.699371 197.159103,106.990181 197.159103,98.768951 198.295456,91.004456 
	201.022720,82.326492 200.340897,69.994644 194.886368,58.576271 185.113632,53.780552 
	176.477280,52.181976 167.840912,52.638710 167.840912,52.638710 167.840912,52.638710 "
	style="fill-opacity:1.0; fill-rule:evenodd; fill:khaki; stroke:none" />
<polygon points="166.931824,64.057083 
	159.659088,65.884033 151.704559,68.852814 143.295456,73.648529 137.386368,79.357712 
	132.159088,86.893837 129.886368,94.201607 129.204544,100.824265 131.704544,108.360390 
	136.931808,112.471001 145.340912,113.384476 155.568176,112.242638 165.340912,108.360390 
	174.204544,101.966103 182.840912,87.807312 183.068176,76.160568 181.022736,68.167702 
	175.795456,64.285454 166.931824,64.057083 166.931824,64.057083 166.931824,64.057083 "
	style="fill-opacity:1.0; fill-rule:evenodd; fill:white; stroke:none" />
<polygon points="178.750000,109.730598 
	164.431824,117.495094 166.704559,122.062439 173.750000,120.463875 180.795456,116.581619 
	178.750000,109.730598 178.750000,109.730598 178.750000,109.730598 "
	style="fill-opacity:1.0; fill-rule:evenodd; fill:white; stroke:none" />
<polygon points="166.931824,55.607491 
	157.386368,55.835857 144.659088,59.718109 134.659088,65.198921 126.477264,72.506691 
	120.568184,82.098122 118.522728,91.917931 118.068184,102.194458 120.340912,110.872429 
	124.659088,119.778763 133.977280,124.802849 144.204559,126.401421 151.704559,124.802849 
	158.977280,128.000000 162.840912,131.425507 165.568176,131.425507 176.477280,129.141830 
	185.340912,123.889374 190.340912,118.180191 192.840912,112.242638 193.522720,106.761818 
	192.159103,97.855484 196.477280,86.665474 196.931824,76.388939 195.340912,67.710968 
	190.340912,61.316677 184.204544,57.206062 178.522736,55.607491 173.295456,55.150753 
	177.386353,61.316677 184.886368,64.057083 187.613632,69.994644 188.750000,77.074036 
	187.840912,84.838531 186.022720,92.603027 183.295456,97.627113 180.113632,102.879570 
	184.659103,101.509361 185.340912,108.360390 187.159103,112.242638 186.931824,115.211411 
	181.704544,121.377335 174.204544,124.802849 166.477280,127.314896 162.386353,127.086525 
	159.204559,124.802849 157.159088,122.747543 163.522736,120.235504 168.522736,117.038353 
	171.022736,114.069572 169.659103,113.384476 165.795456,115.668152 160.568176,117.266724 
	152.613632,119.550400 143.977280,119.550400 135.340912,118.408562 127.613640,114.754677 
	124.204544,108.588753 122.840912,103.564667 123.068184,97.627113 125.113640,89.634247 
	133.977280,76.388939 141.477280,69.309540 149.659088,64.057083 158.295456,61.316677 
	166.022736,59.033001 170.340912,58.347904 169.204559,56.292595 166.931824,55.607491 
	166.931824,55.607491 166.931824,55.607491 "
	style="fill-opacity:1.0; fill-rule:evenodd; fill:black; stroke:none" />
<polygon points="166.931824,131.653870 
	168.295456,133.480820 172.840912,134.165909 178.295456,133.480820 181.477280,131.653870 
	184.659103,128.456726 186.931824,125.259590 187.159103,122.747543 190.340912,117.723450 
	192.159103,120.920593 192.613647,124.117744 191.477280,127.771629 188.977280,130.283676 
	185.568176,132.795715 181.022736,135.307755 177.386353,136.906326 172.613632,136.906326 
	170.113632,136.677948 167.613632,135.536133 165.568176,134.165909 165.795456,133.252457 
	166.022736,132.338974 166.477280,131.653870 166.931824,131.653870 166.931824,131.653870 
	166.931824,131.653870 "
	style="fill-opacity:1.0; fill-rule:evenodd; fill:black; stroke:none" />
<polygon points="182.840912,147.182861 
	187.613632,144.670822 191.022720,141.702042 193.522720,138.733261 194.659103,134.622650 
	194.204544,131.425507 193.295456,128.913452 190.795456,127.086525 189.431824,128.913452 
	189.431824,131.653870 187.840912,134.622650 185.340912,136.906326 181.022736,138.733261 
	177.840912,139.646729 173.522736,139.190002 170.340912,138.733261 168.522736,135.992859 
	168.977280,138.961624 170.795456,141.702042 173.977280,145.127563 177.159103,146.726120 
	182.840912,147.182861 182.840912,147.182861 182.840912,147.182861 "
	style="fill-opacity:1.0; fill-rule:evenodd; fill:black; stroke:none" />
<polygon points="217.613647,6.736842 
	208.977280,17.470114 203.522720,24.549507 198.295456,32.542374 195.113647,38.251560 
	192.840912,42.133808 189.659103,43.275646 187.840912,40.991966 187.840912,37.109722 
	192.613647,31.172167 204.659103,15.871542 206.022720,17.698483 212.159088,10.619090 
	217.613647,6.736842 217.613647,6.736842 217.613647,6.736842 "
	style="fill-opacity:1.0; fill-rule:evenodd; fill:black; stroke:none" />
<polygon points="269.886383,38.936665 
	255.113632,44.417480 243.977264,49.441566 229.431824,56.520958 217.840912,64.057083 
	212.613647,68.396072 209.431824,67.254234 207.840912,64.513824 208.977280,61.316677 
	218.295456,56.520958 222.386368,55.150753 228.068192,52.181976 249.204544,43.275646 
	253.295441,43.504013 255.340897,40.763603 257.840912,40.078499 260.113647,38.251560 
	263.522736,40.078499 266.477295,37.566456 269.886383,36.424622 269.886383,38.936665 
	269.886383,38.936665 269.886383,38.936665 "
	style="fill-opacity:1.0; fill-rule:evenodd; fill:black; stroke:none" />
<polygon points="216.477280,92.831398 
	216.022720,96.942017 221.022720,98.997322 234.431824,98.540581 251.250000,98.997322 
	268.522736,100.367523 274.431824,101.052628 277.159088,99.682419 287.159088,100.367523 
	285.340912,98.540581 274.886383,98.312218 273.295441,96.485275 265.113647,94.658333 
	262.613647,96.028542 259.431824,94.658333 246.704544,93.744865 243.522736,91.917931 
	220.113647,92.374657 216.477280,92.831398 216.477280,92.831398 216.477280,92.831398 "
	style="fill-opacity:1.0; fill-rule:evenodd; fill:black; stroke:none" />
<polygon points="213.522720,130.283676 
	215.795456,134.165909 223.977264,138.961624 229.659088,141.016953 233.977264,142.158783 
	236.477264,144.214081 237.613647,141.702042 231.477264,137.819794 223.522720,133.709183 
	216.931824,131.425507 213.522720,130.283676 213.522720,130.283676 213.522720,130.283676 "
	style="fill-opacity:1.0; fill-rule:evenodd; fill:black; stroke:none" />
<polygon points="133.522736,148.324707 
	110.795456,177.327377 106.477280,178.469223 106.704544,180.981262 101.931816,183.264938 
	107.386368,172.988388 112.840912,167.050827 114.659088,162.255112 126.022736,147.867966 
	126.022736,145.127563 130.795456,145.127563 133.522736,147.639603 133.522736,148.324707 
	133.522736,148.324707 133.522736,148.324707 "
	style="fill-opacity:1.0; fill-rule:evenodd; fill:black; stroke:none" />
<polygon points="110.795456,132.110611 
	98.522728,138.733261 72.840912,150.380005 61.704548,155.632462 70.568184,149.694901 
	93.977272,134.851013 103.977280,128.000000 106.704544,125.487953 109.886368,127.314896 
	110.795456,132.110611 110.795456,132.110611 110.795456,132.110611 "
	style="fill-opacity:1.0; fill-rule:evenodd; fill:black; stroke:none" />
<polygon points="105.795456,87.122208 
	103.522728,90.319359 99.659096,91.004456 87.386368,88.949150 64.886360,88.264046 
	59.886364,84.838531 88.977272,83.925064 98.750000,82.783226 104.204544,83.925064 
	105.795456,87.122208 105.795456,87.122208 105.795456,87.122208 "
	style="fill-opacity:1.0; fill-rule:evenodd; fill:black; stroke:none" />
<polygon points="111.477280,22.037466 
	129.886368,39.621765 134.659088,45.787685 136.022736,48.299728 142.159088,47.614628 
	141.022736,43.960747 118.522728,21.352362 113.977280,20.895628 111.477280,22.037466 
	111.477280,22.037466 111.477280,22.037466 "
	style="fill-opacity:1.0; fill-rule:evenodd; fill:black; stroke:none" />
<polygon points="171.250000,184.863495 
	164.886353,182.351456 156.250000,181.666367 146.250000,183.264938 133.522736,186.918823 
	121.704552,194.683319 114.431816,201.305969 110.113640,206.786789 107.386368,210.897400 
	114.431816,209.755569 123.295464,205.188217 130.113632,199.022293 131.250000,201.305969 
	126.250008,206.786789 119.886368,210.897400 112.386368,213.637802 105.113640,215.921478 
	97.840904,216.378220 92.159096,217.520065 90.568184,219.803741 87.386368,216.378220 
	87.840912,213.637802 92.840912,212.039246 103.068184,210.897400 111.250000,196.966995 
	118.295456,189.659225 125.795464,183.950043 136.250000,180.067780 145.795456,177.784103 
	152.840912,177.327377 155.568176,180.067780 159.431824,176.185547 168.068176,176.185547 
	175.113632,177.784103 180.113632,181.666367 183.295456,185.548599 188.068176,185.548599 
	193.068176,190.344315 197.840912,196.966995 201.250000,202.904526 202.840912,206.786789 
	210.340912,210.897400 218.522720,222.544144 225.568192,233.277420 228.750000,241.041916 
	230.340912,249.948257 231.931824,255.885788 236.250000,260.681519 240.113647,267.760925 
	235.340912,265.020508 230.340912,259.539703 226.704544,254.287231 223.295456,247.664566 
	218.522720,232.820694 213.522720,223.685974 206.704544,216.378220 200.113647,209.755569 
	192.386368,206.786789 183.977280,202.904526 176.250000,200.620865 182.840912,200.620865 
	189.659103,202.904526 197.840912,205.644943 190.795456,195.140030 182.840912,190.801056 
	173.977280,188.517380 163.977280,186.918823 155.113632,188.060654 147.386368,189.659225 
	138.977280,193.541473 145.340912,189.202484 152.386368,186.462082 161.704559,185.548599 
	171.250000,184.863495 171.250000,184.863495 171.250000,184.863495 "
	style="fill-opacity:1.0; fill-rule:evenodd; fill:black; stroke:none" />
<polygon points="168.068176,200.620865 
	158.977280,202.904526 149.204559,206.786789 138.295456,212.039246 127.386360,217.520065 
	117.840912,222.544144 111.250000,225.284561 88.977272,249.948257 87.386368,253.830490 
	82.386360,249.263138 75.568184,248.121307 68.295456,250.404968 62.840912,253.145401 
	58.750000,259.082947 55.568184,265.020508 53.750000,271.643158 53.750000,279.407654 
	54.431820,287.400513 56.022728,292.881348 61.022728,301.787689 62.386364,307.040131 
	54.886364,300.645844 50.113640,291.282776 47.159092,279.407654 47.159092,268.446014 
	50.568184,257.941101 57.159092,248.806396 63.977276,243.782318 72.159096,241.041916 
	77.159096,240.585190 85.795456,242.183746 97.840904,224.827820 90.568184,222.544144 
	96.022728,219.803741 108.522728,218.661896 119.431816,215.464767 131.250000,210.440674 
	141.704544,204.046371 149.659088,200.164139 157.840912,197.880447 164.431824,197.423721 
	168.068176,200.620865 168.068176,200.620865 168.068176,200.620865 "
	style="fill-opacity:1.0; fill-rule:evenodd; fill:black; stroke:none" />
<polygon points="156.022736,223.685974 
	152.613632,222.772522 147.613632,224.142715 143.750000,226.654755 139.431808,230.537018 
	136.477280,235.561096 135.113632,239.671707 135.340912,244.010696 136.931808,247.664566 
	139.659088,250.633347 143.522736,252.003571 148.295456,252.688660 153.522736,251.318451 
	159.204559,248.578049 163.977280,244.695801 166.477280,240.813553 167.159103,236.931305 
	169.886353,239.443344 166.931824,246.066010 163.522736,250.861710 159.204559,253.830490 
	155.113632,255.657440 150.568176,256.114166 146.022736,256.114166 143.522736,257.941101 
	138.977280,256.799255 133.068192,254.058868 129.431808,248.578049 127.613640,241.498642 
	129.431808,235.104355 131.704544,230.308640 136.704544,225.741302 142.840912,222.544144 
	149.431808,220.260483 153.977280,220.717194 157.386368,222.544144 156.022736,223.685974 
	156.022736,223.685974 156.022736,223.685974 "
	style="fill-opacity:1.0; fill-rule:evenodd; fill:black; stroke:none" />
<polygon points="151.250000,233.505798 
	148.068176,235.332733 148.522736,237.159668 153.750000,239.900070 154.204559,236.474564 
	151.250000,233.505798 151.250000,233.505798 151.250000,233.505798 "
	style="fill-opacity:1.0; fill-rule:evenodd; fill:black; stroke:none" />
<polygon points="188.977280,224.827820 
	191.022720,226.426392 196.022720,225.741302 200.568176,227.339859 204.204544,230.993744 
	205.795456,236.702927 205.795456,242.868835 204.204544,249.948257 201.022720,254.515610 
	196.250000,256.799255 189.886368,257.712738 186.022720,257.027649 182.613632,255.429062 
	177.840912,250.861710 176.477280,252.231918 184.204544,259.539703 188.295456,260.681519 
	192.159103,260.909882 194.659103,260.453125 196.250000,263.878662 202.386368,261.823364 
	207.159103,257.027649 210.113647,250.633347 211.704544,243.553970 210.568176,236.931305 
	207.840912,230.993744 203.295456,227.339859 198.977280,224.371078 194.659103,222.772522 
	190.795456,222.772522 188.977280,224.827820 188.977280,224.827820 188.977280,224.827820 "
	style="fill-opacity:1.0; fill-rule:evenodd; fill:black; stroke:none" />
<polygon points="186.022720,236.017838 
	184.886368,239.443344 188.068176,242.412125 190.568176,241.041916 189.886368,237.844772 
	186.022720,236.017838 186.022720,236.017838 186.022720,236.017838 "
	style="fill-opacity:1.0; fill-rule:evenodd; fill:black; stroke:none" />
<polygon points="141.704544,265.020508 
	148.295456,269.816223 156.022736,271.414795 165.568176,271.643158 173.750000,269.816223 
	180.340912,267.532562 183.977280,266.619080 184.659103,270.044586 180.795456,272.328247 
	178.068176,277.809082 174.886353,282.833160 168.068176,285.801941 160.795456,286.258698 
	155.568176,285.573608 151.250000,282.833160 148.295456,278.037476 146.704559,272.785004 
	141.022736,267.989288 141.704544,265.020508 141.704544,265.020508 141.704544,265.020508 "
	style="fill-opacity:1.0; fill-rule:evenodd; fill:black; stroke:none" />
<polygon points="119.659088,269.131134 
	118.522728,271.414795 113.295456,271.871521 106.477280,273.013367 100.568184,275.068695 
	97.386368,276.438873 106.022728,282.376434 119.659088,288.999084 137.159088,294.023163 
	152.386368,297.220337 165.568176,298.133820 156.022736,299.275635 141.477280,297.677063 
	127.159088,294.023163 111.931816,287.857239 99.204544,281.006226 94.204544,277.809082 
	89.886368,279.407654 88.068184,281.006226 86.250000,281.006226 84.431824,283.746643 
	82.386360,282.376434 82.840912,278.722565 85.795456,274.611938 90.795456,271.186432 
	96.931816,268.902740 104.886368,266.619080 112.840912,266.619080 119.659088,269.131134 
	119.659088,269.131134 119.659088,269.131134 "
	style="fill-opacity:1.0; fill-rule:evenodd; fill:black; stroke:none" />
<polygon points="201.931824,272.556641 
	209.431824,272.785004 216.250000,273.926819 221.704544,274.383575 227.159088,277.123993 
	229.431824,280.321136 232.840912,285.345215 234.204544,289.684204 233.068192,292.196259 
	231.704544,294.479889 229.431824,292.196259 228.068192,289.684204 224.886368,288.542358 
	218.977280,290.369293 206.022720,294.936646 195.340912,296.991943 186.022720,298.133820 
	173.522736,298.362152 171.477280,297.220337 188.522720,295.393372 202.613647,292.652985 
	215.568192,288.542358 220.568192,285.801941 221.704544,284.660126 219.659088,281.006226 
	215.568192,279.407654 209.204544,278.037476 203.750000,275.753784 201.931824,272.556641 
	201.931824,272.556641 201.931824,272.556641 "
	style="fill-opacity:1.0; fill-rule:evenodd; fill:black; stroke:none" />
<polygon points="231.250000,247.664566 
	242.613647,248.806396 248.750000,251.775177 252.613632,256.114166 254.204544,262.280090 
	253.295441,268.902740 251.477280,275.753784 248.522736,281.919678 248.295441,294.479889 
	246.931839,301.559296 245.113647,308.867065 236.931824,309.780548 241.250000,300.189117 
	241.931824,291.739502 241.250000,281.006226 240.795456,274.155212 236.022736,266.390686 
	243.977264,271.186432 246.704544,265.705597 247.159088,260.681519 245.568192,256.799255 
	242.613647,254.515610 238.295456,253.830490 233.068192,254.058868 231.250000,247.664566 
	231.250000,247.664566 231.250000,247.664566 "
	style="fill-opacity:1.0; fill-rule:evenodd; fill:black; stroke:none" />
<polygon points="236.022736,260.909882 
	239.659088,257.941101 242.613647,257.027649 244.204544,259.539703 242.159088,261.823364 
	239.659088,264.335388 239.431824,266.619080 236.022736,260.909882 236.022736,260.909882 
	236.022736,260.909882 "
	style="fill-opacity:1.0; fill-rule:evenodd; fill:black; stroke:none" />
<polygon points="80.340912,265.020508 
	78.977272,266.619080 79.886360,268.902740 76.250000,271.186432 72.613640,276.667267 
	69.204544,281.462952 66.931824,286.943787 66.022728,291.511139 65.113640,288.542358 
	65.113640,279.864380 69.431824,270.044586 73.750000,264.335388 74.431824,260.909882 
	73.068184,259.082947 69.431824,259.539703 66.022728,262.965210 60.568180,270.272949 
	59.659092,268.902740 61.704548,262.051727 65.113640,257.712738 68.295456,255.657440 
	72.840912,255.657440 77.159096,257.941101 78.977272,261.823364 80.340912,265.020508 
	80.340912,265.020508 80.340912,265.020508 "
	style="fill-opacity:1.0; fill-rule:evenodd; fill:black; stroke:none" />
<polygon points="66.250000,296.535217 
	65.568184,313.206055 68.522728,326.451355 74.659096,338.326477 92.159096,364.817108 
	105.340904,376.692200 114.886368,380.574463 122.386368,381.944672 130.795456,379.432648 
	136.931808,380.346100 141.022736,385.826935 145.340912,385.370209 155.568176,379.432648 
	160.113632,379.432648 165.795456,381.944672 169.659103,389.024078 171.931824,399.985718 
	171.477280,410.490631 169.659103,414.372833 165.795456,417.570007 161.704559,418.026764 
	160.340912,421.452271 158.750000,420.767151 157.840912,418.940216 153.522736,403.182861 
	150.795456,396.331818 150.568176,393.819763 155.113632,397.473663 158.295456,406.608368 
	160.113632,414.372833 163.522736,414.372833 166.704559,409.805511 166.704559,400.899200 
	165.795456,390.394287 163.522736,384.913452 159.204559,383.314880 154.431808,384.228333 
	150.113632,387.197113 146.931808,391.536102 144.204559,391.992859 146.022736,402.269379 
	146.022736,410.033875 144.204559,417.570007 142.386368,419.625305 146.477280,426.933075 
	150.568176,427.846527 153.522736,426.933075 151.704559,429.901825 147.840912,430.815308 
	144.204559,429.445129 141.022736,427.389801 138.068192,421.680634 133.295456,422.137360 
	129.431808,420.082062 126.477264,413.687744 123.068184,405.009796 122.386368,400.899200 
	126.931816,400.899200 128.977264,408.435303 130.795456,415.743073 134.204544,418.483490 
	138.068192,415.743073 141.022736,409.348755 141.477280,401.355927 138.522736,392.906311 
	135.568192,387.653870 131.250000,386.283630 126.477264,388.567322 120.113640,393.819763 
	116.250000,398.843842 111.477280,400.899200 109.204544,398.158752 120.113640,384.913452 
	112.840912,383.314880 104.886368,380.346100 97.840904,375.550385 91.704544,370.526306 
	85.113632,365.273865 97.840904,397.473663 95.113640,399.528992 103.522728,399.985718 
	101.704544,402.726105 93.977272,408.435303 86.022728,416.656525 79.886360,426.933075 
	76.250000,439.493286 75.340912,451.140045 76.250000,458.676178 78.977272,464.156982 
	94.659096,461.644958 7.159091,479.229248 9.659091,473.976776 2.386364,449.313080 
	0.113636,426.933075 2.386364,407.978577 7.613636,386.740387 15.795455,365.273865 
	28.977272,345.862610 41.477272,331.018707 51.704544,321.427277 61.022728,314.576233 
	62.386364,299.503998 63.750000,295.621765 66.250000,296.535217 66.250000,296.535217 
	66.250000,296.535217 "
	style="fill-opacity:1.0; fill-rule:evenodd; fill:black; stroke:none" />
<polygon points="106.704544,405.694885 
	101.250000,414.372833 98.750000,422.594086 97.840904,429.901825 97.386368,434.697571 
	95.113640,431.272064 93.522728,426.476349 95.568184,416.656525 99.886368,407.978577 
	103.522728,404.553070 106.704544,405.694885 106.704544,405.694885 106.704544,405.694885 "
	style="fill-opacity:1.0; fill-rule:evenodd; fill:black; stroke:none" />
<polygon points="136.931808,429.445129 
	117.386368,433.555756 101.250000,438.808167 86.931816,444.289001 86.931816,453.880432 
	93.522728,456.392487 93.068184,461.644958 141.931808,472.378204 203.750000,511.885803 
	181.931824,492.017822 163.068176,479.229248 151.250000,472.834930 145.795456,468.724335 
	154.431808,433.784088 148.750000,433.555756 142.840912,462.558411 142.386368,468.724335 
	140.340912,466.440643 117.386368,457.762695 99.886368,453.880432 90.340912,452.510254 
	90.340912,447.714508 112.386368,451.140045 133.295456,454.565552 138.522736,457.305939 
	139.886368,462.558411 140.340912,454.565552 132.840912,451.596771 116.704552,448.171265 
	103.068184,445.887573 91.704544,444.745728 112.840912,437.894714 128.522736,433.555756 
	141.022736,431.272064 136.931808,429.445129 136.931808,429.445129 136.931808,429.445129 "
	style="fill-opacity:1.0; fill-rule:evenodd; fill:black; stroke:none" />
<polygon points="174.204544,422.137360 
	171.477280,423.964294 156.931824,428.760010 160.113632,432.642273 158.750000,435.611053 
	190.795456,455.022308 206.250000,465.527161 211.477280,469.637817 210.113647,463.243500 
	193.295456,452.053528 163.068176,433.555756 167.613632,430.358582 171.477280,429.445129 
	181.477280,438.351440 194.659103,443.147186 211.022720,452.966949 222.159088,461.644958 
	222.613647,466.440643 316.931824,443.832275 310.113647,443.147186 302.386383,436.524536 
	309.886383,433.555756 316.022736,439.950012 318.750031,439.493286 312.159088,431.728790 
	328.750031,419.396942 334.659088,408.892059 337.613617,399.985718 340.113617,389.480804 
	344.886383,368.699341 344.204559,359.564667 343.295471,355.225677 342.386383,348.374664 
	338.522736,339.239960 331.931824,330.105225 330.113617,326.908112 327.840912,319.371979 
	242.386368,335.357697 244.204544,336.956268 323.068176,322.340759 323.522736,330.105225 
	329.204529,337.869751 334.659088,344.949127 336.704559,350.886688 324.886383,354.312225 
	274.886383,368.699341 335.795471,355.225677 338.068176,357.737732 338.068176,370.069550 
	335.340912,388.110596 331.704529,401.812622 327.840912,411.860809 319.659088,420.538788 
	309.886383,427.846527 295.113647,435.154297 273.977295,441.320221 248.068192,446.801056 
	228.522720,447.714508 212.613647,444.745728 200.340897,441.776947 186.022720,435.611053 
	178.068176,430.358582 175.795456,426.933075 174.204544,422.137360 174.204544,422.137360 
	174.204544,422.137360 "
	style="fill-opacity:1.0; fill-rule:evenodd; fill:black; stroke:none" />
<polygon points="324.886383,313.206055 
	320.795471,315.489716 309.431824,306.811768 304.659088,306.355011 255.568192,312.292572 
	213.977280,321.198914 225.795471,328.735046 231.931824,334.900970 228.977264,335.357697 
	218.750000,326.679749 208.295456,322.340759 203.295456,333.530762 193.295456,358.651184 
	186.704544,379.889374 181.477280,402.726105 178.977280,417.570007 175.795456,418.940216 
	174.431824,415.743073 178.977280,387.653870 182.386368,373.495087 173.295456,378.975891 
	167.613632,379.432648 169.659103,376.235474 185.795456,363.903656 201.704544,317.545013 
	237.613647,309.780548 271.477295,304.299713 305.113647,300.417450 311.704529,300.874207 
	320.113647,307.040131 324.886383,313.206055 324.886383,313.206055 324.886383,313.206055 "
	style="fill-opacity:1.0; fill-rule:evenodd; fill:black; stroke:none" />
<polygon points="230.795471,341.295258 
	213.068192,393.819763 206.250000,421.452271 203.750000,433.784088 204.204544,438.808167 
	208.750000,438.351440 209.659088,423.964294 221.704544,375.778748 230.795471,341.295258 
	230.795471,341.295258 230.795471,341.295258 "
	style="fill-opacity:1.0; fill-rule:evenodd; fill:black; stroke:none" />
<polygon points="241.022736,342.665436 
	244.204544,347.917908 249.204544,352.941986 246.250000,353.855469 241.022736,347.461182 
	241.022736,342.665436 241.022736,342.665436 241.022736,342.665436 "
	style="fill-opacity:1.0; fill-rule:evenodd; fill:black; stroke:none" />
<polygon points="256.477295,359.564667 
	269.431824,370.754639 269.431824,392.906311 266.477295,409.805511 259.886383,430.358582 
	256.022736,439.264923 251.250000,442.233704 249.204544,441.320221 254.659088,436.524536 
	265.113647,398.387146 266.477295,384.685089 266.477295,372.581604 256.477295,359.564667 
	256.477295,359.564667 256.477295,359.564667 "
	style="fill-opacity:1.0; fill-rule:evenodd; fill:black; stroke:none" />
<polygon points="318.295471,445.430847 
	306.022736,476.717194 307.159088,480.142731 310.795471,480.142731 311.704529,475.803711 
	323.522736,446.344299 321.250031,443.832275 318.295471,445.430847 318.295471,445.430847 
	318.295471,445.430847 "
	style="fill-opacity:1.0; fill-rule:evenodd; fill:black; stroke:none" />
<polygon points="302.386383,479.685974 
	285.795441,482.426392 208.295456,502.751099 211.477280,509.145355 271.477295,492.702942 
	301.704529,487.222107 300.340912,483.111511 302.386383,479.685974 302.386383,479.685974 
	302.386383,479.685974 "
	style="fill-opacity:1.0; fill-rule:evenodd; fill:black; stroke:none" />
<polygon points="216.704544,471.464722 
	206.022720,502.294342 206.250000,496.128418 212.159088,472.378204 216.704544,471.464722 
	216.704544,471.464722 216.704544,471.464722 "
	style="fill-opacity:1.0; fill-rule:evenodd; fill:black; stroke:none" />
</svg>
