<?xml version='1.0' encoding='utf-8'?>
<svg xmlns="http://www.w3.org/2000/svg" enable-background="new 0 0 500 500" version="1.1" viewBox="0 0 500 500"> <style type="text/css">.st0{fill:#2F2035;} .st1{fill:#596273;} .st2{fill-rule:evenodd;clip-rule:evenodd;fill:#DCE4E7;} .st3{fill:#AFAFAF;} .st4{fill-rule:evenodd;clip-rule:evenodd;fill:#E2E2E2;} .st5{fill-rule:evenodd;clip-rule:evenodd;fill:#F3F4F4;} .st6{fill-rule:evenodd;clip-rule:evenodd;fill:#596273;} .st7{fill-rule:evenodd;clip-rule:evenodd;fill:#FFFFFF;} .st8{fill:#FFFFFF;} .st9{fill:#D2D5D9;} .st10{fill:#8E96A0;} .st11{fill:#DCE4E7;} .st12{fill:#566472;} .st13{fill:#D3DCE0;}</style> <rect class="st0" x=".3" width="500" height="500"/> <path class="st1" d="m406.7 259.8c0 1.5 0 3-0.1 4.5-0.2 6.2-0.7 12.3-1.6 18.3-0.9 6.2-2.2 12.4-3.8 18.3-18.1 66.4-78.8 115.3-151 115.3-86.4 0-156.5-70.1-156.5-156.5s70-156.5 156.5-156.5 156.5 70.2 156.5 156.6z"/> <path class="st2" d="m193.2 156.5c-0.4-0.8-1.1-0.9-1.9-0.6l-3.5 1.6c-0.9 0.4 0.1 1.9 1.1 3.9 0.3 0.6 0.9 0.7 1.6 0.4 2.9-1.5 5.7 3.2 2.2 5-2.3 1.1-3.7-0.4-4.8-2.7-2.2-4.5-3.1-4.9-4.1-4.5l-2.6 1.3c-0.9 0.5-0.5 1.5 0.4 3.3 0.5 1 0.8 1.6 1.4 1.3 3.5-1.7 5.7 3.1 2.3 4.8-2.1 1-3.8-1-4.2-3-0.2-0.6 0.1-0.9-0.2-1.6-1.1-2.3-2.2-3.6-3.4-3l-4.2 1.9 1.7 3.4c0.2 0.6 0.7 0.8 1.3 0.5 2.9-1.5 5.6 3.3 1.5 5.3-1.4 0.6-3.2 0.4-4.2-1.4-1.2-2.4-0.1-3-0.7-4.8-0.9-1.7-1.9-1.7-2.7-1.4l-3.5 1.6c-0.9 0.4 0.1 1.9 1.1 3.9 0.3 0.6 0.9 0.7 1.6 0.4 2.9-1.5 5.7 3.2 2.2 5-2.3 1.1-3.7-0.4-4.8-2.7-2.2-4.5-3.1-4.9-4.1-4.5l-2.6 1.3c-0.9 0.5-0.5 1.5 0.4 3.3 0.5 1 0.8 1.6 1.4 1.3 3.5-1.7 5.7 3.1 2.3 4.8-2.1 1-3.8-1-4.2-3-0.2-0.6 0.1-0.9-0.2-1.6-1.1-2.3-2.2-3.6-3.4-3l-4.2 1.9 1.7 3.4c0.2 0.6 0.7 0.8 1.3 0.5 2.9-1.5 5.5 3.4 2.1 5-2.6 1.3-4-1.1-5.2-3.6l-1.8-3.6c-0.3-0.3-0.7-0.4-1-0.2l-3.5 1.6c-0.9 0.4 0.1 1.9 1.1 3.9 0.4 0.6 0.9 0.7 1.6 0.4 2.9-1.5 5.7 3.2 2.2 5-2.3 1.1-3.7-0.4-4.8-2.7-2.2-4.5-3.1-4.9-4.1-4.5l-2.6 1.3c-0.9 0.5-0.5 1.5 0.4 3.3 0.5 1 0.8 1.6 1.4 1.3 3.5-1.7 5.7 3.1 2.3 4.8-2.1 1-3.8-1-4.2-3-0.2-0.6 0.1-0.9-0.2-1.6-1.1-2.3-2.2-3.6-3.4-3l-4.2 1.9 1.7 3.4c0.2 0.6 0.7 0.8 1.3 0.5 2.9-1.5 5.6 3.3 1.5 5.3-1.4 0.6-3.2 0.4-4.2-1.4-1.2-2.4-0.1-3-0.7-4.8-0.9-1.7-1.9-1.7-2.7-1.4l-3.5 1.6c-0.9 0.4 0.1 1.9 1.1 3.9 0.3 0.6 0.9 0.7 1.6 0.4 2.9-1.5 5.7 3.2 2.2 5-2.3 1.1-3.7-0.4-4.8-2.7-2.2-4.5-3.1-4.9-4.1-4.5l-2.6 1.3c-0.9 0.5-0.5 1.5 0.4 3.3 0.5 1 0.8 1.6 1.4 1.3 3.5-1.7 5.7 3.1 2.3 4.8-2.1 1-3.8-1-4.2-3-0.2-0.6 0.1-0.9-0.2-1.6-1.1-2.3-2.2-3.6-3.4-3l-4.2 1.9 1.7 3.4c0.2 0.6 0.7 0.8 1.3 0.5 2.9-1.5 5.6 3.3 1.5 5.3-2.3 1.1-3.7-1.5-3.7-4.2-0.2-1.2-0.6-2.1-1.3-2.7-1-0.7-1.7-1-2.8-0.5l-3.5 1.6c-0.9 0.4 0.1 1.9 1.1 3.9 0.4 0.6 0.9 0.7 1.6 0.4 2.9-1.5 5.7 3.2 2.2 5-2.3 1.1-3.7-0.4-4.8-2.7-2.2-4.5-3.1-4.9-4.1-4.5l-2.6 1.3c-0.9 0.5-0.5 1.5 0.4 3.3 0.5 1 0.8 1.6 1.4 1.3 3.5-1.7 5.7 3.1 2.3 4.8-2.1 1-3.8-1-4.2-3-0.2-0.6 0.1-0.9-0.2-1.6-1.1-2.3-2.2-3.6-3.4-3l-4.2 1.9 1.7 3.4c0.2 0.6 0.7 0.8 1.3 0.5 2.9-1.5 5.6 3.3 1.5 5.3-1.4 0.6-3.2 0.4-4.2-1.4-1.2-2.4-0.1-3-0.7-4.8-0.9-1.7-1.9-1.7-2.7-1.4l-3.5 1.6c-0.9 0.4 0.1 1.9 1.1 3.9 0.3 0.6 0.9 0.7 1.6 0.4 2.9-1.5 5.7 3.2 2.2 5-2.3 1.1-3.7-0.4-4.8-2.7-2.2-4.5-3.1-4.9-4.1-4.5l-2.6 1.3c-0.9 0.5-0.5 1.5 0.4 3.3 0.5 1 0.8 1.6 1.4 1.3 3.5-1.7 5.7 3.1 2.3 4.8-2.1 1-3.8-1-4.2-3-0.2-0.6 0.1-0.9-0.2-1.6-1.1-2.3-2.2-3.6-3.4-3l-4.2 1.9 1.7 3.4c0.2 0.6 0.7 0.8 1.3 0.5 2.9-1.5 5.6 3.3 1.5 5.3-0.7 0.4-1.3 1.2-1.2 1.8 0.1 0.3 0.2 0.6 0.1 1l80 162.1 126.8-61.7-80-162.1c-1.6-3.4-3.2-6.8-4.8-10z"/> <rect class="st3" transform="matrix(.8969 -.4423 .4423 .8969 -104.24 79.312)" x="113.6" y="262.7" width="8.6" height=".9"/> <rect class="st3" transform="matrix(.8969 -.4423 .4423 .8969 -100.5 83.88)" x="125.3" y="257" width="8.6" height=".9"/> <rect class="st3" transform="matrix(.8969 -.4423 .4423 .8969 -96.68 88.529)" x="137.2" y="251.1" width="8.6" height=".9"/> <rect class="st3" transform="matrix(.8969 -.4423 .4423 .8969 -92.864 93.18)" x="149.1" y="245.3" width="8.6" height=".9"/> <rect class="st3" transform="matrix(.8969 -.4423 .4423 .8969 -89.082 97.789)" x="161" y="239.4" width="8.4" height=".9"/> <rect class="st3" transform="matrix(.8969 -.4423 .4423 .8969 -100.9 89.876)" x="123" y="260.8" width="38.6" height=".9"/> <rect class="st3" transform="matrix(.8969 -.4423 .4423 .8969 -87.442 106.27)" x="164.9" y="240.2" width="38.6" height=".9"/> <rect class="st3" transform="matrix(.8969 -.4423 .4423 .8969 -109.37 86.043)" x="121.2" y="277.1" width="17.2" height=".9"/> <rect class="st3" transform="matrix(.8969 -.4423 .4423 .8969 -103.78 92.855)" x="138.5" y="268.5" width="17.4" height=".9"/> <rect class="st3" transform="matrix(.8969 -.4423 .4423 .8969 -94.875 103.7)" x="166.2" y="254.8" width="17.4" height=".9"/> <rect class="st3" transform="matrix(.8969 -.4423 .4423 .8969 -89.218 110.6)" x="183.9" y="246.1" width="17.2" height=".9"/> <rect class="st3" transform="matrix(.8969 -.4423 .4423 .8969 -107.56 94.73)" x="146.2" y="277.6" width="6.3" height=".9"/> <rect class="st3" transform="matrix(.8969 -.4423 .4423 .8969 -104.58 98.36)" x="155.4" y="273" width="6.5" height=".9"/> <rect class="st3" transform="matrix(.8969 -.4423 .4423 .8969 -101.6 101.99)" x="164.8" y="268.4" width="6.3" height=".9"/> <rect class="st3" transform="matrix(.8969 -.4423 .4423 .8969 -98.591 105.66)" x="174.1" y="263.8" width="6.3" height=".9"/> <rect class="st3" transform="matrix(.8969 -.4423 .4423 .8969 -95.546 109.37)" x="183.5" y="259.1" width="6.5" height=".9"/> <rect class="st3" transform="matrix(.8969 -.4423 .4423 .8969 -92.533 113.04)" x="192.9" y="254.5" width="6.5" height=".9"/> <rect class="st3" transform="matrix(.8969 -.4423 .4423 .8969 -89.553 116.67)" x="202.3" y="249.9" width="6.3" height=".9"/> <rect class="st3" transform="matrix(.8969 -.4423 .4423 .8969 -86.541 120.34)" x="211.7" y="245.3" width="6.3" height=".9"/> <rect class="st3" transform="matrix(.8969 -.4423 .4423 .8969 -113.96 93.427)" x="128.6" y="290.6" width="29.5" height=".9"/> <rect class="st3" transform="matrix(.8969 -.4423 .4423 .8969 -104.72 104.68)" x="157.4" y="276.4" width="29.5" height=".9"/> <rect class="st3" transform="matrix(.8969 -.4423 .4423 .8969 -95.413 116.02)" x="186.3" y="262.1" width="29.5" height=".9"/> <rect class="st3" transform="matrix(.8969 -.4423 .4423 .8969 -119.65 92.641)" x="133.4" y="302.4" width="10.9" height=".9"/> <rect class="st3" transform="matrix(.8969 -.4423 .4423 .8969 -115.37 97.861)" x="146.7" y="295.9" width="10.9" height=".9"/> <rect class="st3" transform="matrix(.8969 -.4423 .4423 .8969 -111.02 103.16)" x="160.2" y="289.2" width="10.9" height=".9"/> <rect class="st3" transform="matrix(.8969 -.4423 .4423 .8969 -106.73 108.39)" x="173.6" y="282.6" width="10.9" height=".9"/> <rect class="st3" transform="matrix(.8969 -.4423 .4423 .8969 -100.21 116.34)" x="194" y="272.6" width="10.7" height=".9"/> <rect class="st3" transform="matrix(.8969 -.4423 .4423 .8969 -95.854 121.64)" x="207.6" y="265.9" width="10.7" height=".9"/> <rect class="st3" transform="matrix(.8969 -.4423 .4423 .8969 -121.58 96.95)" x="137" y="308.7" width="20.2" height=".9"/> <rect class="st3" transform="matrix(.8969 -.4423 .4423 .8969 -110.3 110.7)" x="172" y="291.4" width="20.4" height=".9"/> <rect class="st3" transform="matrix(.8969 -.4423 .4423 .8969 -99.083 124.36)" x="206.8" y="274.2" width="20.7" height=".9"/> <rect class="st3" transform="matrix(.8969 -.4423 .4423 .8969 -116.07 109.98)" x="161.5" y="303.4" width="32.5" height=".9"/> <rect class="st3" transform="matrix(.8969 -.4423 .4423 .8969 -104.73 123.8)" x="196.7" y="286" width="32.8" height=".9"/> <rect class="st3" transform="matrix(.8969 -.4423 .4423 .8969 -116.76 115.8)" x="159.1" y="307.8" width="61.6" height=".9"/> <rect class="st3" transform="matrix(.8969 -.4423 .4423 .8969 -125.33 111.84)" x="169.7" y="324.2" width="14.9" height=".9"/> <rect class="st3" transform="matrix(.8969 -.4423 .4423 .8969 -120.11 118.2)" x="186" y="316.2" width="14.9" height=".9"/> <rect class="st3" transform="matrix(.8969 -.4423 .4423 .8969 -114.89 124.56)" x="202.2" y="308.2" width="14.9" height=".9"/> <rect class="st3" transform="matrix(.8969 -.4423 .4423 .8969 -109.66 130.93)" x="218.5" y="300.2" width="14.9" height=".9"/> <rect class="st3" transform="matrix(.8969 -.4423 .4423 .8969 -128.95 113.92)" x="154.6" y="333" width="50.4" height=".9"/> <rect class="st3" transform="matrix(.8969 -.4423 .4423 .8969 -117.1 128.36)" x="203.1" y="314.8" width="27.2" height=".9"/> <rect class="st3" transform="matrix(.8969 -.4423 .4423 .8969 -134.47 113.68)" x="166.4" y="344.7" width="20.2" height=".9"/> <rect class="st3" transform="matrix(.8969 -.4423 .4423 .8969 -129.55 119.67)" x="187.7" y="337.2" width="8.4" height=".9"/> <rect class="st3" transform="matrix(.8969 -.4423 .4423 .8969 -126.81 123.01)" x="196.2" y="333" width="8.4" height=".9"/> <rect class="st3" transform="matrix(.8969 -.4423 .4423 .8969 -124.06 126.36)" x="205" y="328.7" width="7.9" height=".9"/> <rect class="st3" transform="matrix(.8969 -.4423 .4423 .8969 -121.32 129.7)" x="213.3" y="324.5" width="8.4" height=".9"/> <rect class="st3" transform="matrix(.8969 -.4423 .4423 .8969 -118.61 133.01)" x="221.8" y="320.4" width="8.1" height=".9"/> <rect class="st3" transform="matrix(.8969 -.4423 .4423 .8969 -115.83 136.39)" x="230.6" y="316.1" width="7.9" height=".9"/> <rect class="st3" transform="matrix(.8969 -.4423 .4423 .8969 -113.08 139.74)" x="238.9" y="311.9" width="8.4" height=".9"/> <rect class="st3" transform="matrix(.8969 -.4423 .4423 .8969 -131.78 123.28)" x="189.4" y="343.8" width="18.1" height=".9"/> <rect class="st3" transform="matrix(.8969 -.4423 .4423 .8969 -125.55 130.86)" x="208.8" y="334.2" width="18.1" height=".9"/> <rect class="st3" transform="matrix(.8969 -.4423 .4423 .8969 -119.46 138.29)" x="227.7" y="324.8" width="18.1" height=".9"/> <rect class="st3" transform="matrix(.8969 -.4423 .4423 .8969 -136.25 124.15)" x="180.8" y="353.8" width="34.6" height=".9"/> <rect class="st3" transform="matrix(.8969 -.4423 .4423 .8969 -119.78 144.21)" x="243" y="328.5" width="12.8" height=".9"/> <path class="st4" d="m270.6 103.3c-0.1-0.9-0.7-1.2-1.5-1.2l-3.7 0.3c-0.9 0.1-0.5 1.8-0.3 3.9 0.1 0.7 0.5 1 1.3 0.9 3.1-0.3 4 4.8 0.3 5.2-2.4 0.2-3.2-1.6-3.4-4.1-0.5-4.8-1.1-5.5-2.2-5.4l-2.7 0.3c-1 0.1-1 1.2-0.8 3.1 0.1 1.1 0.2 1.7 0.8 1.6 3.7-0.4 4 4.7 0.5 5.1-2.2 0.2-3-2.2-2.7-4.1 0-0.6 0.4-0.8 0.4-1.5-0.2-2.4-0.8-4-2-3.8l-4.4 0.3 0.4 3.6c0 0.6 0.3 1 1 0.9 3.1-0.3 4 4.8-0.5 5.3-1.4 0.1-3-0.7-3.3-2.7-0.3-2.6 1-2.7 1-4.5-0.2-1.9-1.1-2.2-2-2.1l-3.7 0.3c-0.9 0.1-0.5 1.8-0.3 3.9 0.1 0.7 0.5 1 1.3 0.9 3.1-0.3 4 4.8 0.3 5.2-2.4 0.2-3.2-1.6-3.4-4.1-0.5-4.8-1.1-5.5-2.2-5.4l-2.7 0.3c-1 0.1-1 1.2-0.8 3.1 0.1 1.1 0.2 1.7 0.8 1.6 3.7-0.4 4 4.7 0.5 5.1-2.2 0.2-3-2.2-2.7-4.1 0-0.6 0.4-0.8 0.4-1.5-0.2-2.4-0.8-4-2-3.8l-4.4 0.3 0.4 3.6c0 0.6 0.3 1 1 0.9 3.1-0.3 3.8 4.9 0.2 5.2-2.7 0.3-3.2-2.4-3.5-5l-0.4-3.8c-0.2-0.4-0.5-0.6-0.8-0.5l-3.7 0.3c-0.9 0.1-0.5 1.8-0.3 3.9 0.1 0.7 0.5 1 1.3 0.9 3.1-0.3 4 4.8 0.3 5.2-2.4 0.2-3.2-1.6-3.4-4.1-0.5-4.8-1.1-5.5-2.2-5.4l-2.7 0.3c-1 0.1-1 1.2-0.8 3.1 0.1 1.1 0.2 1.7 0.8 1.6 3.7-0.4 4 4.7 0.5 5.1-2.2 0.2-3-2.2-2.7-4.1 0-0.6 0.4-0.8 0.4-1.5-0.2-2.4-0.8-4-2-3.8l-4.4 0.3 0.4 3.6c0 0.6 0.3 1 1 0.9 3.1-0.3 4 4.8-0.5 5.3-1.4 0.1-3-0.7-3.3-2.7-0.3-2.6 1-2.7 1-4.5-0.2-1.9-1.1-2.2-2-2.1l-3.7 0.3c-0.9 0.1-0.5 1.8-0.3 3.9 0.1 0.7 0.5 1 1.3 0.9 3.1-0.3 4 4.8 0.3 5.2-2.4 0.2-3.2-1.6-3.4-4.1-0.5-4.8-1.1-5.5-2.2-5.4l-2.7 0.3c-1 0.1-1 1.2-0.8 3.1 0.1 1.1 0.2 1.7 0.8 1.6 3.7-0.4 4 4.7 0.5 5.1-2.2 0.2-3-2.2-2.7-4.1 0-0.6 0.4-0.8 0.4-1.5-0.2-2.4-0.8-4-2-3.8l-4.4 0.3 0.4 3.6c0 0.6 0.3 1 1 0.9 3.1-0.3 4 4.8-0.5 5.3-2.4 0.2-2.8-2.6-1.9-5 0.3-1.2 0.2-2.1-0.2-2.8-0.7-1-1.2-1.4-2.4-1.4l-3.7 0.3c-0.9 0.1-0.5 1.8-0.3 3.9 0.1 0.7 0.5 1 1.3 0.9 3.1-0.3 4 4.8 0.3 5.2-2.4 0.2-3.2-1.6-3.4-4.1-0.5-4.8-1.1-5.5-2.2-5.4l-2.7 0.3c-1 0.1-1 1.2-0.8 3.1 0.1 1.1 0.2 1.7 0.8 1.6 3.7-0.4 4 4.7 0.5 5.1-2.2 0.2-3-2.2-2.7-4.1 0-0.6 0.4-0.8 0.4-1.5-0.2-2.4-0.8-4-2-3.8l-4.4 0.3 0.4 3.6c0 0.6 0.3 1 1 0.9 3.1-0.3 4 4.8-0.5 5.3-1.4 0.1-3-0.7-3.3-2.7-0.3-2.6 1-2.7 1-4.5-0.2-1.9-1.1-2.2-2-2.1l-3.7 0.3c-0.9 0.1-0.5 1.8-0.3 3.9 0.1 0.7 0.5 1 1.3 0.9 3.1-0.3 4 4.8 0.3 5.2-2.4 0.2-3.2-1.6-3.4-4.1-0.5-4.8-1.1-5.5-2.2-5.4l-2.7 0.3c-1 0.1-1 1.2-0.8 3.1 0.1 1.1 0.2 1.7 0.8 1.6 3.7-0.4 4 4.7 0.5 5.1-2.2 0.2-3-2.2-2.7-4.1 0-0.6 0.4-0.8 0.4-1.5-0.2-2.4-0.8-4-2-3.8l-4.4 0.3 0.4 3.6c0 0.6 0.3 1 1 0.9 3.1-0.3 4 4.8-0.5 5.3-0.7 0.1-1.6 0.6-1.7 1.2 0 0.3-0.1 0.6-0.2 0.9l16.9 172.4 134.8-13.2-16.9-172.4c-1.3-3.8-1.7-7.4-2-10.8z"/> <rect class="st3" transform="matrix(.9953 -.097327 .097327 .9953 -16.093 17.081)" x="162.9" y="173.1" width="8.2" height=".9"/> <rect class="st3" transform="matrix(.9953 -.097332 .097332 .9953 -15.916 18.284)" x="175.3" y="171.8" width="8.2" height=".9"/> <rect class="st3" transform="matrix(.9953 -.097327 .097327 .9953 -15.735 19.507)" x="188" y="170.6" width="8.2" height=".9"/> <rect class="st3" transform="matrix(.9953 -.097332 .097332 .9953 -15.556 20.732)" x="200.6" y="169.4" width="8.2" height=".9"/> <rect class="st3" transform="matrix(.9953 -.097327 .097327 .9953 -15.377 21.944)" x="213.2" y="168.1" width="8" height=".9"/> <rect class="st3" transform="matrix(.9953 -.097328 .097328 .9953 -16.622 19.298)" x="171" y="179.6" width="37" height=".9"/> <rect class="st3" transform="matrix(.9953 -.097328 .097328 .9953 -15.986 23.614)" x="215.6" y="175.2" width="37" height=".9"/> <rect class="st3" transform="matrix(.9953 -.097327 .097327 .9953 -17.709 17.725)" x="164.6" y="189.9" width="16.5" height=".9"/> <rect class="st3" transform="matrix(.9953 -.097329 .097329 .9953 -17.445 19.518)" x="183" y="188.1" width="16.7" height=".9"/> <rect class="st3" transform="matrix(.9953 -.097329 .097329 .9953 -17.025 22.374)" x="212.5" y="185.2" width="16.7" height=".9"/> <rect class="st3" transform="matrix(.9953 -.097329 .097329 .9953 -16.758 24.188)" x="231.3" y="183.4" width="16.5" height=".9"/> <rect class="st3" transform="matrix(.9953 -.097328 .097328 .9953 -18.311 19.448)" x="187.2" y="197" width="6" height=".9"/> <rect class="st3" transform="matrix(.9953 -.097327 .097327 .9953 -18.17 20.403)" x="196.9" y="196" width="6.2" height=".9"/> <rect class="st3" transform="matrix(.9953 -.097327 .097327 .9953 -18.029 21.359)" x="206.9" y="195" width="6" height=".9"/> <rect class="st3" transform="matrix(.9953 -.097335 .097335 .9953 -17.888 22.327)" x="216.9" y="194.1" width="6" height=".9"/> <rect class="st3" transform="matrix(.9953 -.097327 .097327 .9953 -17.743 23.302)" x="226.9" y="193.1" width="6.2" height=".9"/> <rect class="st3" transform="matrix(.9953 -.097327 .097327 .9953 -17.601 24.268)" x="236.8" y="192.1" width="6.2" height=".9"/> <rect class="st3" transform="matrix(.9953 -.097328 .097328 .9953 -17.46 25.223)" x="246.8" y="191.1" width="6" height=".9"/> <rect class="st3" transform="matrix(.9953 -.097327 .097327 .9953 -17.318 26.189)" x="256.8" y="190.2" width="6" height=".9"/> <rect class="st3" transform="matrix(.9953 -.097329 .097329 .9953 -19.3 18.541)" x="166.3" y="206.7" width="28.3" height=".9"/> <rect class="st3" transform="matrix(.9953 -.097329 .097329 .9953 -18.864 21.504)" x="196.8" y="203.7" width="28.3" height=".9"/> <rect class="st3" transform="matrix(.9953 -.097327 .097327 .9953 -18.424 24.488)" x="227.7" y="200.6" width="28.3" height=".9"/> <rect class="st3" transform="matrix(.9953 -.09733 .09733 .9953 -20.221 17.8)" x="167.1" y="215.7" width="10.5" height=".9"/> <rect class="st3" transform="matrix(.9953 -.097326 .097326 .9953 -20.018 19.173)" x="181.3" y="214.3" width="10.5" height=".9"/> <rect class="st3" transform="matrix(.9953 -.09733 .09733 .9953 -19.813 20.569)" x="195.7" y="212.9" width="10.5" height=".9"/> <rect class="st3" transform="matrix(.9953 -.09733 .09733 .9953 -19.611 21.943)" x="209.9" y="211.5" width="10.5" height=".9"/> <rect class="st3" transform="matrix(.9953 -.097327 .097327 .9953 -19.302 24.036)" x="231.6" y="209.4" width="10.2" height=".9"/> <rect class="st3" transform="matrix(.9953 -.097327 .097327 .9953 -19.096 25.431)" x="246" y="208" width="10.2" height=".9"/> <rect class="st3" transform="matrix(.9953 -.097328 .097328 .9953 -21.016 18.355)" x="167.9" y="224.2" width="19.4" height=".9"/> <rect class="st3" transform="matrix(.9953 -.097328 .097328 .9953 -20.484 21.972)" x="205.2" y="220.5" width="19.6" height=".9"/> <rect class="st3" transform="matrix(.9953 -.097328 .097328 .9953 -19.954 25.569)" x="242.2" y="216.9" width="19.8" height=".9"/> <rect class="st3" transform="matrix(.9953 -.097328 .097328 .9953 -21.426 21.234)" x="191.3" y="229.8" width="31.2" height=".9"/> <rect class="st3" transform="matrix(.9953 -.097328 .097328 .9953 -20.89 24.873)" x="228.8" y="226.1" width="31.4" height=".9"/> <rect class="st3" transform="matrix(.9953 -.097328 .097328 .9953 -22.163 22.187)" x="186.8" y="237.8" width="59" height=".9"/> <rect class="st3" transform="matrix(.9953 -.09733 .09733 .9953 -23.255 20.582)" x="192.2" y="248.2" width="14.3" height=".9"/> <rect class="st3" transform="matrix(.9953 -.09733 .09733 .9953 -23.009 22.257)" x="209.5" y="246.5" width="14.3" height=".9"/> <rect class="st3" transform="matrix(.9953 -.09733 .09733 .9953 -22.762 23.932)" x="226.8" y="244.8" width="14.3" height=".9"/> <rect class="st3" transform="matrix(.9953 -.097327 .097327 .9953 -22.515 25.606)" x="244.1" y="243.1" width="14.3" height=".9"/> <rect class="st3" transform="matrix(.9953 -.097328 .097328 .9953 -24.113 20.566)" x="174.6" y="257" width="48.3" height=".9"/> <rect class="st3" transform="matrix(.9953 -.097327 .097327 .9953 -23.553 24.366)" x="224.9" y="253.2" width="26.1" height=".9"/> <rect class="st3" transform="matrix(.9953 -.097328 .097328 .9953 -25.061 19.938)" x="182.1" y="266.4" width="19.4" height=".9"/> <rect class="st3" transform="matrix(.9953 -.097327 .097327 .9953 -24.828 21.516)" x="204.1" y="264.8" width="8" height=".9"/> <rect class="st3" transform="matrix(.9953 -.097327 .097327 .9953 -24.698 22.396)" x="213.2" y="263.9" width="8" height=".9"/> <rect class="st3" transform="matrix(.9953 -.097329 .097329 .9953 -24.569 23.276)" x="222.5" y="263" width="7.6" height=".9"/> <rect class="st3" transform="matrix(.9953 -.097327 .097327 .9953 -24.439 24.156)" x="231.4" y="262.1" width="8" height=".9"/> <rect class="st3" transform="matrix(.9953 -.097328 .097328 .9953 -24.311 25.026)" x="240.5" y="261.3" width="7.8" height=".9"/> <rect class="st3" transform="matrix(.9953 -.097329 .097329 .9953 -24.18 25.917)" x="249.8" y="260.4" width="7.6" height=".9"/> <rect class="st3" transform="matrix(.9953 -.097327 .097327 .9953 -24.05 26.797)" x="258.6" y="259.5" width="8" height=".9"/> <rect class="st3" transform="matrix(.9953 -.097328 .097328 .9953 -25.603 21.915)" x="203.1" y="272.9" width="17.4" height=".9"/> <rect class="st3" transform="matrix(.9953 -.097328 .097328 .9953 -25.309 23.912)" x="223.8" y="270.9" width="17.4" height=".9"/> <rect class="st3" transform="matrix(.9953 -.097328 .097328 .9953 -25.021 25.865)" x="243.9" y="269" width="17.4" height=".9"/> <rect class="st3" transform="matrix(.9953 -.097328 .097328 .9953 -26.484 21.595)" x="191.5" y="281.8" width="33.2" height=".9"/> <rect class="st3" transform="matrix(.9953 -.09733 .09733 .9953 -25.706 26.877)" x="256.5" y="276.5" width="12.2" height=".9"/> <path class="st5" d="m268 84.3c-0.2-0.9-0.9-1.1-1.6-1l-3.6 0.7c-0.9 0.2-0.3 1.8 0.2 3.9 0.2 0.6 0.6 0.9 1.4 0.7 3.1-0.7 4.6 4.3 0.9 5.1-2.4 0.5-3.3-1.2-3.9-3.6-1.1-4.7-1.8-5.3-2.8-5.1l-2.7 0.6c-1 0.2-0.8 1.3-0.4 3.1 0.2 1.1 0.4 1.6 1 1.5 3.6-0.8 4.6 4.2 1.1 5-2.2 0.5-3.3-1.8-3.2-3.7-0.1-0.6 0.3-0.8 0.2-1.5-0.5-2.4-1.2-3.8-2.5-3.5l-4.4 0.9 0.8 3.5c0.1 0.6 0.5 0.9 1.1 0.8 3.1-0.7 4.5 4.3 0.2 5.3-1.4 0.3-3-0.4-3.6-2.2-0.6-2.5 0.6-2.8 0.4-4.6-0.5-1.8-1.4-2-2.2-1.9l-3.6 0.7c-0.9 0.2-0.3 1.8 0.2 3.9 0.2 0.6 0.6 0.9 1.4 0.7 3.1-0.7 4.6 4.3 0.9 5.1-2.4 0.5-3.3-1.2-3.9-3.6-1.1-4.7-1.8-5.3-2.8-5.1l-2.7 0.6c-1 0.2-0.8 1.3-0.4 3.1 0.2 1.1 0.4 1.6 1 1.5 3.6-0.8 4.6 4.2 1.1 5-2.2 0.5-3.3-1.8-3.2-3.7-0.1-0.6 0.3-0.8 0.2-1.5-0.5-2.4-1.2-3.8-2.5-3.5l-4.4 0.9 0.8 3.5c0.1 0.6 0.5 0.9 1.1 0.8 3.1-0.7 4.3 4.4 0.8 5.2-2.7 0.6-3.5-1.9-4.1-4.5l-0.9-3.7c-0.3-0.4-0.5-0.5-0.9-0.4l-3.6 0.7c-0.9 0.2-0.3 1.8 0.2 3.9 0.2 0.6 0.6 0.9 1.4 0.7 3.1-0.7 4.6 4.3 0.9 5.1-2.4 0.5-3.3-1.2-3.9-3.6-1.1-4.7-1.8-5.3-2.8-5.1l-2.7 0.6c-1 0.2-0.8 1.3-0.4 3.1 0.2 1.1 0.4 1.6 1 1.5 3.6-0.8 4.6 4.2 1.1 5-2.2 0.5-3.3-1.8-3.2-3.7-0.1-0.6 0.3-0.8 0.2-1.5-0.5-2.4-1.2-3.8-2.5-3.5l-4.4 0.9 0.8 3.5c0.1 0.6 0.5 0.9 1.1 0.8 3.1-0.7 4.5 4.3 0.2 5.3-1.4 0.3-3-0.4-3.6-2.2-0.6-2.5 0.6-2.8 0.4-4.6-0.5-1.8-1.4-2-2.2-1.9l-3.6 0.7c-0.9 0.2-0.3 1.8 0.2 3.9 0.2 0.6 0.6 0.9 1.4 0.7 3.1-0.7 4.6 4.3 0.9 5.1-2.4 0.5-3.3-1.2-3.9-3.6-1.1-4.7-1.8-5.3-2.8-5.1l-2.7 0.6c-1 0.2-0.8 1.3-0.4 3.1 0.2 1.1 0.4 1.6 1 1.5 3.6-0.8 4.6 4.2 1.1 5-2.2 0.5-3.3-1.8-3.2-3.7-0.1-0.6 0.3-0.8 0.2-1.5-0.5-2.4-1.2-3.8-2.5-3.5l-4.4 0.9 0.8 3.5c0.1 0.6 0.5 0.9 1.1 0.8 3.1-0.7 4.5 4.3 0.2 5.3-2.4 0.5-3.1-2.2-2.5-4.8 0.1-1.2-0.1-2.1-0.6-2.8-0.8-0.9-1.4-1.3-2.5-1.1l-3.6 0.7c-0.9 0.2-0.3 1.8 0.2 3.9 0.2 0.6 0.6 0.9 1.4 0.7 3.1-0.7 4.6 4.3 0.9 5.1-2.4 0.5-3.3-1.2-3.9-3.6-1.1-4.7-1.8-5.3-2.8-5.1l-2.7 0.6c-1 0.2-0.8 1.3-0.4 3.1 0.2 1.1 0.4 1.6 1 1.5 3.6-0.8 4.6 4.2 1.1 5-2.2 0.5-3.3-1.8-3.2-3.7-0.1-0.6 0.3-0.8 0.2-1.5-0.5-2.4-1.2-3.8-2.5-3.5l-4.4 0.9 0.8 3.5c0.1 0.6 0.5 0.9 1.1 0.8 3.1-0.7 4.5 4.3 0.2 5.3-1.4 0.3-3-0.4-3.6-2.2-0.6-2.5 0.6-2.8 0.4-4.6-0.5-1.8-1.4-2-2.2-1.9l-3.6 0.7c-0.9 0.2-0.3 1.8 0.2 3.9 0.2 0.6 0.6 0.9 1.4 0.7 3.1-0.7 4.6 4.3 0.9 5.1-2.4 0.5-3.3-1.2-3.9-3.6-1.1-4.7-1.8-5.3-2.8-5.1l-2.7 0.6c-1 0.2-0.8 1.3-0.4 3.1 0.2 1.1 0.4 1.6 1 1.5 3.6-0.8 4.6 4.2 1.1 5-2.2 0.5-3.3-1.8-3.2-3.7-0.1-0.6 0.3-0.8 0.2-1.5-0.5-2.4-1.2-3.8-2.5-3.5l-4.4 0.9 0.8 3.5c0.1 0.6 0.5 0.9 1.1 0.8 3.1-0.7 4.5 4.3 0.2 5.3-0.7 0.2-1.5 0.8-1.5 1.4 0 0.3 0 0.6-0.1 1l38.4 169 132.1-30-38.4-169c-0.6-3.2-1.4-6.7-2.2-10.1z"/> <rect class="st3" transform="matrix(.9752 -.2214 .2214 .9752 -32.649 42.662)" x="169.9" y="166.5" width="8.2" height=".9"/> <rect class="st3" transform="matrix(.9752 -.2214 .2214 .9752 -31.732 45.296)" x="182" y="163.8" width="8.4" height=".9"/> <rect class="st3" transform="matrix(.9752 -.2214 .2214 .9752 -30.802 47.969)" x="194.5" y="161" width="8.2" height=".9"/> <rect class="st3" transform="matrix(.9752 -.2214 .2214 .9752 -29.879 50.623)" x="206.8" y="158.2" width="8.2" height=".9"/> <rect class="st3" transform="matrix(.9752 -.2214 .2214 .9752 -28.949 53.296)" x="219.3" y="155.4" width="8" height=".9"/> <rect class="st3" transform="matrix(.9752 -.2214 .2214 .9752 -32.902 47.881)" x="178.6" y="170.3" width="37.1" height=".9"/> <rect class="st3" transform="matrix(.9752 -.2214 .2214 .9752 -29.624 57.303)" x="222.3" y="160.4" width="37.1" height=".9"/> <rect class="st3" transform="matrix(.9752 -.2213 .2213 .9752 -36.001 44.798)" x="173.6" y="182.6" width="16.5" height=".9"/> <rect class="st3" transform="matrix(.9752 -.2214 .2214 .9752 -34.636 48.721)" x="191.6" y="178.4" width="16.8" height=".9"/> <rect class="st3" transform="matrix(.9752 -.2214 .2214 .9752 -32.469 54.952)" x="220.5" y="171.9" width="16.8" height=".9"/> <rect class="st3" transform="matrix(.9752 -.2214 .2214 .9752 -31.091 58.912)" x="239.1" y="167.7" width="16.5" height=".9"/> <rect class="st3" transform="matrix(.9752 -.2214 .2214 .9752 -36.623 48.96)" x="197.1" y="187.4" width="6" height=".9"/> <rect class="st3" transform="matrix(.9752 -.2214 .2214 .9752 -35.907 51.017)" x="206.6" y="185.3" width="6.2" height=".9"/> <rect class="st3" transform="matrix(.9752 -.2214 .2214 .9752 -35.178 53.113)" x="216.4" y="183.1" width="6" height=".9"/> <rect class="st3" transform="matrix(.9752 -.2214 .2214 .9752 -34.442 55.228)" x="226.2" y="180.8" width="6" height=".9"/> <rect class="st3" transform="matrix(.9752 -.2214 .2214 .9752 -33.699 57.362)" x="236" y="178.6" width="6.2" height=".9"/> <rect class="st3" transform="matrix(.9752 -.2214 .2214 .9752 -32.97 59.458)" x="245.6" y="176.4" width="6.4" height=".9"/> <rect class="st3" transform="matrix(.9752 -.2214 .2214 .9752 -32.248 61.536)" x="255.4" y="174.2" width="6" height=".9"/> <rect class="st3" transform="matrix(.9752 -.2214 .2214 .9752 -31.512 63.65)" x="265.2" y="172" width="6" height=".9"/> <rect class="st3" transform="matrix(.9752 -.2214 .2214 .9752 -39.22 47.32)" x="177.3" y="198.2" width="28.3" height=".9"/> <rect class="st3" transform="matrix(.9752 -.2214 .2214 .9752 -36.972 53.78)" x="207.3" y="191.4" width="28.3" height=".9"/> <rect class="st3" transform="matrix(.9752 -.2214 .2214 .9752 -34.704 60.299)" x="237.6" y="184.5" width="28.2" height=".9"/> <rect class="st3" transform="matrix(.9752 -.2214 .2214 .9752 -41.606 46.037)" x="179.4" y="208.2" width="10.4" height=".9"/> <rect class="st3" transform="matrix(.9752 -.2214 .2214 .9752 -40.562 49.037)" x="193.3" y="205" width="10.4" height=".9"/> <rect class="st3" transform="matrix(.9752 -.2214 .2214 .9752 -39.498 52.094)" x="207.4" y="201.8" width="10.6" height=".9"/> <rect class="st3" transform="matrix(.9752 -.2214 .2214 .9752 -38.455 55.093)" x="221.3" y="198.7" width="10.6" height=".9"/> <rect class="st3" transform="matrix(.9752 -.2214 .2214 .9752 -36.863 59.67)" x="242.7" y="193.8" width="10.2" height=".9"/> <rect class="st3" transform="matrix(.9752 -.2214 .2214 .9752 -35.806 62.708)" x="256.8" y="190.7" width="10.2" height=".9"/> <rect class="st3" transform="matrix(.9752 -.2214 .2214 .9752 -43.162 47.635)" x="181.3" y="215.9" width="19.4" height=".9"/> <rect class="st3" transform="matrix(.9752 -.2214 .2214 .9752 -40.413 55.538)" x="217.8" y="207.6" width="19.6" height=".9"/> <rect class="st3" transform="matrix(.9752 -.2214 .2214 .9752 -37.683 63.383)" x="254" y="199.4" width="19.9" height=".9"/> <rect class="st3" transform="matrix(.9752 -.2214 .2214 .9752 -42.838 54.269)" x="205.1" y="217.8" width="31.3" height=".9"/> <rect class="st3" transform="matrix(.9752 -.2214 .2214 .9752 -40.075 62.21)" x="241.8" y="209.4" width="31.4" height=".9"/> <rect class="st3" transform="matrix(.9752 -.2214 .2214 .9752 -44.093 56.732)" x="201.5" y="224.6" width="59" height=".9"/> <rect class="st3" transform="matrix(.9752 -.2214 .2214 .9752 -47.224 53.618)" x="208.5" y="237.1" width="14.3" height=".7"/> <rect class="st3" transform="matrix(.9752 -.2214 .2214 .9752 -45.953 57.271)" x="225.4" y="233.3" width="14.3" height=".7"/> <rect class="st3" transform="matrix(.9752 -.2214 .2214 .9752 -44.682 60.925)" x="242.4" y="229.5" width="14.3" height=".7"/> <rect class="st3" transform="matrix(.9752 -.2214 .2214 .9752 -43.411 64.578)" x="259.3" y="225.6" width="14.3" height=".7"/> <rect class="st3" transform="matrix(.9752 -.2214 .2214 .9752 -49.165 53.927)" x="191.8" y="245.9" width="48.4" height=".9"/> <rect class="st3" transform="matrix(.9752 -.2214 .2214 .9752 -46.275 62.234)" x="241.5" y="237.1" width="26.1" height=".9"/> <rect class="st3" transform="matrix(.9752 -.2214 .2214 .9752 -51.56 52.928)" x="200.7" y="256.1" width="19.4" height=".7"/> <rect class="st3" transform="matrix(.9752 -.2214 .2214 .9752 -50.356 56.389)" x="222.4" y="252.5" width="8" height=".7"/> <rect class="st3" transform="matrix(.9752 -.2214 .2214 .9752 -49.694 58.293)" x="231.3" y="250.5" width="7.9" height=".7"/> <rect class="st3" transform="matrix(.9752 -.2214 .2214 .9752 -49.025 60.216)" x="240.4" y="248.5" width="7.5" height=".7"/> <rect class="st3" transform="matrix(.9752 -.2214 .2214 .9752 -48.363 62.119)" x="248.9" y="246.5" width="8" height=".7"/> <rect class="st3" transform="matrix(.9752 -.2214 .2214 .9752 -47.701 64.023)" x="257.9" y="244.5" width="7.9" height=".7"/> <rect class="st3" transform="matrix(.9752 -.2214 .2214 .9752 -47.019 65.985)" x="267.1" y="242.4" width="7.5" height=".7"/> <rect class="st3" transform="matrix(.9752 -.2214 .2214 .9752 -46.356 67.888)" x="275.7" y="240.4" width="8" height=".7"/> <rect class="st3" transform="matrix(.9752 -.2214 .2214 .9752 -51.937 57.607)" x="222.4" y="260.1" width="17.4" height=".9"/> <rect class="st3" transform="matrix(.9752 -.2214 .2214 .9752 -50.425 61.953)" x="242.5" y="255.5" width="17.4" height=".9"/> <rect class="st3" transform="matrix(.9752 -.2214 .2214 .9752 -48.94 66.221)" x="262.3" y="251" width="17.4" height=".9"/> <rect class="st3" transform="matrix(.9752 -.2214 .2214 .9752 -54.04 57.261)" x="211.9" y="269.3" width="33.1" height=".9"/> <rect class="st3" transform="matrix(.9752 -.2214 .2214 .9752 -50.027 68.799)" x="275.8" y="257.1" width="12.2" height=".9"/> <path class="st6" d="m136.3 136.6c-0.5 0-0.4 0.7 0 0.7l19.3-0.5c4.7-0.2 4.1-6.5-0.3-6.3l-23.3 0.6c-4.5 0.2-5.1 7.6 0.3 7.4l5.7-0.2-0.1-0.7-5.3 0.2c-4.7 0.2-4.4-5.9-0.2-6l22.3-0.6c4.3-0.2 4.8 4.8 0.2 5l-18.6 0.4z"/> <path class="st7" d="m394.7 194.6c0.3-1-0.2-1.6-1-1.9l-3.9-1.3c-1-0.3-1.3 1.6-2 3.8-0.2 0.7 0.1 1.2 0.9 1.5 3.3 1 2.1 6.7-2 5.4-2.6-0.8-2.6-3-1.7-5.7 1.6-5.1 1.2-6.1 0.1-6.5l-3-0.9c-1-0.3-1.5 0.8-2.1 2.8-0.4 1.2-0.5 1.8 0.1 2 4 1.2 2.1 6.6-1.7 5.4-2.4-0.7-2.2-3.6-1.1-5.4 0.2-0.6 0.8-0.6 1-1.4 0.8-2.6 0.9-4.4-0.4-4.8l-4.7-1.6-1.2 3.9c-0.3 0.7-0.1 1.1 0.6 1.4 3.3 1 2 6.7-2.8 5.2-1.5-0.5-2.7-2-2.2-4.2 0.8-2.8 2.2-2.4 3-4.2 0.6-2-0.2-2.7-1.1-3l-3.9-1.3c-1-0.3-1.3 1.6-2 3.8-0.2 0.7 0.1 1.2 0.9 1.5 3.3 1 2.1 6.7-2 5.4-2.6-0.8-2.6-3-1.7-5.7 1.6-5.1 1.2-6.1 0.1-6.5l-3-0.9c-1-0.3-1.5 0.8-2.1 2.8-0.4 1.2-0.5 1.8 0.1 2 4 1.2 2.1 6.6-1.7 5.4-2.4-0.7-2.2-3.6-1.1-5.4 0.2-0.6 0.8-0.6 1-1.4 0.8-2.6 0.9-4.4-0.4-4.8l-4.7-1.6-1.2 3.9c-0.3 0.7-0.1 1.1 0.6 1.4 3.3 1 1.8 6.6-2.1 5.5-2.9-0.9-2.3-3.8-1.4-6.6l1.3-4.1c0-0.5-0.3-0.8-0.6-0.9l-3.9-1.3c-1-0.3-1.3 1.6-2 3.8-0.2 0.7 0.1 1.2 0.9 1.5 3.3 1 2.1 6.7-2 5.4-2.6-0.8-2.6-3-1.7-5.7 1.6-5.1 1.2-6.1 0.1-6.5l-2.9-0.9c-1-0.3-1.5 0.8-2.1 2.8-0.4 1.2-0.5 1.8 0.1 2 4 1.2 2.1 6.6-1.7 5.4-2.4-0.7-2.2-3.6-1.1-5.4 0.2-0.6 0.8-0.6 1-1.4 0.8-2.6 0.9-4.4-0.4-4.8l-4.7-1.6-1.2 3.9c-0.3 0.7-0.1 1.1 0.6 1.4 3.3 1 2 6.7-2.8 5.2-1.5-0.5-2.7-2-2.2-4.2 0.8-2.8 2.2-2.4 3-4.2 0.6-2-0.2-2.7-1.1-3l-3.9-1.3c-1-0.3-1.3 1.6-2 3.8-0.2 0.7 0.1 1.2 0.9 1.5 3.3 1 2.1 6.7-2 5.4-2.6-0.8-2.6-3-1.7-5.7 1.6-5.1 1.2-6.1 0.1-6.5l-2.9-0.9c-1-0.3-1.5 0.8-2.1 2.8-0.4 1.2-0.5 1.8 0.1 2 4 1.2 2.1 6.6-1.7 5.4-2.4-0.7-2.2-3.6-1.1-5.4 0.2-0.6 0.8-0.6 1-1.4 0.8-2.6 0.9-4.4-0.4-4.8l-4.7-1.6-1.2 3.9c-0.3 0.7-0.1 1.1 0.6 1.4 3.3 1 2 6.7-2.8 5.2-2.6-0.8-1.8-3.8 0.2-6 0.8-1.1 1.1-2.1 1-3-0.2-1.3-0.6-2-1.8-2.5l-3.9-1.3c-1-0.3-1.3 1.6-2 3.8-0.2 0.7 0.1 1.2 0.9 1.5 3.3 1 2.1 6.7-2 5.4-2.6-0.8-2.6-3-1.7-5.7 1.6-5.1 1.2-6.1 0.1-6.5l-2.9-0.9c-1-0.3-1.5 0.8-2.1 2.8-0.4 1.2-0.5 1.8 0.1 2 4 1.2 2.1 6.6-1.7 5.4-2.4-0.7-2.2-3.6-1.1-5.4 0.2-0.6 0.8-0.6 1-1.4 0.8-2.6 0.9-4.4-0.4-4.8l-4.7-1.6-1.2 3.9c-0.3 0.7-0.1 1.1 0.6 1.4 3.3 1 2 6.7-2.8 5.2-1.5-0.5-2.7-2-2.2-4.2 0.8-2.8 2.2-2.4 3-4.2 0.6-2-0.2-2.7-1.1-3l-3.9-1.3c-1-0.3-1.3 1.6-2 3.8-0.2 0.7 0.1 1.2 0.9 1.5 3.3 1 2.1 6.7-2 5.4-2.6-0.8-2.6-3-1.7-5.7 1.6-5.1 1.2-6.1 0.1-6.5l-2.9-0.9c-1-0.3-1.5 0.8-2.1 2.8-0.4 1.2-0.5 1.8 0.1 2 4 1.2 2.1 6.6-1.7 5.4-2.4-0.7-2.2-3.6-1.1-5.4 0.2-0.6 0.8-0.6 1-1.4 0.8-2.6 0.9-4.4-0.4-4.8l-4.7-1.6-1.2 3.9c-0.3 0.7-0.1 1.1 0.6 1.4 3.3 1 2 6.7-2.8 5.2-0.8-0.2-1.9-0.1-2.2 0.5-0.2 0.3-0.3 0.6-0.6 0.9l-57.2 184.9 144.5 44.7 57.4-183.5c1.3-3.9 2.5-7.7 3.6-11.4z"/> <rect class="st3" transform="matrix(.2958 -.9552 .9552 .2958 -30.794 402.57)" x="257.2" y="217.5" width=".9" height="9.3"/> <rect class="st3" transform="matrix(.2958 -.9552 .9552 .2958 -25.38 418.13)" x="270.5" y="221.7" width=".9" height="9.3"/> <rect class="st3" transform="matrix(.2958 -.9552 .9552 .2958 -19.794 434.18)" x="284.2" y="225.9" width=".9" height="9.3"/> <rect class="st3" transform="matrix(.2958 -.9552 .9552 .2958 -14.294 449.98)" x="297.6" y="230.1" width=".9" height="9.3"/> <rect class="st3" transform="matrix(.2958 -.9552 .9552 .2958 -8.8368 465.66)" x="311" y="234.3" width=".9" height="9"/> <rect class="st3" transform="matrix(.2958 -.9552 .9552 .2958 -32.206 433.52)" x="277.5" y="217.9" width=".9" height="41.4"/> <rect class="st3" transform="matrix(.2958 -.9552 .9552 .2958 -12.698 489.57)" x="325.3" y="232.7" width=".9" height="41.4"/> <rect class="st3" transform="matrix(.2958 -.9552 .9552 .2958 -50.719 415.32)" x="255.9" y="232.8" width=".9" height="18.5"/> <rect class="st3" transform="matrix(.2958 -.9552 .9552 .2958 -42.598 438.65)" x="275.8" y="238.9" width=".9" height="18.7"/> <rect class="st3" transform="matrix(.2958 -.9552 .9552 .2958 -29.708 475.7)" x="307.4" y="248.6" width=".9" height="18.7"/> <rect class="st3" transform="matrix(.2958 -.9552 .9552 .2958 -21.5 499.28)" x="327.5" y="255" width=".9" height="18.5"/> <rect class="st3" transform="matrix(.2958 -.9552 .9552 .2958 -54.367 439.84)" x="270.7" y="253.5" width=".9" height="6.6"/> <rect class="st3" transform="matrix(.2958 -.9552 .9552 .2958 -50.026 452.31)" x="281.3" y="256.7" width=".9" height="6.8"/> <rect class="st3" transform="matrix(.2958 -.9552 .9552 .2958 -45.73 464.66)" x="291.9" y="259.9" width=".9" height="6.8"/> <rect class="st3" transform="matrix(.2958 -.9552 .9552 .2958 -41.347 477.25)" x="302.6" y="263.3" width=".9" height="6.8"/> <rect class="st3" transform="matrix(.2958 -.9552 .9552 .2958 -36.92 489.97)" x="313.4" y="266.5" width=".9" height="7.1"/> <rect class="st3" transform="matrix(.2958 -.9552 .9552 .2958 -32.58 502.44)" x="324.1" y="269.9" width=".9" height="6.8"/> <rect class="st3" transform="matrix(.2958 -.9552 .9552 .2958 -28.24 514.91)" x="334.7" y="273.3" width=".9" height="6.6"/> <rect class="st3" transform="matrix(.2958 -.9552 .9552 .2958 -23.9 527.38)" x="345.3" y="276.5" width=".9" height="6.8"/> <rect class="st3" transform="matrix(.2958 -.9552 .9552 .2958 -69.872 430.29)" x="256.5" y="246.7" width=".9" height="31.7"/> <rect class="st3" transform="matrix(.2958 -.9552 .9552 .2958 -56.508 468.69)" x="289.2" y="256.9" width=".9" height="31.5"/> <rect class="st3" transform="matrix(.2958 -.9552 .9552 .2958 -43.016 507.46)" x="322.2" y="267.2" width=".9" height="31.5"/> <rect class="st3" transform="matrix(.2958 -.9552 .9552 .2958 -84.03 422.62)" x="244.1" y="262.5" width="1.1" height="11.7"/> <rect class="st3" transform="matrix(.2958 -.9552 .9552 .2958 -77.799 440.52)" x="259.3" y="267.1" width="1.1" height="11.9"/> <rect class="st3" transform="matrix(.2958 -.9552 .9552 .2958 -71.483 458.67)" x="274.8" y="272" width="1.1" height="11.7"/> <rect class="st3" transform="matrix(.2958 -.9552 .9552 .2958 -65.295 476.45)" x="290" y="276.7" width="1.1" height="11.7"/> <rect class="st3" transform="matrix(.2958 -.9552 .9552 .2958 -55.8 503.74)" x="313.2" y="284" width="1.1" height="11.5"/> <rect class="st3" transform="matrix(.2958 -.9552 .9552 .2958 -49.525 521.77)" x="328.6" y="288.7" width="1.1" height="11.5"/> <rect class="st3" transform="matrix(.2958 -.9552 .9552 .2958 -93.332 432.09)" x="246" y="268.6" width=".9" height="21.6"/> <rect class="st3" transform="matrix(.2958 -.9552 .9552 .2958 -76.961 479.13)" x="286.1" y="280.9" width=".9" height="21.8"/> <rect class="st3" transform="matrix(.2958 -.9552 .9552 .2958 -60.719 525.8)" x="325.8" y="293" width=".9" height="22.3"/> <rect class="st3" transform="matrix(.2958 -.9552 .9552 .2958 -91.366 471.54)" x="273.6" y="280.3" width="1.1" height="34.8"/> <rect class="st3" transform="matrix(.2958 -.9552 .9552 .2958 -74.909 518.83)" x="313.9" y="292.7" width="1.1" height="35"/> <rect class="st3" transform="matrix(.2958 -.9552 .9552 .2958 -98.863 486.2)" x="279.9" y="277.2" width=".9" height="65.9"/> <rect class="st3" transform="matrix(.2958 -.9552 .9552 .2958 -117.51 467.63)" x="258" y="305.6" width=".9" height="15.9"/> <rect class="st3" transform="matrix(.2958 -.9552 .9552 .2958 -109.94 489.36)" x="276.5" y="311.3" width=".9" height="15.9"/> <rect class="st3" transform="matrix(.2958 -.9552 .9552 .2958 -102.38 511.09)" x="295" y="317.1" width=".9" height="15.9"/> <rect class="st3" transform="matrix(.2958 -.9552 .9552 .2958 -94.818 532.82)" x="313.6" y="322.8" width=".9" height="15.9"/> <rect class="st3" transform="matrix(.2958 -.9552 .9552 .2958 -129.02 469.56)" x="253.5" y="295.3" width=".9" height="54"/> <rect class="st3" transform="matrix(.2958 -.9552 .9552 .2958 -111.83 518.95)" x="295.6" y="320.7" width=".9" height="29.3"/> <rect class="st3" transform="matrix(.2958 -.9552 .9552 .2958 -143.28 463.59)" x="242.4" y="318.2" width=".9" height="21.6"/> <rect class="st3" transform="matrix(.2958 -.9552 .9552 .2958 -136.14 484.08)" x="259.8" y="330" width=".9" height="8.8"/> <rect class="st3" transform="matrix(.2958 -.9552 .9552 .2958 -132.15 495.56)" x="269.6" y="332.9" width=".9" height="9"/> <rect class="st3" transform="matrix(.2958 -.9552 .9552 .2958 -128.19 506.93)" x="279.3" y="336.1" width=".9" height="8.6"/> <rect class="st3" transform="matrix(.2958 -.9552 .9552 .2958 -124.2 518.41)" x="289.1" y="339" width=".9" height="8.8"/> <rect class="st3" transform="matrix(.2958 -.9552 .9552 .2958 -120.29 529.64)" x="298.7" y="342.1" width=".9" height="8.6"/> <rect class="st3" transform="matrix(.2958 -.9552 .9552 .2958 -116.25 541.25)" x="308.6" y="345.2" width=".9" height="8.6"/> <rect class="st3" transform="matrix(.2958 -.9552 .9552 .2958 -112.25 552.73)" x="318.3" y="348.1" width=".9" height="8.8"/> <rect class="st3" transform="matrix(.2958 -.9552 .9552 .2958 -145.47 491.48)" x="260.2" y="334.7" width=".9" height="19.4"/> <rect class="st3" transform="matrix(.2958 -.9552 .9552 .2958 -136.45 517.41)" x="282.3" y="341.6" width=".9" height="19.4"/> <rect class="st3" transform="matrix(.2958 -.9552 .9552 .2958 -127.64 542.72)" x="303.9" y="348.1" width=".9" height="19.6"/> <rect class="st3" transform="matrix(.2958 -.9552 .9552 .2958 -158.07 489.5)" x="252.5" y="333.5" width=".9" height="37"/> <rect class="st3" transform="matrix(.2958 -.9552 .9552 .2958 -134.26 557.9)" x="310.8" y="363.2" width=".9" height="13.7"/> <path class="st8" d="m350.5 396.3h-243.3v-92.7c0-6.7 5.4-12.1 12.1-12.1h219c6.7 0 12.1 5.4 12.1 12.1v92.7z"/> <path class="st9" d="m125.2 308.7h-13.8v-2.6c0-2.3 1.9-4.3 4.3-4.3h5.3c2.3 0 4.3 1.9 4.3 4.3v2.6z"/> <path class="st9" d="m142.1 308.7h-13.8v-2.6c0-2.3 1.9-4.3 4.3-4.3h5.3c2.3 0 4.3 1.9 4.3 4.3v2.6z"/> <path class="st9" d="m159.1 308.7h-13.8v-2.6c0-2.3 1.9-4.3 4.3-4.3h5.3c2.3 0 4.3 1.9 4.3 4.3v2.6z"/> <path class="st9" d="m176.1 308.7h-13.8v-2.6c0-2.3 1.9-4.3 4.3-4.3h5.3c2.3 0 4.3 1.9 4.3 4.3v2.6z"/> <path class="st9" d="m193.1 308.7h-13.8v-2.6c0-2.3 1.9-4.3 4.3-4.3h5.3c2.3 0 4.3 1.9 4.3 4.3v2.6z"/> <path class="st9" d="m210.1 308.7h-13.8v-2.6c0-2.3 1.9-4.3 4.3-4.3h5.3c2.3 0 4.3 1.9 4.3 4.3v2.6z"/> <path class="st9" d="m227.1 308.7h-13.8v-2.6c0-2.3 1.9-4.3 4.3-4.3h5.3c2.3 0 4.3 1.9 4.3 4.3v2.6z"/> <path class="st9" d="m244 308.7h-13.8v-2.6c0-2.3 1.9-4.3 4.3-4.3h5.3c2.3 0 4.3 1.9 4.3 4.3v2.6z"/> <path class="st9" d="m261 308.7h-13.8v-2.6c0-2.3 1.9-4.3 4.3-4.3h5.3c2.3 0 4.3 1.9 4.3 4.3v2.6z"/> <path class="st9" d="m278 308.7h-13.8v-2.6c0-2.3 1.9-4.3 4.3-4.3h5.3c2.3 0 4.3 1.9 4.3 4.3v2.6z"/> <path class="st9" d="m295 308.7h-13.8v-2.6c0-2.3 1.9-4.3 4.3-4.3h5.3c2.3 0 4.3 1.9 4.3 4.3v2.6z"/> <path class="st9" d="m312 308.7h-13.8v-2.6c0-2.3 1.9-4.3 4.3-4.3h5.3c2.3 0 4.3 1.9 4.3 4.3v2.6z"/> <path class="st9" d="m329 308.7h-13.8v-2.6c0-2.3 1.9-4.3 4.3-4.3h5.3c2.3 0 4.3 1.9 4.3 4.3v2.6z"/> <path class="st9" d="m345.9 308.7h-13.8v-2.6c0-2.3 1.9-4.3 4.3-4.3h5.3c2.3 0 4.3 1.9 4.3 4.3v2.6z"/> <rect class="st9" x="111.8" y="378.1" width="13.8" height="12.5"/> <rect class="st9" x="128.3" y="378.1" width="13.8" height="12.5"/> <rect class="st9" x="145.3" y="378.1" width="13.8" height="12.5"/> <rect class="st9" x="162.3" y="378.1" width="13.8" height="12.5"/> <rect class="st9" x="179.9" y="378.1" width="81.7" height="12.5"/> <rect class="st9" x="265.4" y="378.1" width="17.3" height="12.5"/> <rect class="st9" x="286.1" y="378.1" width="13.8" height="12.5"/> <path class="st9" d="m315.4 390.6h-12.9v-4.1c0-1.4 1.1-2.5 2.5-2.5h7.9c1.4 0 2.5 1.1 2.5 2.5v4.1z"/> <path class="st9" d="m331.1 383.3h-13.8v-2.5c0-1.5 1.2-2.8 2.8-2.8h8.3c1.5 0 2.8 1.2 2.8 2.8v2.5z"/> <rect class="st9" x="317.3" y="385.1" width="13.8" height="5.5"/> <path class="st9" d="m345.9 390.6h-13v-3.6c0-1.6 1.3-3 3-3h7c1.6 0 3 1.3 3 3v3.6z"/> <rect class="st9" x="143.7" y="361.3" width="13.8" height="12.5"/> <rect class="st9" x="160.3" y="361.3" width="13.8" height="12.5"/> <rect class="st9" x="177" y="361.3" width="13.8" height="12.5"/> <rect class="st9" x="193.6" y="361.3" width="13.8" height="12.5"/> <rect class="st9" x="210.2" y="361.3" width="13.8" height="12.5"/> <rect class="st9" x="226.8" y="361.3" width="13.8" height="12.5"/> <rect class="st9" x="243.5" y="361.3" width="13.8" height="12.5"/> <rect class="st9" x="260.1" y="361.3" width="13.8" height="12.5"/> <rect class="st9" x="276.7" y="361.3" width="13.8" height="12.5"/> <rect class="st9" x="293.4" y="361.3" width="13.8" height="12.5"/> <rect class="st9" x="310" y="361.3" width="36" height="12.5"/> <rect class="st9" x="111.7" y="361.3" width="28.3" height="12.5"/> <rect class="st9" x="111.3" y="313" width="13.8" height="12.5"/> <rect class="st9" x="128.3" y="313" width="13.8" height="12.5"/> <rect class="st9" x="145.3" y="313" width="13.8" height="12.5"/> <rect class="st9" x="162.3" y="313" width="13.8" height="12.5"/> <rect class="st9" x="179.3" y="313" width="13.8" height="12.5"/> <rect class="st9" x="196.2" y="313" width="13.8" height="12.5"/> <rect class="st9" x="213.2" y="313" width="13.8" height="12.5"/> <rect class="st9" x="230.2" y="313" width="13.8" height="12.5"/> <rect class="st9" x="247.2" y="313" width="13.8" height="12.5"/> <rect class="st9" x="264.2" y="313" width="13.8" height="12.5"/> <rect class="st9" x="281.2" y="313" width="13.8" height="12.5"/> <rect class="st9" x="298.1" y="313" width="13.8" height="12.5"/> <rect class="st9" x="315.1" y="313" width="30.8" height="12.5"/> <rect class="st9" x="136.8" y="328.9" width="13.8" height="12.5"/> <rect class="st9" x="153.4" y="328.9" width="13.8" height="12.5"/> <rect class="st9" x="170" y="328.9" width="13.8" height="12.5"/> <rect class="st9" x="186.7" y="328.9" width="13.8" height="12.5"/> <rect class="st9" x="203.3" y="328.9" width="13.8" height="12.5"/> <rect class="st9" x="219.9" y="328.9" width="13.8" height="12.5"/> <rect class="st9" x="236.6" y="328.9" width="13.8" height="12.5"/> <rect class="st9" x="253.2" y="328.9" width="13.8" height="12.5"/> <rect class="st9" x="269.8" y="328.9" width="13.8" height="12.5"/> <rect class="st9" x="286.4" y="328.9" width="13.8" height="12.5"/> <rect class="st9" x="303.1" y="328.9" width="13.8" height="12.5"/> <rect class="st9" x="320.3" y="328.9" width="25.6" height="12.5"/> <rect class="st9" x="111.3" y="329" width="22.1" height="12.3"/> <rect class="st9" x="140.8" y="344.8" width="13.8" height="12.5"/> <rect class="st9" x="157.6" y="344.8" width="13.8" height="12.5"/> <rect class="st9" x="174.3" y="344.8" width="13.8" height="12.5"/> <rect class="st9" x="191" y="344.8" width="13.8" height="12.5"/> <rect class="st9" x="207.7" y="344.8" width="13.8" height="12.5"/> <rect class="st9" x="224.4" y="344.8" width="13.8" height="12.5"/> <rect class="st9" x="241.1" y="344.8" width="13.8" height="12.5"/> <rect class="st9" x="257.9" y="344.8" width="13.8" height="12.5"/> <rect class="st9" x="274.6" y="344.8" width="13.8" height="12.5"/> <rect class="st9" x="291.3" y="344.8" width="13.8" height="12.5"/> <rect class="st9" x="308" y="344.8" width="13.8" height="12.5"/> <rect class="st9" x="324.6" y="344.8" width="21.4" height="12.5"/> <rect class="st9" x="111.3" y="344.8" width="26.6" height="12.4"/> <rect class="st10" x="111.8" y="389.8" width="13.8" height=".7"/> <rect class="st10" x="128.3" y="389.8" width="13.8" height=".7"/> <rect class="st10" x="145.3" y="389.8" width="13.8" height=".7"/> <rect class="st10" x="162.3" y="389.8" width="13.8" height=".7"/> <rect class="st10" x="286.1" y="389.8" width="13.8" height=".7"/> <rect class="st10" x="302.5" y="389.8" width="12.9" height=".7"/> <rect class="st10" x="333" y="389.8" width="12.9" height=".7"/> <rect class="st10" x="317.3" y="389.8" width="13.8" height=".7"/> <rect class="st10" x="265.4" y="389.8" width="17.3" height=".7"/> <rect class="st10" x="111.7" y="373" width="28.3" height=".8"/> <rect class="st10" x="143.7" y="373" width="13.8" height=".7"/> <rect class="st10" x="160.3" y="373" width="13.8" height=".7"/> <rect class="st10" x="177" y="373" width="13.8" height=".7"/> <rect class="st10" x="193.6" y="373" width="13.8" height=".7"/> <rect class="st10" x="210.2" y="373" width="13.8" height=".7"/> <rect class="st10" x="226.8" y="373" width="13.8" height=".7"/> <rect class="st10" x="243.5" y="373" width="13.8" height=".7"/> <rect class="st10" x="260.1" y="373" width="13.8" height=".7"/> <rect class="st10" x="276.7" y="373" width="13.8" height=".7"/> <rect class="st10" x="293.4" y="373" width="13.8" height=".7"/> <rect class="st10" x="310" y="373" width="36" height=".7"/> <rect class="st10" x="111.3" y="356.4" width="26.6" height=".8"/> <rect class="st10" x="140.8" y="356.5" width="13.8" height=".7"/> <rect class="st10" x="157.6" y="356.5" width="13.8" height=".7"/> <rect class="st10" x="174.3" y="356.5" width="13.8" height=".7"/> <rect class="st10" x="191" y="356.5" width="13.8" height=".7"/> <rect class="st10" x="207.7" y="356.5" width="13.8" height=".7"/> <rect class="st10" x="224.4" y="356.5" width="13.8" height=".7"/> <rect class="st10" x="241.1" y="356.5" width="13.8" height=".7"/> <rect class="st10" x="257.9" y="356.5" width="13.8" height=".7"/> <rect class="st10" x="274.6" y="356.5" width="13.8" height=".7"/> <rect class="st10" x="291.3" y="356.5" width="13.8" height=".7"/> <rect class="st10" x="308" y="356.5" width="13.8" height=".7"/> <rect class="st10" x="324.6" y="356.5" width="21.4" height=".7"/> <rect class="st10" x="111.3" y="340.6" width="22.1" height=".8"/> <rect class="st10" x="136.8" y="340.6" width="13.8" height=".7"/> <rect class="st10" x="153.4" y="340.6" width="13.8" height=".7"/> <rect class="st10" x="170" y="340.6" width="13.8" height=".7"/> <rect class="st10" x="186.7" y="340.6" width="13.8" height=".7"/> <rect class="st10" x="203.3" y="340.6" width="13.8" height=".7"/> <rect class="st10" x="219.9" y="340.6" width="13.8" height=".7"/> <rect class="st10" x="236.6" y="340.6" width="13.8" height=".7"/> <rect class="st10" x="253.2" y="340.6" width="13.8" height=".7"/> <rect class="st10" x="269.8" y="340.6" width="13.8" height=".7"/> <rect class="st10" x="286.4" y="340.6" width="13.8" height=".7"/> <rect class="st10" x="303.1" y="340.6" width="13.8" height=".7"/> <rect class="st10" x="320.3" y="340.6" width="25.6" height=".7"/> <rect class="st10" x="111.3" y="324.7" width="13.8" height=".7"/> <rect class="st10" x="128.3" y="324.7" width="13.8" height=".7"/> <rect class="st10" x="145.3" y="324.7" width="13.8" height=".7"/> <rect class="st10" x="162.3" y="324.7" width="13.8" height=".7"/> <rect class="st10" x="179.3" y="324.7" width="13.8" height=".7"/> <rect class="st10" x="196.2" y="324.7" width="13.8" height=".7"/> <rect class="st10" x="213.2" y="324.7" width="13.8" height=".7"/> <rect class="st10" x="230.2" y="324.7" width="13.8" height=".7"/> <rect class="st10" x="247.2" y="324.7" width="13.8" height=".7"/> <rect class="st10" x="264.2" y="324.7" width="13.8" height=".7"/> <rect class="st10" x="281.2" y="324.7" width="13.8" height=".7"/> <rect class="st10" x="298.1" y="324.7" width="13.8" height=".7"/> <rect class="st10" x="315.1" y="324.7" width="30.8" height=".7"/> <rect class="st10" x="111.3" y="308" width="13.8" height=".7"/> <rect class="st10" x="128.3" y="308" width="13.8" height=".7"/> <rect class="st10" x="145.3" y="308" width="13.8" height=".7"/> <rect class="st10" x="162.3" y="308" width="13.8" height=".7"/> <rect class="st10" x="179.3" y="308" width="13.8" height=".7"/> <rect class="st10" x="196.2" y="308" width="13.8" height=".7"/> <rect class="st10" x="213.2" y="308" width="13.8" height=".7"/> <rect class="st10" x="230.2" y="308" width="13.8" height=".7"/> <rect class="st10" x="247.2" y="308" width="13.8" height=".7"/> <rect class="st10" x="264.2" y="308" width="13.8" height=".7"/> <rect class="st10" x="281.2" y="308" width="13.8" height=".7"/> <rect class="st10" x="298.1" y="308" width="13.8" height=".7"/> <rect class="st10" x="315.1" y="308" width="13.8" height=".7"/> <rect class="st10" x="332.1" y="308" width="13.8" height=".7"/> <rect class="st10" x="107.2" y="396.3" width="243.3" height="1.6"/> <path class="st11" d="m430.7 322c-0.1 18.2-15 33.1-33.2 33h-8.3c-5.6 0-11-1.5-15.6-4-3.3-1.8-6.2-4.1-8.7-6.8-5.4-5.9-8.7-13.8-8.7-22.4l0.1-35.7v-2h-0.1l0.1-24.3c0.1-17.8 14.7-32.2 32.4-32.2h9.9c6 0 11.5 1.7 16.3 4.5 1.5 0.9 3 1.9 4.3 3.1 7 5.9 11.4 14.8 11.4 24.6l0.1 62.2z"/> <path class="st12" d="m399.1 245-0.1 21.9c0 0.4-0.1 0.8-0.2 1.2 0 0.1-0.1 0.2-0.1 0.3s-0.1 0.2-0.1 0.3c0 0 0 0.1-0.1 0.1 0 0.1-0.1 0.2-0.1 0.2s0 0.1-0.1 0.1c0 0.1-0.1 0.2-0.1 0.2l-0.3 0.6c-0.1 0.1-0.2 0.3-0.3 0.4l-0.2 0.2c-0.7 0.7-1.5 1.3-2.5 1.6-0.5 0.1-1 0.2-1.5 0.2-0.4 0-0.8 0-1.2-0.1-2.5-0.5-4.3-2.7-4.3-5.4l0.1-21.8c0-2.6 1.9-4.8 4.3-5.3 0.4-0.1 0.8-0.1 1.2-0.1 0.5 0 1.1 0.1 1.5 0.2 1 0.3 1.8 0.8 2.5 1.6l0.2 0.2c0.1 0.1 0.2 0.3 0.3 0.4l0.3 0.6c0 0.1 0.1 0.2 0.1 0.2s0 0.1 0.1 0.1c0 0.1 0.1 0.2 0.1 0.2v0.1c0 0.1 0.1 0.2 0.1 0.3s0.1 0.2 0.1 0.3c0.2 0.4 0.3 0.8 0.3 1.2z"/> <path class="st13" d="m430.7 322c-0.1 18.2-15 33.1-33.2 33h-8.3c-5.6 0-11-1.5-15.6-4l45.1-113.6 0.8-2c7 5.9 11.4 14.8 11.4 24.6l-0.2 62z"/> </svg>