<?xml version='1.0' encoding='utf-8'?>
<svg xmlns="http://www.w3.org/2000/svg" enable-background="new 0 0 500 500" version="1.1" viewBox="0 0 500 500"> <style type="text/css">.st0{fill:#381F24;} .st1{fill:#DCE4E7;} .st2{fill:#596273;} .st3{fill:#FDFEFF;} .st4{fill:#595E65;} .st5{fill:#404856;} .st6{fill:#D2D5D9;} .st7{fill:#D8D8D8;} .st8{fill:#FFFFFF;} .st9{fill:#CCCCCC;} .st10{fill:#F8874F;}</style> <rect class="st0" x=".3" width="500" height="500"/> <circle class="st1" cx="249.7" cy="255.8" r="157.2"/> <path class="st2" d="m371.5 396.5h-237.6c-2.4 0-4.4-2-4.4-4.4v-134.8h246.4v134.7c0 2.5-2 4.5-4.4 4.5z"/> <path class="st3" d="m365.6 390.9h-225.8c-5.7 0-10.3-4.6-10.3-10.3v-128.8h246.4v128.9c0 5.6-4.6 10.2-10.3 10.2z"/> <path class="st2" d="m278.5 383.1h-51.5c-1.4 0-2.6-1.2-2.6-2.6v-23.6c0-1.4 1.2-2.6 2.6-2.6h51.5c1.4 0 2.6 1.2 2.6 2.6v23.6c-0.1 1.4-1.2 2.6-2.6 2.6z"/> <rect class="st4" x="152.3" y="260.6" width="13.8" height="6.7"/> <rect class="st4" x="169.2" y="260.6" width="13.8" height="6.7"/> <rect class="st4" x="186.2" y="260.6" width="13.8" height="6.7"/> <rect class="st4" x="203.1" y="260.6" width="13.8" height="6.7"/> <rect class="st4" x="220" y="260.6" width="13.8" height="6.7"/> <rect class="st4" x="237" y="260.6" width="13.8" height="6.7"/> <rect class="st4" x="253.9" y="260.6" width="13.8" height="6.7"/> <rect class="st4" x="270.8" y="260.6" width="13.8" height="6.7"/> <rect class="st4" x="287.7" y="260.6" width="13.8" height="6.7"/> <rect class="st4" x="304.7" y="260.6" width="13.8" height="6.7"/> <rect class="st4" x="321.6" y="260.6" width="13.8" height="6.7"/> <rect class="st4" x="339.2" y="260.6" width="13.8" height="6.7"/> <path class="st5" d="m368.3 104.1h-231.3c-4.2 0-7.6 3.4-7.6 7.6v140.1h246.4v-140.1c0.1-4.2-3.3-7.6-7.5-7.6z"/> <rect class="st3" x="139.8" y="116.4" width="225.8" height="122.2"/> <rect class="st4" x="152.3" y="331.9" width="13.8" height="14.4"/> <rect class="st4" x="169.2" y="331.9" width="13.8" height="14.4"/> <rect class="st4" x="186.2" y="331.9" width="13.8" height="14.4"/> <rect class="st4" x="304.7" y="331.9" width="13.8" height="14.4"/> <rect class="st4" x="287.8" y="331.9" width="13.8" height="14.4"/> <rect class="st4" x="203.1" y="331.9" width="81.6" height="14.4"/> <rect class="st4" x="321.7" y="331.9" width="13.8" height="14.4"/> <rect class="st4" x="339.2" y="331.9" width="13.8" height="14.4"/> <rect class="st6" x="152.3" y="333" width="13.8" height="14.4"/> <rect class="st6" x="169.2" y="333" width="13.8" height="14.4"/> <rect class="st6" x="186.2" y="333" width="13.8" height="14.4"/> <rect class="st6" x="304.7" y="333" width="13.8" height="14.4"/> <rect class="st6" x="287.8" y="333" width="13.8" height="14.4"/> <rect class="st6" x="203.1" y="333" width="81.6" height="14.4"/> <rect class="st6" x="321.7" y="333" width="13.8" height="14.4"/> <rect class="st6" x="339.2" y="333" width="13.8" height="14.4"/> <rect class="st4" x="152.4" y="312.8" width="47.6" height="14.4"/> <rect class="st4" x="203.1" y="312.8" width="13.8" height="14.4"/> <rect class="st4" x="220.1" y="312.8" width="13.8" height="14.4"/> <rect class="st4" x="237" y="312.8" width="13.8" height="14.4"/> <rect class="st4" x="253.9" y="312.8" width="13.8" height="14.4"/> <rect class="st4" x="270.9" y="312.8" width="13.8" height="14.4"/> <rect class="st4" x="287.8" y="312.8" width="13.8" height="14.4"/> <rect class="st4" x="304.7" y="312.8" width="48.3" height="14.4"/> <rect class="st6" x="152.4" y="313.9" width="47.6" height="14.4"/> <rect class="st6" x="203.1" y="313.9" width="13.8" height="14.4"/> <rect class="st6" x="220" y="313.9" width="13.8" height="14.4"/> <rect class="st6" x="236.9" y="313.9" width="13.8" height="14.4"/> <rect class="st6" x="253.9" y="313.9" width="13.8" height="14.4"/> <rect class="st6" x="270.8" y="313.9" width="13.8" height="14.4"/> <rect class="st6" x="287.8" y="313.9" width="13.8" height="14.4"/> <rect class="st6" x="304.7" y="313.9" width="48.3" height="14.4"/> <rect class="st4" x="152.3" y="274.6" width="13.8" height="14.4"/> <rect class="st4" x="169.2" y="274.6" width="13.8" height="14.4"/> <rect class="st4" x="186.2" y="274.6" width="13.8" height="14.4"/> <rect class="st4" x="203.1" y="274.6" width="13.8" height="14.4"/> <rect class="st4" x="220.1" y="274.6" width="13.8" height="14.4"/> <rect class="st4" x="237" y="274.6" width="13.8" height="14.4"/> <rect class="st4" x="253.9" y="274.6" width="13.8" height="14.4"/> <rect class="st4" x="270.9" y="274.6" width="13.8" height="14.4"/> <rect class="st4" x="287.8" y="274.6" width="13.8" height="14.4"/> <rect class="st4" x="304.7" y="274.6" width="13.8" height="14.4"/> <rect class="st4" x="321.7" y="274.6" width="13.8" height="14.4"/> <rect class="st4" x="339.2" y="274.6" width="13.8" height="14.4"/> <rect class="st6" x="152.3" y="275.7" width="13.8" height="14.4"/> <rect class="st6" x="169.2" y="275.7" width="13.8" height="14.4"/> <rect class="st6" x="186.2" y="275.7" width="13.8" height="14.4"/> <rect class="st6" x="203.1" y="275.7" width="13.8" height="14.4"/> <rect class="st6" x="220.1" y="275.7" width="13.8" height="14.4"/> <rect class="st6" x="237" y="275.7" width="13.8" height="14.4"/> <rect class="st6" x="253.9" y="275.7" width="13.8" height="14.4"/> <rect class="st6" x="270.9" y="275.7" width="13.8" height="14.4"/> <rect class="st6" x="287.8" y="275.7" width="13.8" height="14.4"/> <rect class="st6" x="304.7" y="275.7" width="13.8" height="14.4"/> <rect class="st6" x="321.7" y="275.7" width="13.8" height="14.4"/> <rect class="st6" x="339.2" y="275.7" width="13.8" height="14.4"/> <rect class="st4" x="152.3" y="293.7" width="29.9" height="14.4"/> <rect class="st4" x="186.2" y="293.7" width="13.8" height="14.4"/> <rect class="st4" x="203.1" y="293.7" width="13.8" height="14.4"/> <rect class="st4" x="220.1" y="293.7" width="13.8" height="14.4"/> <rect class="st4" x="237" y="293.7" width="13.8" height="14.4"/> <rect class="st4" x="253.9" y="293.7" width="13.8" height="14.4"/> <rect class="st4" x="270.9" y="293.7" width="13.8" height="14.4"/> <rect class="st4" x="287.8" y="293.7" width="13.8" height="14.4"/> <rect class="st4" x="304.7" y="293.7" width="13.8" height="14.4"/> <rect class="st4" x="321.7" y="293.7" width="31.4" height="14.4"/> <rect class="st6" x="152.3" y="294.8" width="29.9" height="14.4"/> <rect class="st6" x="186.2" y="294.8" width="13.8" height="14.4"/> <rect class="st6" x="203.1" y="294.8" width="13.8" height="14.4"/> <rect class="st6" x="220.1" y="294.8" width="13.8" height="14.4"/> <rect class="st6" x="237" y="294.8" width="13.8" height="14.4"/> <rect class="st6" x="253.9" y="294.8" width="13.8" height="14.4"/> <rect class="st6" x="270.9" y="294.8" width="13.8" height="14.4"/> <rect class="st6" x="287.8" y="294.8" width="13.8" height="14.4"/> <rect class="st6" x="304.7" y="294.8" width="13.8" height="14.4"/> <rect class="st6" x="321.7" y="294.8" width="31.4" height="14.4"/> <rect class="st6" x="152.3" y="261.7" width="13.8" height="6.7"/> <rect class="st6" x="169.3" y="261.7" width="13.8" height="6.7"/> <rect class="st6" x="186.2" y="261.7" width="13.8" height="6.7"/> <rect class="st6" x="203.1" y="261.7" width="13.8" height="6.7"/> <rect class="st6" x="220.1" y="261.7" width="13.8" height="6.7"/> <rect class="st6" x="237" y="261.7" width="13.8" height="6.7"/> <rect class="st6" x="253.9" y="261.7" width="13.8" height="6.7"/> <rect class="st6" x="270.8" y="261.7" width="13.8" height="6.7"/> <rect class="st6" x="287.8" y="261.7" width="13.8" height="6.7"/> <rect class="st6" x="304.7" y="261.7" width="13.8" height="6.7"/> <rect class="st6" x="321.6" y="261.7" width="13.8" height="6.7"/> <rect class="st6" x="339.2" y="261.7" width="13.8" height="6.7"/> <rect class="st2" x="336.2" y="248.2" width="24.1" height="4.4"/> <rect class="st2" x="145" y="248.2" width="24.1" height="4.4"/> <polygon class="st7" points="255.4 238.8 367.5 220.4 367.5 101.2 258.7 130.7"/> <polygon class="st8" points="253.3 239.4 361.4 209.6 361.4 90.3 253.3 119.9"/> <polygon class="st7" points="251.3 238.8 139.1 220.4 139.1 101.2 248 130.7"/> <polygon class="st8" points="253.3 119.9 253.3 239.4 145.3 209.6 145.3 90.3 199.3 105.1 215 109.4"/> <polygon class="st9" points="171.1 112.1 159.9 109.4 159.9 108.8 171.1 111.5"/> <polygon class="st9" points="180.7 116.7 159.9 111.6 159.9 111 180.7 116.1"/> <polygon class="st9" points="225.1 129.7 159.9 113.8 159.9 113.2 225.1 129.1"/> <polygon class="st9" points="203.9 126.8 159.9 116.1 159.9 115.5 203.9 126.3"/> <polygon class="st9" points="220.8 133 159.9 118.2 159.9 117.6 220.8 132.5"/> <polygon class="st9" points="180.7 125.6 159.9 120.6 159.9 120 180.7 125.1"/> <polygon class="st9" points="189.1 129.7 159.9 122.6 159.9 122 189.1 129.1"/> <polygon class="st9" points="170 127.4 159.9 124.9 159.9 124.3 170 126.8"/> <polygon class="st9" points="190.6 134.8 159.9 127.4 159.9 126.8 190.6 134.2"/> <polygon class="st9" points="203.9 140.3 159.9 129.7 159.9 129.1 203.9 139.7"/> <polygon class="st9" points="180.7 137 159.9 132.1 159.9 131.5 180.7 136.5"/> <polygon class="st9" points="235.5 150.2 192.7 139.9 192.7 139.3 235.5 149.6"/> <polygon class="st9" points="220.1 144.2 205.5 140.7 205.5 140.1 220.1 143.6"/> <polygon class="st9" points="229.9 137.6 195.1 129.1 195.1 128.5 229.9 137"/> <polygon class="st9" points="200.7 121.5 183.3 117.3 183.3 116.7 200.7 120.9"/> <polygon class="st9" points="227.3 128 202.7 122 202.7 121.4 227.3 127.4"/> <polygon class="st9" points="171.1 137.1 159.9 134.4 159.9 133.8 171.1 136.5"/> <polygon class="st9" points="180.7 141.5 159.9 136.6 159.9 136 180.7 140.9"/> <polygon class="st9" points="225 154.3 159.9 138.8 159.9 138.2 225 153.7"/> <polygon class="st9" points="203.8 151.6 159.9 141.1 159.9 140.5 203.8 151"/> <polygon class="st9" points="220.7 157.6 159.9 143.2 159.9 142.6 220.7 157.1"/> <polygon class="st9" points="180.7 150.5 159.9 145.6 159.9 145 180.7 149.9"/> <polygon class="st9" points="189 154.5 159.9 147.6 159.9 147 189 153.9"/> <polygon class="st9" points="170 152.2 159.9 149.9 159.9 149.3 170 151.7"/> <polygon class="st9" points="190.5 159.6 159.9 152.4 159.9 151.8 190.5 159"/> <polygon class="st9" points="203.8 165 159.9 154.7 159.9 154.1 203.8 164.4"/> <polygon class="st9" points="180.7 161.8 159.9 157 159.9 156.4 180.7 161.3"/> <polygon class="st9" points="235.3 174.6 192.7 164.6 192.7 164.1 235.3 174"/> <polygon class="st9" points="219.9 168.7 205.4 165.3 205.4 164.8 219.9 168.2"/> <polygon class="st9" points="229.8 162.1 195 153.9 195 153.3 229.8 161.5"/> <polygon class="st9" points="200.6 146.3 183.2 142.1 183.2 141.5 200.6 145.7"/> <polygon class="st9" points="227.1 152.6 202.7 146.8 202.7 146.2 227.1 152"/> <polygon class="st9" points="171 162.1 159.9 159.5 159.9 158.9 171 161.5"/> <polygon class="st9" points="180.7 166.5 159.9 161.7 159.9 161.1 180.7 165.9"/> <polygon class="st9" points="224.9 178.9 159.9 163.9 159.9 163.3 224.9 178.3"/> <polygon class="st9" points="203.8 176.3 159.9 166.2 159.9 165.6 203.8 175.8"/> <polygon class="st9" points="220.6 182.3 159.9 168.3 159.9 167.7 220.6 181.7"/> <polygon class="st9" points="180.6 175.4 159.9 170.6 159.9 170 180.6 174.8"/> <polygon class="st9" points="188.9 179.3 159.9 172.6 159.9 172.1 189 178.7"/> <polygon class="st9" points="170 177.2 159.9 174.9 159.9 174.3 170 176.6"/> <polygon class="st9" points="190.4 184.4 159.9 177.4 159.9 176.8 190.4 183.8"/> <polygon class="st9" points="203.7 189.7 159.9 179.7 159.9 179.1 203.7 189.1"/> <polygon class="st9" points="180.6 186.7 159.9 182 159.9 181.4 180.6 186.1"/> <polygon class="st9" points="235.2 199.1 192.6 189.4 192.6 188.9 235.2 198.6"/> <polygon class="st9" points="219.8 193.4 205.3 190.1 205.4 189.5 219.8 192.8"/> <polygon class="st9" points="229.6 186.7 194.9 178.7 194.9 178.1 229.6 186.1"/> <polygon class="st9" points="200.5 171.1 183.2 167.1 183.2 166.5 200.5 170.5"/> <polygon class="st9" points="227 177.3 202.6 171.6 202.6 171 227 176.7"/> <polygon class="st9" points="171 186.9 159.9 184.3 159.9 183.7 171 186.3"/> <polygon class="st9" points="180.6 191.2 159.9 186.5 159.9 185.9 180.6 190.6"/> <polygon class="st9" points="224.7 203.3 159.9 188.7 159.9 188.1 224.7 202.7"/> <polygon class="st9" points="203.7 200.8 159.9 191 159.9 190.4 203.7 200.3"/> <polygon class="st9" points="220.5 206.7 159.9 193.1 159.9 192.5 220.5 206.1"/> <polygon class="st9" points="180.6 200 159.9 195.4 159.9 194.8 180.6 199.5"/> <polygon class="st9" points="188.9 203.9 159.9 197.4 159.9 196.8 188.9 203.3"/> <polygon class="st9" points="170 201.9 159.9 199.7 159.9 199.1 170 201.3"/> <polygon class="st9" points="190.4 208.9 159.9 202.1 159.9 201.6 190.4 208.4"/> <polygon class="st9" points="203.6 214.1 159.9 204.4 159.9 203.9 203.6 213.6"/> <polygon class="st9" points="180.6 211.3 159.9 206.7 159.9 206.1 180.6 210.7"/> <polygon class="st9" points="235 223.4 192.5 214 192.5 213.4 235 222.8"/> <polygon class="st9" points="219.7 217.7 205.3 214.5 205.3 213.9 219.7 217.1"/> <polygon class="st9" points="229.5 211 194.9 203.2 194.9 202.7 229.5 210.4"/> <polygon class="st9" points="200.5 195.7 183.1 191.7 183.1 191.2 200.5 195.1"/> <polygon class="st9" points="226.9 201.6 202.5 196.1 202.5 195.5 226.9 201.1"/> <polygon class="st9" points="277.6 123.8 268 127.4 268 126.9 277.6 123.3"/> <polygon class="st9" points="286.1 122.7 268 129.4 268 128.8 286 122.1"/> <polygon class="st9" points="325.9 109.9 268 131.4 268 130.8 325.9 109.3"/> <polygon class="st9" points="306.8 119.2 268 133.5 268 133 306.7 118.6"/> <polygon class="st9" points="322.2 115.4 268 135.4 268 134.9 322.2 114.9"/> <polygon class="st9" points="286.2 130.9 268 137.6 268 137.1 286.2 130.4"/> <polygon class="st9" points="293.7 130 268 139.5 268 139 293.7 129.5"/> <polygon class="st9" points="276.9 138.4 268 141.6 268 141.1 276.9 137.8"/> <polygon class="st9" points="295.2 134 268 144 268 143.4 295.1 133.4"/> <polygon class="st9" points="307.3 131.7 268 146.2 268 145.6 307.3 131.2"/> <polygon class="st9" points="286.4 141.6 268 148.3 268 147.8 286.4 141"/> <polygon class="st9" points="336.8 123.1 297.2 137.6 297.2 137.1 336.8 122.6"/> <polygon class="st9" points="322.2 126.3 308.8 131.2 308.8 130.6 322.2 125.7"/> <polygon class="st9" points="330.7 114.5 299 126.2 299 125.6 330.7 113.9"/> <polygon class="st9" points="303.7 116.1 288.3 121.8 288.3 121.3 303.7 115.6"/> <polygon class="st9" points="327.7 107.2 305.5 115.4 305.5 114.9 327.7 106.6"/> <polygon class="st9" points="277.9 147 268 150.6 268 150 277.9 146.4"/> <polygon class="st9" points="286.5 145.9 268 152.6 268 152.1 286.5 145.3"/> <polygon class="st9" points="327.4 133.1 268 154.7 268 154.2 327.4 132.5"/> <polygon class="st9" points="307.8 142.5 268 157 268 156.4 307.7 142"/> <polygon class="st9" points="323.6 138.8 268 159 268 158.5 323.6 138.3"/> <polygon class="st9" points="286.7 154.6 268 161.3 268 160.8 286.7 154"/> <polygon class="st9" points="294.3 153.8 268 163.3 268 162.7 294.3 153.2"/> <polygon class="st9" points="277.1 162.3 268 165.5 268 165 277.1 161.7"/> <polygon class="st9" points="295.9 158 268 168 268 167.4 295.8 157.4"/> <polygon class="st9" points="308.3 155.8 268 170.3 268 169.7 308.3 155.2"/> <polygon class="st9" points="286.9 165.8 268 172.6 268 172 286.9 165.2"/> <polygon class="st9" points="338.6 147.2 298 161.8 298 161.2 338.6 146.7"/> <polygon class="st9" points="323.6 150.3 309.9 155.2 309.9 154.7 323.6 149.7"/> <polygon class="st9" points="332.4 138 299.8 149.8 299.8 149.2 332.3 137.4"/> <polygon class="st9" points="304.6 139.3 288.8 145.1 288.8 144.5 304.6 138.7"/> <polygon class="st9" points="329.2 130.3 306.5 138.6 306.4 138 329.2 129.7"/> <polygon class="st9" points="278.1 171.5 268 175.1 268 174.5 278.1 170.9"/> <polygon class="st9" points="287 170.5 268 177.3 268 176.7 287 169.9"/> <polygon class="st9" points="329 157.7 268 179.5 268 178.9 329 157.2"/> <polygon class="st9" points="308.8 167.4 268 181.9 268 181.3 308.8 166.8"/> <polygon class="st9" points="325.1 163.7 268 184.1 268 183.5 325.1 163.1"/> <polygon class="st9" points="287.2 179.7 268 186.5 268 185.9 287.2 179.1"/> <polygon class="st9" points="295 179 268 188.6 268 187.9 295 178.4"/> <polygon class="st9" points="277.3 187.6 268 190.9 268 190.3 277.3 187"/> <polygon class="st9" points="296.6 183.4 268 193.5 268 192.9 296.6 182.8"/> <polygon class="st9" points="309.4 181.3 268 195.9 268 195.3 309.4 180.7"/> <polygon class="st9" points="287.4 191.5 268 198.4 268 197.7 287.4 190.9"/> <polygon class="st9" points="340.6 172.8 298.8 187.5 298.8 186.9 340.5 172.2"/> <polygon class="st9" points="325.1 175.8 311 180.8 311 180.2 325.1 175.2"/> <polygon class="st9" points="334.1 163 300.6 174.9 300.6 174.3 334.1 162.4"/> <polygon class="st9" points="305.6 163.9 289.3 169.7 289.3 169.1 305.6 163.3"/> <polygon class="st9" points="330.9 154.8 307.5 163.2 307.5 162.6 330.8 154.2"/> <polygon class="st9" points="278.4 197.2 268 200.8 268 200.2 278.4 196.6"/> <polygon class="st9" points="287.5 196.3 268 203.1 268 202.5 287.5 195.7"/> <polygon class="st9" points="330.7 183.6 268 205.5 268 204.8 330.6 182.9"/> <polygon class="st9" points="309.9 193.4 268 208 268 207.3 309.9 192.7"/> <polygon class="st9" points="326.7 189.8 268 210.2 268 209.6 326.7 189.2"/> <polygon class="st9" points="287.7 205.9 268 212.8 268 212.1 287.7 205.3"/> <polygon class="st9" points="295.8 205.4 268 215 268 214.3 295.8 204.7"/> <polygon class="st9" points="277.6 214.2 268 217.5 268 216.8 277.6 213.5"/> <polygon class="st9" points="297.4 210.1 268 220.2 268 219.6 297.4 209.4"/> <polygon class="st9" points="310.6 208.1 268 222.8 268 222.1 310.6 207.5"/> <polygon class="st9" points="288 218.5 268 225.3 268 224.7 287.9 217.8"/> <polygon class="st9" points="342.6 199.7 299.7 214.5 299.7 213.8 342.6 199"/> <polygon class="st9" points="326.7 202.5 312.2 207.5 312.2 206.9 326.7 201.9"/> <polygon class="st9" points="335.9 189.2 301.5 201.1 301.5 200.5 335.9 188.5"/> <polygon class="st9" points="306.6 189.6 289.9 195.5 289.9 194.8 306.6 189"/> <polygon class="st9" points="332.6 180.5 308.6 188.9 308.5 188.3 332.6 179.9"/> <polygon class="st10" points="215.3 109.4 215.3 192.2 207.4 179 199.5 183.6 199.5 105.1"/> </svg>