<?xml version="1.0" standalone="no"?>
<!DOCTYPE svg PUBLIC "-//W3C//DTD SVG 20001102//EN"
"http://www.w3.org/TR/2000/CR-SVG-20001102/DTD/svg-20001102.dtd">
<svg width="664" height="512"
	xmlns:sodipodi="http://sodipodi.sourceforge.net/DTD/sodipodi-0.dtd">
<desc>wmf2svg</desc>
<polygon points="336.592407,469.897675 
	353.618073,500.148132 366.611298,510.758362 512.001282,510.758362 506.400787,489.763672 
	496.991882,474.638428 525.218628,474.638428 549.636963,468.994690 527.906860,510.758362 
	546.724670,510.758362 568.230774,463.350952 589.960876,439.647247 609.674744,419.781281 
	636.781311,403.527313 609.674744,401.721344 615.275269,391.336853 628.492554,368.536133 
	638.797546,341.220459 656.495239,317.516754 634.093079,331.738983 623.788086,345.058167 
	614.379150,322.257477 609.674744,300.585541 607.658569,277.784821 598.249634,285.234558 
	590.856934,270.109344 574.055298,246.631393 581.447998,275.753082 581.447998,294.716034 
	565.542480,302.391510 557.029663,266.497345 551.429077,290.201050 544.036438,315.710724 
	535.523560,359.054657 542.020203,382.758362 550.533081,391.336853 529.026978,389.530853 
	506.400787,401.721344 490.495209,424.522034 483.102539,457.707214 468.093079,445.290985 
	459.580261,426.328003 436.954102,411.202820 398.646393,405.559052 366.611298,415.943542 
	336.592407,469.897675 336.592407,469.897675 "
	style="fill-opacity:1.0; fill-rule:evenodd; fill:green; stroke:none" />
<polygon points="6.384615,301.488495 
	18.705803,316.613739 44.020241,325.192230 53.429146,341.220459 69.334679,345.961182 
	98.457489,347.767181 109.658562,357.248657 125.564095,380.952362 172.608627,392.239868 
	197.923065,407.365051 195.010773,412.105804 184.705795,412.105804 169.696350,409.396790 
	183.809708,419.781281 165.887985,424.522034 156.479080,435.809479 173.504715,428.134033 
	190.306320,426.328003 202.403503,419.781281 211.812408,419.781281 241.831284,447.096985 
	207.107956,444.388000 231.526306,457.707214 259.753021,460.416199 273.866394,478.476196 
	277.450745,510.758362 305.677429,510.758362 309.485809,481.185150 334.800232,476.444397 
	342.192963,468.091705 376.020203,422.490295 415.447998,403.527313 438.970276,399.915314 
	458.684174,389.530853 464.284729,381.855377 478.174072,375.308624 473.693634,361.989410 
	448.379181,357.248657 411.639648,368.536133 356.306305,396.077576 345.105225,411.202820 
	323.599182,446.193970 311.277985,461.319214 317.774628,420.684296 335.696320,330.835968 
	348.913605,305.100525 359.218597,331.738983 371.315765,316.613739 376.916321,353.410919 
	384.533051,327.901215 394.838013,310.067017 393.941956,289.072296 287.979736,238.052902 
	273.866394,257.015869 279.466919,273.947083 281.259094,304.197510 307.693634,280.719574 
	309.485809,308.938263 301.869080,343.026428 315.086334,312.776001 328.303619,304.197510 
	318.894714,336.479706 312.174072,371.470886 303.885284,431.971771 295.372437,450.934723 
	275.658539,445.290985 247.431839,443.484985 222.117401,416.846527 194.114700,387.499115 
	178.209167,364.924133 161.183533,346.864166 147.070175,317.516754 134.972992,306.229248 
	116.155190,299.456757 103.161934,291.104065 87.032387,289.072296 65.526314,298.553802 
	24.306341,292.910034 6.384615,301.488495 6.384615,301.488495 "
	style="fill-opacity:1.0; fill-rule:evenodd; fill:green; stroke:none" />
<polygon points="104.058022,175.520279 
	143.485825,191.548492 147.070175,150.913574 182.913620,172.811279 210.020233,203.964706 
	195.906876,160.395065 239.143036,206.899460 268.265839,235.118149 275.658539,259.724854 
	277.450745,284.331573 282.155182,307.132263 308.589722,361.086426 315.982422,388.402100 
	303.885284,439.647247 304.781342,401.721344 298.284729,377.114624 284.171387,341.220459 
	262.665314,307.132263 246.535751,290.201050 213.828598,251.372116 204.419693,257.015869 
	228.838043,319.322723 250.344116,403.527313 256.840729,415.040558 285.067444,451.837738 
	262.665314,442.356262 240.039124,413.234558 213.828598,317.516754 192.098511,254.984131 
	173.504715,245.502655 149.086365,213.446198 134.972992,199.223969 112.346825,187.033493 
	104.058022,175.520279 104.058022,175.520279 "
	style="fill-opacity:1.0; fill-rule:evenodd; fill:green; stroke:none" />
<polygon points="412.535736,286.363312 
	431.353546,304.197510 441.658539,347.767181 447.259094,315.710724 434.265839,279.590820 
	412.535736,286.363312 412.535736,286.363312 "
	style="fill-opacity:1.0; fill-rule:evenodd; fill:green; stroke:none" />
<polygon points="180.449371,106.666664 
	188.514160,135.788345 207.107956,141.883591 215.172714,161.749542 244.967606,185.453262 
	276.778656,239.407394 339.504700,280.719574 381.620758,289.072296 411.415619,283.880066 
	446.362976,279.816559 485.342743,277.784821 517.153870,273.495575 535.523560,261.079346 
	536.643677,211.414459 563.302246,195.837738 574.727356,174.165771 574.727356,155.428574 
	548.964905,135.788345 521.186218,121.340378 512.001282,104.634911 522.306335,89.058197 
	494.527649,46.617279 478.174072,40.522045 458.684174,33.298058 432.025604,19.753084 
	407.383240,14.560846 377.588348,11.400352 347.793518,3.273368 330.319824,3.273368 
	308.589722,10.497354 294.252350,32.169312 273.866394,37.361549 244.967606,31.040564 
	232.646423,31.040564 217.412949,37.361549 210.020233,47.746033 199.939270,67.386246 
	192.770569,78.673721 190.530350,93.347435 180.449371,106.666664 180.449371,106.666664 "
	style="fill-opacity:1.0; fill-rule:evenodd; fill:mediumpurple; stroke:none" />
<polygon points="217.412949,45.488533 
	228.614014,55.647263 229.734131,75.964722 215.396744,79.576714 218.085007,90.186943 
	197.026978,118.857140 222.789459,96.507935 230.182159,79.576714 241.831284,63.548500 
	260.201080,55.195766 247.655853,39.619045 235.558685,36.007053 217.412949,45.488533 
	217.412949,45.488533 "
	style="fill-opacity:1.0; fill-rule:evenodd; fill:lightsteelblue; stroke:none" />
<polygon points="244.967606,70.998230 
	237.126846,89.735443 240.263138,110.955902 272.970306,118.405632 298.732788,132.853622 
	296.716583,126.306870 271.850189,114.116394 261.321167,108.924156 249.672043,90.186943 
	244.967606,70.998230 244.967606,70.998230 "
	style="fill-opacity:1.0; fill-rule:evenodd; fill:lightsteelblue; stroke:none" />
<polygon points="308.813751,149.784821 
	328.303619,168.522034 367.283356,191.322739 391.029663,223.830688 371.539795,216.832443 
	357.874451,207.350952 344.209167,201.481461 344.209167,193.580246 330.319824,197.643738 
	336.816467,189.291000 329.423737,176.423264 319.342773,165.361542 308.813751,149.784821 
	308.813751,149.784821 "
	style="fill-opacity:1.0; fill-rule:evenodd; fill:lightsteelblue; stroke:none" />
<polygon points="254.376511,154.525574 
	267.593781,161.523804 278.794861,179.132263 292.012115,192.902985 322.031006,200.352722 
	308.813751,205.093460 286.635620,199.901230 268.713898,174.391525 254.376511,154.525574 
	254.376511,154.525574 "
	style="fill-opacity:1.0; fill-rule:evenodd; fill:lightsteelblue; stroke:none" />
<polygon points="279.242889,147.075836 
	281.931152,170.102295 292.908203,182.292755 307.693634,186.130508 296.044525,175.971786 
	279.242889,147.075836 279.242889,147.075836 "
	style="fill-opacity:1.0; fill-rule:evenodd; fill:lightsteelblue; stroke:none" />
<polygon points="213.380554,117.276886 
	207.555984,131.273361 212.708481,135.562592 218.533051,150.913574 219.205124,133.305099 
	213.380554,117.276886 213.380554,117.276886 "
	style="fill-opacity:1.0; fill-rule:evenodd; fill:lightsteelblue; stroke:none" />
<polygon points="303.437225,92.444443 
	296.716583,77.544975 286.187592,61.968250 292.460175,54.067017 305.229401,54.067017 
	328.303619,44.359787 322.927094,58.356258 305.229401,57.227512 309.261810,69.869484 
	295.148438,62.645496 304.557343,81.834206 303.437225,92.444443 303.437225,92.444443 "
	style="fill-opacity:1.0; fill-rule:evenodd; fill:lightsteelblue; stroke:none" />
<polygon points="341.968933,47.068783 
	352.049927,38.490299 371.539795,44.359787 390.581635,43.456787 415.447998,40.070545 
	424.408905,57.679008 437.402130,72.126984 458.012115,79.125214 454.427795,90.638443 
	438.074188,88.155197 424.856934,74.835976 412.759766,49.326275 393.717926,55.647263 
	368.851532,56.776009 341.072845,49.777775 341.968933,47.068783 341.968933,47.068783 "
	style="fill-opacity:1.0; fill-rule:evenodd; fill:lightsteelblue; stroke:none" />
<polygon points="359.442627,91.767197 
	354.738159,104.183418 349.361664,113.664894 357.874451,117.276886 364.819122,126.306870 
	359.890656,143.012344 359.442627,164.232788 363.250977,174.391525 369.523590,164.232788 
	369.971649,134.433853 364.147064,115.696648 359.442627,91.767197 359.442627,91.767197 "
	style="fill-opacity:1.0; fill-rule:evenodd; fill:lightsteelblue; stroke:none" />
<polygon points="378.484467,144.592590 
	385.205109,163.104050 412.759766,174.391525 407.383240,162.652557 406.935211,148.881821 
	399.990540,145.044083 378.484467,144.592590 378.484467,144.592590 "
	style="fill-opacity:1.0; fill-rule:evenodd; fill:lightsteelblue; stroke:none" />
<polygon points="395.286072,174.843033 
	376.244263,178.003525 381.172729,187.710754 398.422394,204.190460 417.912231,207.802460 
	399.542480,193.580246 403.798920,187.033493 395.286072,174.843033 395.286072,174.843033 "
	style="fill-opacity:1.0; fill-rule:evenodd; fill:lightsteelblue; stroke:none" />
<polygon points="421.720612,177.552017 
	413.879852,193.580246 433.817810,200.352722 452.411591,201.481461 442.330597,193.580246 
	435.385956,183.873001 421.720612,177.552017 421.720612,177.552017 "
	style="fill-opacity:1.0; fill-rule:evenodd; fill:lightsteelblue; stroke:none" />
<polygon points="428.665283,146.172821 
	433.817810,166.264542 448.155182,164.684296 428.665283,146.172821 428.665283,146.172821 "
	style="fill-opacity:1.0; fill-rule:evenodd; fill:lightsteelblue; stroke:none" />
<polygon points="299.852875,237.601395 
	322.479065,244.148148 346.225372,245.728378 325.167328,254.081116 334.128174,262.208099 
	352.497955,263.111084 352.049927,271.689575 368.403503,259.950623 363.699036,273.269836 
	373.780029,264.239838 375.348175,275.527313 385.877167,262.659607 391.701721,275.527313 
	399.542480,257.467377 414.327911,265.820099 422.168671,255.887100 438.074188,255.209854 
	447.035065,246.631393 407.383240,237.149902 386.325195,242.567902 369.523590,241.439133 
	345.105225,225.862427 330.991882,228.571426 317.774628,236.021149 299.852875,237.601395 
	299.852875,237.601395 "
	style="fill-opacity:1.0; fill-rule:evenodd; fill:lightsteelblue; stroke:none" />
<polygon points="407.383240,127.435623 
	419.704437,118.857140 422.168671,98.088181 427.097137,95.604927 431.129517,108.246902 
	424.408905,122.243385 407.383240,127.435623 407.383240,127.435623 "
	style="fill-opacity:1.0; fill-rule:evenodd; fill:lightsteelblue; stroke:none" />
<polygon points="335.696320,82.737213 
	345.105225,74.835976 362.130890,74.835976 377.812408,79.125214 391.701721,79.576714 
	395.286072,84.994705 384.757050,81.834206 371.091736,81.834206 356.754364,77.544975 
	346.225372,79.576714 335.696320,82.737213 335.696320,82.737213 "
	style="fill-opacity:1.0; fill-rule:evenodd; fill:lightsteelblue; stroke:none" />
<polygon points="463.836700,108.924156 
	445.466888,118.857140 435.385956,138.045837 445.018890,138.045837 455.547882,134.433853 
	470.781342,137.142853 476.605927,132.853622 475.485779,124.726631 466.524933,115.696648 
	463.836700,108.924156 463.836700,108.924156 "
	style="fill-opacity:1.0; fill-rule:evenodd; fill:lightsteelblue; stroke:none" />
<polygon points="483.326538,113.213402 
	488.703094,127.435623 482.878540,173.714279 485.566742,187.710754 501.920349,189.291000 
	520.290161,179.132263 542.468262,182.744263 564.198303,169.650787 564.198303,161.072296 
	538.883911,165.813049 517.153870,160.395065 513.569458,129.015869 498.784058,114.116394 
	483.326538,113.213402 483.326538,113.213402 "
	style="fill-opacity:1.0; fill-rule:evenodd; fill:lightsteelblue; stroke:none" />
<polygon points="453.307648,218.638443 
	480.190247,215.929443 505.056641,203.513229 492.959473,216.380951 479.294159,220.670181 
	453.307648,218.638443 453.307648,218.638443 "
	style="fill-opacity:1.0; fill-rule:evenodd; fill:lightsteelblue; stroke:none" />
<polygon points="514.465576,197.643738 
	527.234802,193.580246 547.172729,201.029984 533.059387,201.029984 516.705750,212.543198 
	524.546509,198.772491 514.465576,197.643738 514.465576,197.643738 "
	style="fill-opacity:1.0; fill-rule:evenodd; fill:lightsteelblue; stroke:none" />
<polygon points="447.483124,270.109344 
	478.174072,262.659607 499.232056,252.049377 480.862305,270.786591 466.972992,270.786591 
	447.483124,270.109344 447.483124,270.109344 "
	style="fill-opacity:1.0; fill-rule:evenodd; fill:lightsteelblue; stroke:none" />
<polygon points="492.287415,270.109344 
	508.865021,271.689575 527.682800,262.659607 528.354919,253.178116 513.569458,264.917114 
	492.287415,270.109344 492.287415,270.109344 "
	style="fill-opacity:1.0; fill-rule:evenodd; fill:lightsteelblue; stroke:none" />
<polygon points="300.972992,32.169312 
	309.261810,31.040564 325.615387,16.818342 353.170013,10.948853 337.264465,8.239859 
	313.966248,12.529099 300.972992,32.169312 300.972992,32.169312 "
	style="fill-opacity:1.0; fill-rule:evenodd; fill:lightsteelblue; stroke:none" />
<polygon points="402.678772,20.430334 
	412.087708,25.848324 431.129517,24.719576 443.898743,27.880070 430.233429,22.010580 
	402.678772,20.430334 402.678772,20.430334 "
	style="fill-opacity:1.0; fill-rule:evenodd; fill:lightsteelblue; stroke:none" />
<polygon points="458.012115,42.779537 
	463.836700,50.229275 471.229401,50.906525 479.742218,46.617279 469.661255,45.940033 
	458.012115,42.779537 458.012115,42.779537 "
	style="fill-opacity:1.0; fill-rule:evenodd; fill:lightsteelblue; stroke:none" />
<polygon points="492.287415,55.647263 
	499.232056,63.096996 497.215881,68.289238 482.430481,66.257492 489.823181,71.675476 
	474.589722,84.994705 491.391327,75.287476 501.472321,72.578484 503.040436,61.516750 
	492.287415,55.647263 492.287415,55.647263 "
	style="fill-opacity:1.0; fill-rule:evenodd; fill:lightsteelblue; stroke:none" />
<polygon points="251.912262,69.869484 
	256.616699,81.834206 259.753021,98.088181 271.402161,111.407402 302.989197,121.566132 
	274.986481,71.675476 251.912262,69.869484 251.912262,69.869484 "
	style="fill-opacity:1.0; fill-rule:evenodd; fill:slateblue; stroke:none" />
<polygon points="333.008087,52.486771 
	326.735474,61.516750 313.518188,64.677246 313.070160,74.835976 306.797577,77.996468 
	308.365723,92.444443 305.677429,102.603172 309.261810,115.696648 318.894714,110.504410 
	320.462860,88.606697 338.832642,66.257492 333.008087,52.486771 333.008087,52.486771 "
	style="fill-opacity:1.0; fill-rule:evenodd; fill:slateblue; stroke:none" />
<polygon points="341.520905,54.067017 
	365.267181,60.388000 385.205109,60.388000 406.487152,54.518517 413.879852,56.776009 
	427.097137,82.737213 442.330597,93.347435 469.213196,94.927689 501.472321,101.474426 
	470.333313,100.345673 441.210510,110.955902 434.937897,118.405632 433.817810,102.603172 
	427.097137,92.444443 420.152466,97.185181 417.464203,116.373894 404.695007,125.855370 
	404.695007,132.402115 430.681488,124.275131 401.558685,139.174591 377.364349,134.433853 
	361.010773,86.574951 395.958160,88.155197 393.717926,75.964722 361.010773,72.126984 
	347.793518,64.225746 341.520905,54.067017 341.520905,54.067017 "
	style="fill-opacity:1.0; fill-rule:evenodd; fill:slateblue; stroke:none" />
<polygon points="323.599182,88.155197 
	343.089050,81.834206 343.537079,109.375656 348.465576,121.114632 357.874451,126.984123 
	353.618073,164.684296 314.638306,143.915329 309.261810,114.793640 323.599182,88.155197 
	323.599182,88.155197 "
	style="fill-opacity:1.0; fill-rule:evenodd; fill:slateblue; stroke:none" />
<polygon points="250.792175,128.564362 
	241.831284,145.044083 251.912262,160.395065 263.337372,170.553787 279.242889,206.222214 
	299.852875,214.800690 324.047241,210.511459 353.170013,219.541428 372.211853,229.700165 
	388.565430,231.731918 410.071503,230.828918 425.304962,235.118149 405.367065,236.021149 
	391.029663,238.278656 372.659882,237.601395 356.306305,230.151657 344.657196,224.959427 
	334.128174,224.959427 324.719269,230.151657 310.381897,235.118149 297.612671,235.569656 
	274.986481,217.961197 250.344116,184.324509 232.198380,166.941788 229.062073,145.495590 
	239.143036,125.403870 249.223999,124.275131 250.792175,128.564362 250.792175,128.564362 "
	style="fill-opacity:1.0; fill-rule:evenodd; fill:slateblue; stroke:none" />
<polygon points="327.183533,250.469131 
	319.790802,256.790100 345.105225,272.818329 382.740875,281.396820 420.152466,272.366852 
	453.307648,253.178116 458.012115,248.437363 438.522247,240.310394 476.157867,242.567902 
	445.018890,267.400360 454.875824,271.238068 477.053955,273.269836 490.271210,269.657837 
	504.608612,273.947083 516.257751,273.269836 506.176727,276.656067 481.758392,278.236328 
	445.466888,275.527313 395.958160,288.169312 359.890656,285.686066 332.560028,276.656067 
	324.047241,272.366852 310.829956,263.788330 310.381897,249.340363 327.183533,250.469131 
	327.183533,250.469131 "
	style="fill-opacity:1.0; fill-rule:evenodd; fill:slateblue; stroke:none" />
<polygon points="407.383240,141.432083 
	412.087708,160.395065 412.759766,174.843033 398.422394,171.231033 410.071503,196.063492 
	419.032379,178.680756 439.642365,180.712524 444.346802,166.264542 432.697662,165.813049 
	425.304962,137.594360 407.383240,141.432083 407.383240,141.432083 "
	style="fill-opacity:1.0; fill-rule:evenodd; fill:slateblue; stroke:none" />
<polygon points="479.742218,116.825394 
	486.014832,137.142853 481.310364,174.391525 483.998627,195.611984 471.901459,189.742493 
	472.349487,171.231033 479.742218,154.074066 481.310364,134.885361 479.742218,116.825394 
	479.742218,116.825394 "
	style="fill-opacity:1.0; fill-rule:evenodd; fill:slateblue; stroke:none" />
<polygon points="488.255035,108.924156 
	506.176727,118.405632 524.098511,143.012344 521.858276,122.694885 507.296906,103.506165 
	483.998627,105.086418 488.255035,108.924156 488.255035,108.924156 "
	style="fill-opacity:1.0; fill-rule:evenodd; fill:slateblue; stroke:none" />
<polygon points="566.886597,153.622559 
	563.078247,181.164001 567.782715,188.613754 574.727356,179.132263 575.847473,162.652557 
	566.886597,153.622559 566.886597,153.622559 "
	style="fill-opacity:1.0; fill-rule:evenodd; fill:slateblue; stroke:none" />
<polygon points="291.340057,37.587303 
	313.518188,33.298058 328.303619,17.947088 346.673401,15.238095 368.403503,9.368606 
	389.461517,15.689593 397.974335,25.848324 345.105225,26.977072 318.222656,42.328041 
	300.300934,41.650791 291.340057,37.587303 291.340057,37.587303 "
	style="fill-opacity:1.0; fill-rule:evenodd; fill:slateblue; stroke:none" />
<polygon points="249.672043,36.458549 
	264.905518,57.227512 244.967606,65.805992 236.006729,76.867722 252.808365,67.837738 
	279.690918,66.708992 279.242889,52.486771 259.304993,36.007053 249.672043,36.458549 
	249.672043,36.458549 "
	style="fill-opacity:1.0; fill-rule:evenodd; fill:slateblue; stroke:none" />
<polygon points="202.851532,66.708992 
	214.276642,88.606697 204.419693,91.767197 203.747620,105.086418 192.098511,125.403870 
	206.435883,119.534386 194.338730,138.045837 185.825897,127.435623 185.377853,91.767197 
	202.851532,66.708992 202.851532,66.708992 "
	style="fill-opacity:1.0; fill-rule:evenodd; fill:slateblue; stroke:none" />
<polygon points="54.325233,326.095215 
	68.438599,342.123413 97.561394,343.026428 118.171379,355.442657 131.164642,378.017609 
	175.296875,388.402100 144.381912,367.633148 106.746284,341.220459 75.831306,329.932983 
	54.325233,326.095215 54.325233,326.095215 "
	style="fill-opacity:1.0; fill-rule:evenodd; fill:forestgreen; stroke:none" />
<polygon points="101.145744,310.970001 
	119.963562,340.317444 169.696350,371.470886 165.887985,360.183411 151.774628,349.798920 
	137.885284,330.835968 101.145744,310.970001 101.145744,310.970001 "
	style="fill-opacity:1.0; fill-rule:evenodd; fill:forestgreen; stroke:none" />
<polygon points="154.686905,185.904755 
	162.079620,214.349197 172.608627,226.765411 173.504715,218.186935 194.114700,236.021149 
	183.809708,208.705460 167.904175,194.483231 154.686905,185.904755 154.686905,185.904755 "
	style="fill-opacity:1.0; fill-rule:evenodd; fill:forestgreen; stroke:none" />
<polygon points="199.715240,206.899460 
	198.819153,245.502655 210.020233,235.118149 217.636963,237.149902 217.636963,218.186935 
	208.228058,199.223969 207.107956,219.992935 199.715240,206.899460 199.715240,206.899460 "
	style="fill-opacity:1.0; fill-rule:evenodd; fill:forestgreen; stroke:none" />
<polygon points="225.925766,203.964706 
	234.438583,225.636673 238.246948,247.534393 242.951416,234.215164 260.649109,246.631393 
	257.960846,233.312164 225.925766,203.964706 225.925766,203.964706 "
	style="fill-opacity:1.0; fill-rule:evenodd; fill:forestgreen; stroke:none" />
<polygon points="200.611328,265.368591 
	216.516861,297.650787 234.438583,354.539673 246.535751,401.721344 258.856934,425.425049 
	243.847504,405.559052 228.838043,348.670197 213.828598,299.456757 200.611328,265.368591 
	200.611328,265.368591 "
	style="fill-opacity:1.0; fill-rule:evenodd; fill:forestgreen; stroke:none" />
<polygon points="292.460175,253.178116 
	287.979736,261.756592 288.875824,279.590820 285.067444,293.813049 295.372437,277.784821 
	301.869080,263.562592 292.460175,253.178116 292.460175,253.178116 "
	style="fill-opacity:1.0; fill-rule:evenodd; fill:forestgreen; stroke:none" />
<polygon points="315.982422,268.303345 
	315.982422,304.197510 324.495239,293.813049 325.391327,279.590820 315.982422,268.303345 
	315.982422,268.303345 "
	style="fill-opacity:1.0; fill-rule:evenodd; fill:forestgreen; stroke:none" />
<polygon points="271.850189,311.872986 
	293.580292,355.442657 305.677429,404.656067 301.869080,470.800690 310.381897,434.003510 
	310.381897,402.624329 300.972992,360.183411 287.979736,329.932983 271.850189,311.872986 
	271.850189,311.872986 "
	style="fill-opacity:1.0; fill-rule:evenodd; fill:forestgreen; stroke:none" />
<polygon points="236.230759,451.837738 
	268.265839,454.772461 296.268524,452.966461 266.249634,443.484985 236.230759,451.837738 
	236.230759,451.837738 "
	style="fill-opacity:1.0; fill-rule:evenodd; fill:forestgreen; stroke:none" />
<polygon points="370.419678,291.104065 
	383.636963,314.582001 393.045868,292.007019 370.419678,291.104065 370.419678,291.104065 "
	style="fill-opacity:1.0; fill-rule:evenodd; fill:forestgreen; stroke:none" />
<polygon points="364.819122,396.077576 
	387.221313,391.336853 403.350861,380.952362 430.457458,378.920624 458.684174,361.989410 
	429.561371,362.892395 391.925781,375.308624 364.819122,396.077576 364.819122,396.077576 "
	style="fill-opacity:1.0; fill-rule:evenodd; fill:forestgreen; stroke:none" />
<polygon points="455.771881,439.647247 
	428.665283,416.846527 394.838013,415.943542 362.802948,449.128723 386.325195,450.934723 
	401.334656,449.128723 386.325195,436.712494 410.743561,447.999969 421.944672,446.193970 
	415.447998,427.231018 460.476349,452.966461 455.771881,439.647247 455.771881,439.647247 "
	style="fill-opacity:1.0; fill-rule:evenodd; fill:forestgreen; stroke:none" />
<polygon points="355.410217,459.513184 
	404.246948,466.962921 440.762451,501.954132 427.545197,495.407379 412.535736,478.476196 
	410.743561,493.601410 349.809692,475.541443 355.410217,459.513184 355.410217,459.513184 "
	style="fill-opacity:1.0; fill-rule:evenodd; fill:forestgreen; stroke:none" />
<polygon points="452.859619,488.860657 
	466.972992,510.758362 479.294159,471.703674 466.076874,472.832428 452.859619,488.860657 
	452.859619,488.860657 "
	style="fill-opacity:1.0; fill-rule:evenodd; fill:forestgreen; stroke:none" />
<polygon points="551.429077,396.077576 
	520.514160,400.818329 499.008057,428.134033 494.303589,459.513184 516.705750,440.550232 
	538.435852,430.165771 556.133545,405.559052 551.429077,396.077576 551.429077,396.077576 "
	style="fill-opacity:1.0; fill-rule:evenodd; fill:forestgreen; stroke:none" />
<polygon points="572.935181,305.100525 
	553.221252,337.382690 555.237488,386.596100 574.055298,369.664886 587.048584,333.544952 
	565.542480,353.410919 572.935181,305.100525 572.935181,305.100525 "
	style="fill-opacity:1.0; fill-rule:evenodd; fill:forestgreen; stroke:none" />
<polygon points="595.561340,346.864166 
	602.057983,393.142822 571.143005,407.365051 570.246948,435.809479 577.639648,418.878265 
	603.178101,402.624329 615.275269,378.017609 602.057983,332.641937 595.561340,346.864166 
	595.561340,346.864166 "
	style="fill-opacity:1.0; fill-rule:evenodd; fill:forestgreen; stroke:none" />
<polygon points="563.750305,459.513184 
	529.923096,510.758362 540.228027,510.758362 563.750305,459.513184 563.750305,459.513184 "
	style="fill-opacity:1.0; fill-rule:evenodd; fill:forestgreen; stroke:none" />
<polygon points="600.265808,414.137543 
	622.667969,408.268066 607.658569,403.527313 600.265808,414.137543 600.265808,414.137543 "
	style="fill-opacity:1.0; fill-rule:evenodd; fill:forestgreen; stroke:none" />
<polygon points="229.734131,45.037037 
	233.542496,65.805992 251.240219,53.389771 246.535751,43.908287 229.734131,45.037037 
	229.734131,45.037037 "
	style="fill-opacity:1.0; fill-rule:evenodd; fill:lavender; stroke:none" />
<polygon points="225.029678,81.834206 
	219.429138,81.834206 219.429138,91.315697 209.124146,106.440910 222.117401,96.056435 
	225.029678,81.834206 225.029678,81.834206 "
	style="fill-opacity:1.0; fill-rule:evenodd; fill:lavender; stroke:none" />
<polygon points="243.847504,82.737213 
	240.935211,91.315697 242.951416,105.537918 259.753021,111.181648 251.240219,100.797173 
	243.847504,82.737213 243.847504,82.737213 "
	style="fill-opacity:1.0; fill-rule:evenodd; fill:lavender; stroke:none" />
<polygon points="335.696320,179.358017 
	351.601868,202.158722 378.932495,213.446198 367.507416,198.320984 335.696320,179.358017 
	335.696320,179.358017 "
	style="fill-opacity:1.0; fill-rule:evenodd; fill:lavender; stroke:none" />
<polygon points="273.866394,172.811279 
	291.564087,194.483231 306.573517,203.061722 288.875824,196.289230 282.155182,187.936508 
	273.866394,172.811279 273.866394,172.811279 "
	style="fill-opacity:1.0; fill-rule:evenodd; fill:lavender; stroke:none" />
<polygon points="321.582977,237.149902 
	339.504700,232.409164 368.627502,246.631393 391.925781,246.631393 407.831299,242.793640 
	428.665283,246.631393 410.743561,248.437363 410.743561,255.887100 397.750305,253.178116 
	391.029663,260.627838 381.620758,257.015869 363.923065,257.015869 342.192963,257.918884 
	348.913605,247.534393 344.209167,241.890640 321.582977,237.149902 321.582977,237.149902 "
	style="fill-opacity:1.0; fill-rule:evenodd; fill:lavender; stroke:none" />
<polygon points="293.580292,55.421513 
	290.667999,65.805992 301.869080,82.737213 297.164642,65.805992 304.781342,65.805992 
	301.869080,57.227512 293.580292,55.421513 293.580292,55.421513 "
	style="fill-opacity:1.0; fill-rule:evenodd; fill:lavender; stroke:none" />
<polygon points="350.705780,45.940033 
	373.331970,52.486771 391.925781,52.486771 410.743561,43.908287 383.636963,47.746033 
	369.523590,47.746033 350.705780,45.940033 350.705780,45.940033 "
	style="fill-opacity:1.0; fill-rule:evenodd; fill:lavender; stroke:none" />
<polygon points="421.048553,61.065254 
	435.161896,84.768951 452.859619,86.574951 452.859619,80.931213 438.970276,76.190475 
	421.048553,61.065254 421.048553,61.065254 "
	style="fill-opacity:1.0; fill-rule:evenodd; fill:lavender; stroke:none" />
<polygon points="492.287415,120.663132 
	494.303589,136.691345 488.703094,171.682526 493.407501,181.164001 510.209167,174.617279 
	540.228027,176.423264 558.149780,169.876541 539.331970,171.682526 512.001282,168.070541 
	511.105225,142.335098 499.008057,125.403870 492.287415,120.663132 492.287415,120.663132 "
	style="fill-opacity:1.0; fill-rule:evenodd; fill:lavender; stroke:none" />
<polygon points="461.372437,115.019394 
	468.093079,129.241623 449.275269,129.241623 450.171356,120.663132 461.372437,115.019394 
	461.372437,115.019394 "
	style="fill-opacity:1.0; fill-rule:evenodd; fill:lavender; stroke:none" />
<polygon points="365.715210,133.982361 
	361.010773,156.557312 364.819122,168.070541 366.611298,152.945328 365.715210,133.982361 
	365.715210,133.982361 "
	style="fill-opacity:1.0; fill-rule:evenodd; fill:lavender; stroke:none" />
<polygon points="384.533051,149.107574 
	387.221313,162.201050 407.831299,169.876541 399.542480,156.557312 384.533051,149.107574 
	384.533051,149.107574 "
	style="fill-opacity:1.0; fill-rule:evenodd; fill:lavender; stroke:none" />
<polygon points="395.734100,179.358017 
	378.932495,181.164001 398.646393,202.158722 394.838013,190.645493 398.646393,185.001755 
	395.734100,179.358017 395.734100,179.358017 "
	style="fill-opacity:1.0; fill-rule:evenodd; fill:lavender; stroke:none" />
<polygon points="423.960846,182.067017 
	440.762451,196.289230 423.064758,190.645493 423.960846,182.067017 423.960846,182.067017 "
	style="fill-opacity:1.0; fill-rule:evenodd; fill:lavender; stroke:none" />
<polygon points="117.051277,325.192230 
	123.771927,340.317444 152.894730,355.442657 141.469635,343.929443 134.076920,334.673706 
	117.051277,325.192230 117.051277,325.192230 "
	style="fill-opacity:1.0; fill-rule:evenodd; fill:lime; stroke:none" />
<polygon points="127.580284,361.086426 
	137.885284,376.211609 164.095810,383.661346 145.277985,371.470886 127.580284,361.086426 
	127.580284,361.086426 "
	style="fill-opacity:1.0; fill-rule:evenodd; fill:lime; stroke:none" />
<polygon points="60.821861,330.835968 
	77.847496,339.188721 92.856941,341.220459 75.831306,333.544952 60.821861,330.835968 
	60.821861,330.835968 "
	style="fill-opacity:1.0; fill-rule:evenodd; fill:lime; stroke:none" />
<polygon points="162.079620,201.029984 
	170.592438,208.705460 180.897430,207.802460 189.410248,227.668411 172.608627,214.349197 
	167.904175,219.992935 163.199722,212.543198 162.079620,201.029984 162.079620,201.029984 "
	style="fill-opacity:1.0; fill-rule:evenodd; fill:lime; stroke:none" />
<polygon points="201.507416,215.252197 
	200.611328,238.052902 210.020233,226.765411 217.636963,228.571426 215.620773,218.186935 
	209.124146,207.802460 209.124146,219.992935 201.507416,215.252197 201.507416,215.252197 "
	style="fill-opacity:1.0; fill-rule:evenodd; fill:lime; stroke:none" />
<polygon points="234.438583,218.186935 
	238.246948,235.118149 241.831284,227.668411 257.960846,238.955902 242.951416,223.830688 
	234.438583,218.186935 234.438583,218.186935 "
	style="fill-opacity:1.0; fill-rule:evenodd; fill:lime; stroke:none" />
<polygon points="214.724686,300.585541 
	244.743561,406.462067 242.951416,385.693085 230.630219,343.026428 214.724686,300.585541 
	214.724686,300.585541 "
	style="fill-opacity:1.0; fill-rule:evenodd; fill:lime; stroke:none" />
<polygon points="291.564087,257.918884 
	291.564087,279.590820 297.164642,265.368591 291.564087,257.918884 291.564087,257.918884 "
	style="fill-opacity:1.0; fill-rule:evenodd; fill:lime; stroke:none" />
<polygon points="316.878540,273.044067 
	319.790802,294.716034 323.599182,281.622559 316.878540,273.044067 316.878540,273.044067 "
	style="fill-opacity:1.0; fill-rule:evenodd; fill:lime; stroke:none" />
<polygon points="301.869080,364.924133 
	308.589722,415.943542 304.781342,453.869476 312.174072,434.003510 312.174072,404.656067 
	301.869080,364.924133 301.869080,364.924133 "
	style="fill-opacity:1.0; fill-rule:evenodd; fill:lime; stroke:none" />
<polygon points="374.228058,391.336853 
	406.039093,376.211609 426.649109,374.405640 444.570831,364.924133 415.447998,368.536133 
	393.941956,374.405640 374.228058,391.336853 374.228058,391.336853 "
	style="fill-opacity:1.0; fill-rule:evenodd; fill:lime; stroke:none" />
<polygon points="447.259094,438.744232 
	413.655853,421.587280 428.665283,421.587280 447.259094,438.744232 447.259094,438.744232 "
	style="fill-opacity:1.0; fill-rule:evenodd; fill:lime; stroke:none" />
<polygon points="416.344086,439.647247 
	408.951385,422.490295 397.750305,421.587280 374.228058,444.388000 389.237488,445.290985 
	388.117401,437.615509 410.743561,443.484985 416.344086,439.647247 416.344086,439.647247 "
	style="fill-opacity:1.0; fill-rule:evenodd; fill:lime; stroke:none" />
<polygon points="548.740906,408.268066 
	539.331970,403.527313 524.322510,405.559052 505.504700,427.231018 497.887970,452.966461 
	516.705750,434.003510 534.627502,425.425049 548.740906,408.268066 548.740906,408.268066 "
	style="fill-opacity:1.0; fill-rule:evenodd; fill:lime; stroke:none" />
<polygon points="358.322510,463.350952 
	365.715210,474.638428 398.646393,485.022919 412.535736,480.282166 400.438568,470.800690 
	358.322510,463.350952 358.322510,463.350952 "
	style="fill-opacity:1.0; fill-rule:evenodd; fill:lime; stroke:none" />
<polygon points="564.646423,332.641937 
	555.237488,358.151672 559.941956,378.017609 572.935181,366.730133 578.759766,346.864166 
	563.750305,357.248657 564.646423,332.641937 564.646423,332.641937 "
	style="fill-opacity:1.0; fill-rule:evenodd; fill:lime; stroke:none" />
<polygon points="602.057983,351.604919 
	604.074219,389.530853 574.951355,413.234558 597.353516,402.624329 609.674744,385.693085 
	606.762451,366.730133 602.057983,351.604919 602.057983,351.604919 "
	style="fill-opacity:1.0; fill-rule:evenodd; fill:lime; stroke:none" />
<polygon points="378.036407,297.650787 
	382.516846,310.970001 387.221313,298.553802 378.036407,297.650787 378.036407,297.650787 "
	style="fill-opacity:1.0; fill-rule:evenodd; fill:lime; stroke:none" />
<polygon points="256.168701,121.566132 
	275.210510,124.500877 295.596497,137.594360 307.469635,163.555542 330.095795,182.744263 
	332.335999,190.871246 327.855560,195.386230 319.118744,193.128738 309.709808,183.647247 
	296.492584,168.747787 285.515503,148.881821 275.210510,134.659607 265.577606,126.532623 
	256.168701,121.566132 256.168701,121.566132 "
	style="fill-opacity:1.0; fill-rule:evenodd; fill:black; stroke:none" />
<polygon points="279.690918,58.582008 
	284.619415,51.132271 293.580292,49.777775 307.469635,49.777775 318.446655,46.843033 
	329.423737,39.393299 336.816467,37.813049 341.968933,41.650791 349.137634,31.943560 
	358.770569,31.266314 367.507416,36.458549 378.484467,40.070545 389.461517,40.070545 
	408.503357,35.555553 415.223999,35.555553 423.960846,38.716049 431.129517,47.520279 
	434.265839,57.227512 438.522247,63.774250 448.827240,68.966492 463.388641,69.643738 
	467.869080,72.578484 467.869080,77.093468 461.372437,85.897705 473.693634,81.608467 
	486.910919,71.901230 475.261780,68.289238 468.541138,61.516750 472.349487,58.582008 
	484.670715,64.451492 494.303589,66.708992 495.647766,62.194000 489.823181,58.582008 
	487.583008,49.777775 479.518188,49.777775 472.349487,54.067017 464.284729,53.389771 
	457.564087,46.843033 451.739502,36.458549 440.762451,29.686066 431.129517,27.654318 
	415.223999,28.331568 402.678772,24.493826 396.182159,18.624338 415.223999,17.269840 
	426.873138,20.204584 420.152466,13.432097 411.415619,10.497354 396.854248,10.497354 
	374.900116,6.885361 359.442627,2.370370 343.985138,0.112875 324.943298,2.370370 
	307.469635,9.820106 324.943298,6.885361 335.248291,5.305114 350.705780,5.305114 
	362.354889,8.239859 376.244263,13.432097 382.964874,16.366842 369.747589,20.204584 
	352.049927,20.204584 341.072845,17.947088 330.767853,19.301586 325.839386,24.493826 
	325.839386,31.943560 319.790802,36.458549 306.797577,38.716049 296.492584,35.555553 
	297.164642,29.008816 303.661255,20.204584 297.836670,20.881834 289.771912,30.589066 
	283.275299,31.943560 275.210510,32.846558 261.321167,32.846558 246.535751,29.686066 
	233.542496,28.331568 220.997284,34.201057 210.020233,43.005287 223.013474,35.555553 
	234.214569,31.943560 242.951416,32.846558 251.688232,36.458549 258.408875,43.005287 
	269.385925,53.389771 279.690918,58.582008 279.690918,58.582008 "
	style="fill-opacity:1.0; fill-rule:evenodd; fill:black; stroke:none" />
<polygon points="203.971649,48.197529 
	199.715240,64.451492 190.978394,74.835976 184.929810,91.767197 178.433182,105.086418 
	183.585678,129.693115 190.978394,143.689590 200.387299,137.594360 207.780014,119.308640 
	194.562744,133.982361 187.170029,125.855370 192.322540,115.470894 202.627518,104.409172 
	196.130890,94.024689 199.043182,86.800697 210.020233,85.897705 199.715240,72.578484 
	203.299576,68.289238 212.932510,70.320984 224.581635,74.158722 222.341431,59.259254 
	210.692291,48.197529 212.932510,41.650791 203.971649,48.197529 203.971649,48.197529 "
	style="fill-opacity:1.0; fill-rule:evenodd; fill:black; stroke:none" />
<polygon points="241.383255,71.223984 
	231.974350,81.608467 229.062073,97.862434 215.172714,112.536148 222.341431,118.405632 
	223.909576,135.562592 222.341431,146.624329 224.581635,161.298050 215.172714,154.751312 
	209.124146,140.754837 200.387299,134.659607 194.562744,139.174591 205.539795,144.366837 
	210.020233,153.171082 213.604568,162.201050 221.669357,170.328033 239.367065,185.001755 
	245.863693,195.386230 251.688232,208.705460 259.080933,222.024673 268.489868,233.086411 
	289.099854,247.082886 313.966248,266.271576 322.703094,261.982361 313.966248,252.952377 
	333.904175,248.663132 313.966248,247.985886 291.340057,241.890640 275.882599,233.086411 
	297.836670,236.698410 312.622101,234.440903 323.599182,229.474411 330.767853,221.347443 
	344.881226,222.701935 369.747589,234.440903 393.045868,236.698410 424.632904,230.828918 
	408.503357,227.216919 398.198334,219.767181 383.636963,204.190460 395.286072,221.347443 
	401.110626,227.216919 388.789459,228.571426 375.572174,226.539673 361.010773,219.767181 
	346.225372,210.059952 334.576233,208.028214 330.095795,208.705460 336.816467,199.901230 
	327.855560,202.158722 321.358948,209.382706 316.878540,220.444427 305.229401,224.282166 
	293.580292,222.024673 281.035065,212.317444 272.298218,199.901230 265.577606,180.486771 
	260.425079,169.425034 253.256409,165.813049 242.279327,163.555542 234.886627,156.105804 
	233.542496,147.301590 238.470963,134.659607 251.688232,122.243385 239.367065,119.985893 
	233.542496,110.278656 231.974350,94.024689 235.558685,82.285713 241.383255,71.223984 
	241.383255,71.223984 "
	style="fill-opacity:1.0; fill-rule:evenodd; fill:black; stroke:none" />
<polygon points="279.690918,65.128746 
	256.840729,63.774250 251.688232,68.289238 259.080933,73.481476 264.905518,82.962959 
	267.145752,96.282181 270.730072,106.666664 276.554626,113.213402 293.580292,117.728386 
	303.661255,121.566132 302.317108,103.054672 297.164642,88.155197 286.859619,75.738976 
	279.690918,65.128746 279.690918,65.128746 "
	style="fill-opacity:1.0; fill-rule:evenodd; fill:black; stroke:none" />
<polygon points="333.904175,52.712521 
	333.904175,63.774250 328.751678,75.738976 316.206482,71.901230 319.790802,81.608467 
	308.813751,81.608467 314.862335,94.024689 316.206482,108.021164 306.797577,104.409172 
	311.053955,125.855370 312.622101,145.721329 335.248291,164.232788 363.923065,182.067017 
	356.530365,170.328033 354.290131,145.721329 338.160553,137.594360 317.774628,142.109344 
	319.118744,135.562592 336.816467,131.047607 352.945984,138.497345 361.010773,123.597878 
	357.874451,119.985893 339.728699,125.855370 339.728699,116.373894 348.465576,104.409172 
	355.858276,98.539680 355.858276,82.285713 344.881226,82.285713 337.488525,85.897705 
	335.248291,97.862434 327.855560,99.216927 320.686890,111.858902 322.031006,96.282181 
	329.423737,89.735443 336.816467,74.158722 354.962189,71.223984 342.640991,63.096996 
	333.904175,52.712521 333.904175,52.712521 "
	style="fill-opacity:1.0; fill-rule:evenodd; fill:black; stroke:none" />
<polygon points="345.553284,58.582008 
	362.354889,71.901230 382.964874,76.416222 395.286072,76.416222 399.766510,90.412697 
	388.117401,84.543205 373.331970,83.865959 374.004028,96.959427 363.923065,87.477951 
	365.939270,108.021164 371.987823,128.112869 379.156525,142.109344 409.175415,142.109344 
	412.983765,148.881821 414.327911,170.328033 418.136292,174.617279 424.632904,174.617279 
	434.937897,177.552017 440.090393,168.747787 432.697662,171.005280 428.217255,165.135803 
	426.873138,150.913574 421.048553,141.432083 429.113342,141.432083 434.937897,119.985893 
	424.632904,125.855370 403.350861,134.659607 401.110626,121.566132 416.568146,115.470894 
	414.327911,97.862434 421.048553,91.767197 429.113342,91.089943 419.480408,78.673721 
	414.327911,68.966492 412.087708,60.839504 404.919006,57.227512 388.789459,63.096996 
	371.987823,65.128746 356.530365,62.194000 345.553284,58.582008 345.553284,58.582008 "
	style="fill-opacity:1.0; fill-rule:evenodd; fill:black; stroke:none" />
<polygon points="374.004028,187.259247 
	392.373779,204.190460 409.175415,213.220459 421.048553,212.317444 428.217255,208.028214 
	408.503357,196.966476 435.609955,205.770721 458.236145,205.770721 467.197021,193.805984 
	472.349487,169.425034 481.758392,154.074066 475.933838,174.617279 476.605927,190.871246 
	487.583008,194.708984 500.800232,194.708984 522.978394,185.679001 534.627502,189.516739 
	554.341370,187.259247 563.974304,176.197510 568.230774,189.516739 563.078247,198.320984 
	549.860962,198.998215 530.819092,190.871246 522.082336,190.871246 508.192932,198.320984 
	492.063385,208.705460 472.349487,214.574936 446.587036,216.155197 432.025604,216.155197 
	452.411591,223.379181 471.453400,225.636673 488.479034,223.379181 503.040436,212.317444 
	521.410217,199.901230 500.800232,220.444427 514.017517,219.767181 531.715210,204.190460 
	549.860962,205.093460 539.780029,213.897705 539.780029,243.470871 534.627502,264.014099 
	533.955444,251.597870 522.978394,250.017639 511.777283,260.402130 487.583008,270.109344 
	508.865021,250.017639 519.170044,230.151657 512.673401,230.151657 501.472321,243.470871 
	486.238831,252.952377 474.589722,260.402130 445.914948,267.851837 434.937897,270.109344 
	434.265839,278.913574 426.873138,291.555542 412.983765,296.747772 399.766510,294.490265 
	388.117401,295.844788 376.244263,294.490265 363.026978,289.975281 351.377838,285.686066 
	331.663940,275.978821 342.640991,277.559052 361.682831,284.783051 378.484467,285.686066 
	401.110626,284.783051 425.304962,275.301575 447.259094,260.402130 466.300934,244.825378 
	437.850189,241.213394 403.350861,233.763657 412.087708,230.151657 434.265839,230.151657 
	439.194305,227.216919 415.223999,222.701935 394.614014,211.640198 383.636963,200.578476 
	374.004028,187.259247 374.004028,187.259247 "
	style="fill-opacity:1.0; fill-rule:evenodd; fill:black; stroke:none" />
<polygon points="431.129517,92.670189 
	437.178131,105.989410 437.178131,119.308640 452.411591,111.181648 470.109314,103.731918 
	470.781342,113.213402 480.414276,124.500877 480.414276,137.594360 483.998627,131.047607 
	483.998627,120.663132 478.174072,113.213402 483.998627,108.021164 498.784058,108.924156 
	514.017517,117.728386 519.842041,128.790115 520.738159,150.913574 528.802917,159.943558 
	542.020203,161.298050 562.406189,153.171082 573.383240,166.490295 573.383240,182.744263 
	577.863647,171.682526 576.295532,155.428574 565.318481,133.305099 545.604614,129.693115 
	529.474976,120.663132 521.410217,111.858902 519.842041,105.989410 527.906860,96.282181 
	529.474976,90.412697 526.562744,83.865959 518.497925,78.673721 511.105225,65.128746 
	497.887970,45.262783 481.758392,38.716049 467.197021,35.555553 448.155182,26.751320 
	459.132233,38.716049 467.869080,41.650791 483.998627,44.585537 495.647766,51.132271 
	502.368408,59.259254 504.608612,71.223984 503.040436,75.738976 488.479034,81.608467 
	470.109314,92.670189 488.479034,92.670189 515.585693,95.604927 500.800232,101.474426 
	470.109314,96.959427 463.388641,99.216927 452.411591,105.086418 443.002655,102.151665 
	431.129517,92.670189 431.129517,92.670189 "
	style="fill-opacity:1.0; fill-rule:evenodd; fill:black; stroke:none" />
<polygon points="430.457458,142.786591 
	446.587036,155.428574 454.651794,167.393295 456.892029,177.552017 446.587036,167.393295 
	442.330597,174.617279 446.587036,190.871246 453.979736,196.966476 451.739502,184.324509 
	459.804291,179.132263 460.476349,188.613754 465.628845,182.067017 467.869080,167.393295 
	473.021545,154.074066 460.476349,152.493820 464.284729,148.881821 474.589722,148.881821 
	475.933838,139.851852 467.197021,142.109344 457.564087,139.174591 443.674744,142.786591 
	430.457458,142.786591 430.457458,142.786591 "
	style="fill-opacity:1.0; fill-rule:evenodd; fill:black; stroke:none" />
<polygon points="373.331970,145.044083 
	374.004028,165.813049 366.835358,179.809509 374.004028,187.259247 372.659882,176.874771 
	381.396729,173.262787 391.029663,171.005280 382.964874,167.393295 377.812408,151.816574 
	373.331970,145.044083 373.331970,145.044083 "
	style="fill-opacity:1.0; fill-rule:evenodd; fill:black; stroke:none" />
<polygon points="401.110626,173.940018 
	415.223999,179.809509 415.223999,185.001755 410.071503,190.871246 409.175415,182.067017 
	401.110626,173.940018 401.110626,173.940018 "
	style="fill-opacity:1.0; fill-rule:evenodd; fill:black; stroke:none" />
<polygon points="272.970306,183.647247 
	283.947357,203.513229 298.732788,210.962952 311.726044,210.962952 327.855560,202.835968 
	322.703094,211.640198 308.141663,216.832443 294.924408,216.832443 281.707123,206.447952 
	272.970306,183.647247 272.970306,183.647247 "
	style="fill-opacity:1.0; fill-rule:evenodd; fill:black; stroke:none" />
<polygon points="251.016174,122.243385 
	238.470963,139.851852 238.470963,149.559082 247.207809,158.363297 248.103897,147.978836 
	268.489868,155.428574 278.122772,168.070541 276.554626,149.559082 265.577606,133.305099 
	265.577606,125.178131 254.600510,122.243385 251.016174,122.243385 251.016174,122.243385 "
	style="fill-opacity:1.0; fill-rule:evenodd; fill:black; stroke:none" />
<polygon points="284.619415,180.486771 
	297.836670,187.936508 309.709808,188.613754 322.031006,186.582001 328.751678,195.386230 
	314.862335,195.386230 298.732788,191.548492 291.340057,186.582001 284.619415,180.486771 
	284.619415,180.486771 "
	style="fill-opacity:1.0; fill-rule:evenodd; fill:black; stroke:none" />
<polygon points="196.130890,162.652557 
	216.740875,196.966476 232.870422,228.797165 234.662613,250.469131 246.535751,260.853607 
	245.639664,247.082886 266.249634,260.853607 268.713898,247.760132 262.665314,233.989410 
	239.591080,210.737213 266.249634,229.700165 275.658539,247.082886 279.018890,238.278656 
	290.892029,244.373886 285.739532,255.661362 281.483124,263.336853 285.067444,273.721313 
	281.483124,292.684296 285.067444,313.227509 275.658539,290.878296 272.074219,301.262787 
	262.665314,295.167542 262.665314,307.358002 244.071518,291.781281 250.792175,288.395050 
	267.145752,286.589050 277.226685,275.301575 264.457458,276.204559 257.736847,281.396820 
	238.919022,285.008789 220.997284,275.301575 212.484482,259.950623 208.900131,221.121689 
	219.205124,254.758362 220.997284,231.506165 217.636963,208.253967 196.130890,162.652557 
	196.130890,162.652557 "
	style="fill-opacity:1.0; fill-rule:evenodd; fill:black; stroke:none" />
<polygon points="170.592438,66.031746 
	173.056671,107.343910 182.465576,145.269836 214.052628,171.908279 238.919022,211.640198 
	193.666656,160.846542 176.416992,144.366837 154.238861,115.922394 175.744934,139.400345 
	157.823196,102.151665 150.878540,66.031746 170.592438,118.631386 167.008087,96.282181 
	170.592438,66.031746 170.592438,66.031746 "
	style="fill-opacity:1.0; fill-rule:evenodd; fill:black; stroke:none" />
<polygon points="128.700394,107.343910 
	140.573532,147.978836 160.287430,165.135803 182.465576,178.003525 208.228058,219.315674 
	192.770569,185.904755 209.796219,203.964706 194.562744,178.906509 174.848831,165.135803 
	153.566788,153.171082 142.365707,140.980591 128.700394,107.343910 128.700394,107.343910 "
	style="fill-opacity:1.0; fill-rule:evenodd; fill:black; stroke:none" />
<polygon points="141.469635,122.017632 
	169.696350,159.943558 197.026978,185.001755 184.257751,167.619049 164.543854,146.172821 
	141.469635,122.017632 141.469635,122.017632 "
	style="fill-opacity:1.0; fill-rule:evenodd; fill:black; stroke:none" />
<polygon points="150.878540,160.846542 
	176.416992,185.904755 192.770569,199.675476 198.819153,227.216919 197.026978,245.276886 
	193.666656,217.735443 180.673401,196.063492 145.726044,169.425034 156.031036,204.641968 
	134.748978,187.485001 107.418350,177.100525 138.109299,185.904755 139.005386,154.751312 
	135.645065,133.305099 150.878540,160.846542 150.878540,160.846542 "
	style="fill-opacity:1.0; fill-rule:evenodd; fill:black; stroke:none" />
<polygon points="84.344124,157.460312 
	115.931168,185.904755 151.774628,206.447952 175.744934,237.601395 179.105255,230.603165 
	196.130890,245.276886 173.952759,245.276886 152.670700,225.410919 139.901474,207.350952 
	111.674759,185.904755 84.344124,157.460312 84.344124,157.460312 "
	style="fill-opacity:1.0; fill-rule:evenodd; fill:black; stroke:none" />
<polygon points="185.153824,250.469131 
	200.387299,251.372116 208.900131,248.663132 218.309021,262.433868 207.331985,255.661362 
	197.026978,257.241608 180.001328,267.626099 185.153824,250.469131 185.153824,250.469131 "
	style="fill-opacity:1.0; fill-rule:evenodd; fill:black; stroke:none" />
<polygon points="189.410248,256.564362 
	214.948715,326.998230 231.974350,393.368591 238.919022,416.620789 261.993225,440.775970 
	234.662613,444.388000 199.491226,439.195740 185.153824,443.484985 204.643723,448.677216 
	225.253693,462.447937 261.993225,462.447937 300.300934,474.412659 285.067444,458.835968 
	261.993225,457.255707 233.766525,455.449707 220.997284,449.580231 248.999985,451.160461 
	267.145752,448.677216 289.323883,452.063477 273.866394,438.292725 262.665314,436.486755 
	242.279327,412.331543 222.565445,339.188721 210.692291,304.649017 193.666656,253.855362 
	189.410248,256.564362 189.410248,256.564362 "
	style="fill-opacity:1.0; fill-rule:evenodd; fill:black; stroke:none" />
<polygon points="201.283386,253.855362 
	219.205124,301.262787 237.126846,363.343903 249.896072,408.945312 272.970306,440.775970 
	288.427765,451.160461 267.145752,426.102264 253.480408,407.139313 240.487167,359.054657 
	226.149780,308.938263 206.435883,252.952377 201.283386,253.855362 201.283386,253.855362 "
	style="fill-opacity:1.0; fill-rule:evenodd; fill:black; stroke:none" />
<polygon points="276.330627,444.388000 
	297.836670,444.388000 301.197021,420.910034 301.197021,396.077576 294.476349,369.439148 
	268.713898,315.033508 284.171387,335.802460 296.940582,365.827148 305.453430,396.077576 
	306.349518,429.714264 299.404816,464.931183 285.739532,451.160461 276.330627,444.388000 
	276.330627,444.388000 "
	style="fill-opacity:1.0; fill-rule:evenodd; fill:black; stroke:none" />
<polygon points="290.219971,320.225739 
	308.813751,371.019379 314.862335,402.172821 314.862335,434.906525 307.917664,469.220428 
	335.248291,470.123444 313.070160,480.507935 342.192963,477.121674 346.449371,464.028198 
	313.070160,464.028198 323.375153,400.366821 340.400787,338.285706 349.809692,308.261017 
	354.962189,326.320984 363.475006,333.093445 354.066132,313.227509 357.650452,287.492035 
	349.809692,282.299805 343.985138,299.456757 327.631561,340.091675 317.326569,380.500854 
	307.245575,353.862427 290.219971,320.225739 290.219971,320.225739 "
	style="fill-opacity:1.0; fill-rule:evenodd; fill:black; stroke:none" />
<polygon points="310.605927,260.853607 
	300.300934,282.299805 280.811066,306.455017 302.093109,289.975281 306.349518,308.938263 
	296.940582,347.767181 283.275299,380.500854 303.885284,347.767181 316.654510,315.936493 
	334.576233,305.552032 346.449371,332.190460 340.400787,301.262787 337.936554,286.589050 
	349.137634,282.299805 331.887970,274.624329 332.784058,297.876526 313.966248,313.227509 
	305.453430,329.707214 311.502014,299.456757 310.605927,260.853607 310.605927,260.853607 "
	style="fill-opacity:1.0; fill-rule:evenodd; fill:black; stroke:none" />
<polygon points="356.754364,285.686066 
	370.419678,312.550262 379.828583,379.597870 376.468262,326.998230 372.211853,303.068787 
	367.731415,287.492035 356.754364,285.686066 356.754364,285.686066 "
	style="fill-opacity:1.0; fill-rule:evenodd; fill:black; stroke:none" />
<polygon points="392.597809,291.781281 
	392.597809,305.552032 382.292816,327.901215 378.036407,356.345673 388.341400,327.901215 
	395.062073,313.227509 414.775940,344.380951 433.593750,355.668427 418.136292,340.091675 
	402.006714,317.742493 397.750305,288.395050 392.597809,291.781281 392.597809,291.781281 "
	style="fill-opacity:1.0; fill-rule:evenodd; fill:black; stroke:none" />
<polygon points="427.545197,279.816559 
	444.794830,273.721313 483.102539,276.204559 507.072815,275.301575 530.819092,267.626099 
	511.329285,278.010559 485.566742,282.299805 450.619415,278.913574 421.720612,287.492035 
	427.545197,279.816559 427.545197,279.816559 "
	style="fill-opacity:1.0; fill-rule:evenodd; fill:black; stroke:none" />
<polygon points="413.879852,289.975281 
	428.441284,305.552032 438.746277,343.477936 433.593750,305.552032 425.080963,288.395050 
	413.879852,289.975281 413.879852,289.975281 "
	style="fill-opacity:1.0; fill-rule:evenodd; fill:black; stroke:none" />
<polygon points="425.977051,288.395050 
	440.314423,302.165771 444.794830,324.514984 439.642365,360.634918 447.259094,331.513214 
	449.723328,298.779541 441.210510,291.781281 445.466888,300.359772 435.385956,293.587311 
	425.080963,280.719574 425.977051,288.395050 425.977051,288.395050 "
	style="fill-opacity:1.0; fill-rule:evenodd; fill:black; stroke:none" />
<polygon points="440.314423,282.299805 
	460.924408,291.781281 477.950012,296.973511 449.051270,289.298035 428.441284,281.396820 
	440.314423,282.299805 440.314423,282.299805 "
	style="fill-opacity:1.0; fill-rule:evenodd; fill:black; stroke:none" />
<polygon points="368.627502,307.358002 
	367.731415,319.322723 356.754364,333.093445 352.497955,345.961182 359.218597,371.922394 
	356.754364,346.864166 361.906860,333.996460 373.780029,322.031738 368.627502,307.358002 
	368.627502,307.358002 "
	style="fill-opacity:1.0; fill-rule:evenodd; fill:black; stroke:none" />
<polygon points="11.313090,300.585541 
	17.361671,296.747772 21.618084,288.846558 29.458838,287.040527 38.195679,288.846558 
	49.396759,290.201050 62.614029,295.844788 69.558701,295.844788 82.551949,289.298035 
	91.064774,291.104065 106.746284,304.649017 119.515511,311.195740 109.434540,308.938263 
	98.233459,305.100525 92.408905,302.391510 94.649117,313.904755 110.778671,336.705475 
	141.469635,359.280396 159.839386,367.181641 175.968948,381.855377 171.040482,359.054657 
	155.807007,345.735443 147.966248,330.384460 130.716599,314.582001 149.758423,323.386230 
	135.421036,307.358002 119.963562,303.294525 104.730087,292.232788 93.753036,288.846558 
	106.298241,291.104065 119.515511,300.585541 138.557343,307.358002 151.998642,322.031738 
	156.703094,332.641937 165.887985,349.798920 181.569489,364.698395 192.770569,379.597870 
	208.452072,400.592560 195.010773,389.305115 182.465576,371.245117 174.624832,361.537903 
	184.481781,381.403870 198.371109,397.883575 215.844788,415.040558 213.604568,404.430298 
	231.078262,426.102264 249.672043,443.936493 230.182159,429.037018 206.659912,409.396790 
	176.416992,384.790131 158.047226,371.696625 136.765182,358.151672 101.593788,335.802460 
	82.999992,326.095215 75.159241,324.740723 44.692307,322.483246 54.325233,316.839478 
	50.292843,307.358002 37.747635,302.843018 19.153845,308.035278 6.832658,308.035278 
	0.112011,305.100525 2.576248,301.940002 11.313090,300.585541 11.313090,300.585541 "
	style="fill-opacity:1.0; fill-rule:evenodd; fill:black; stroke:none" />
<polygon points="11.761133,310.292755 
	20.721996,318.645477 39.987854,324.740723 45.588394,328.804230 50.740887,341.897705 
	62.614029,347.541412 94.201073,349.798920 105.402153,354.539673 124.219971,381.855377 
	152.894730,390.433838 178.881226,399.689575 195.906876,408.042297 191.426437,421.587280 
	198.371109,411.202820 198.147079,405.784821 173.728729,392.691315 128.028336,379.597870 
	107.642365,353.636688 93.753036,346.186951 68.214569,345.058167 55.893383,339.188721 
	46.036434,322.031738 37.299595,318.193970 22.514170,315.936493 11.761133,310.292755 
	11.761133,310.292755 "
	style="fill-opacity:1.0; fill-rule:evenodd; fill:black; stroke:none" />
<polygon points="244.071518,444.839508 
	230.630219,435.132263 213.604568,419.555542 204.195679,420.232788 190.306320,426.102264 
	169.024292,427.682526 154.686905,437.389771 169.696350,430.391541 189.410248,429.037018 
	203.747620,422.038788 210.692291,422.038788 228.838043,438.744232 236.230759,446.193970 
	244.071518,444.839508 244.071518,444.839508 "
	style="fill-opacity:1.0; fill-rule:evenodd; fill:black; stroke:none" />
<polygon points="196.802963,410.751312 
	188.962204,411.880035 171.488525,406.236328 159.839386,406.687805 173.280685,411.880035 
	182.913620,418.652527 177.089066,411.202820 191.874481,413.686066 196.802963,410.751312 
	196.802963,410.751312 "
	style="fill-opacity:1.0; fill-rule:evenodd; fill:black; stroke:none" />
<polygon points="193.666656,417.298035 
	181.121445,417.749542 164.991882,423.393280 155.134933,436.486755 167.232117,425.199280 
	175.968948,421.135773 190.978394,421.587280 193.666656,417.298035 193.666656,417.298035 "
	style="fill-opacity:1.0; fill-rule:evenodd; fill:black; stroke:none" />
<polygon points="312.846130,465.156952 
	328.751678,445.290985 351.825897,408.268066 372.211853,397.432068 388.789459,398.109314 
	395.958160,390.885345 417.240204,382.984100 439.642365,384.790131 449.723328,372.825378 
	467.645050,366.955902 477.726013,366.955902 480.638306,375.760101 467.645050,373.954132 
	456.443970,375.308624 441.434509,390.208069 424.408905,387.950592 411.191620,398.109314 
	432.025604,399.238098 450.395386,393.142822 464.732788,382.984100 475.933838,379.372131 
	465.180817,386.144592 453.307648,396.754852 430.233429,405.107574 402.454773,405.107574 
	375.572174,411.202820 347.121429,424.296265 380.948700,418.426788 407.831299,408.268066 
	377.364349,423.844757 358.546539,449.580231 350.705780,457.255707 334.800232,453.643707 
	350.705780,452.514954 360.786743,436.938263 373.780029,423.844757 342.416992,432.649017 
	329.871765,451.837738 312.846130,465.156952 312.846130,465.156952 "
	style="fill-opacity:1.0; fill-rule:evenodd; fill:black; stroke:none" />
<polygon points="475.485779,363.343903 
	449.275269,359.054657 411.863678,369.213379 358.994598,396.303345 347.121429,408.268066 
	332.335999,434.003510 321.134949,448.902985 334.800232,426.779510 353.170013,395.626068 
	386.325195,375.308624 417.912231,362.666656 452.187561,355.442657 475.485779,363.343903 
	475.485779,363.343903 "
	style="fill-opacity:1.0; fill-rule:evenodd; fill:black; stroke:none" />
<polygon points="274.762451,461.996429 
	288.203766,486.828918 290.219971,506.694885 296.268524,492.021149 283.947357,464.253937 
	274.762451,461.996429 274.762451,461.996429 "
	style="fill-opacity:1.0; fill-rule:evenodd; fill:black; stroke:none" />
<polygon points="252.136276,459.964691 
	272.746277,478.701904 276.778656,511.887115 281.931152,505.566132 281.931152,486.828918 
	273.866394,471.477905 264.457458,459.964691 252.136276,459.964691 252.136276,459.964691 "
	style="fill-opacity:1.0; fill-rule:evenodd; fill:black; stroke:none" />
<polygon points="303.661255,476.670166 
	300.524963,504.663147 308.589722,505.566132 310.829956,480.733673 303.661255,476.670166 
	303.661255,476.670166 "
	style="fill-opacity:1.0; fill-rule:evenodd; fill:black; stroke:none" />
<polygon points="522.306335,510.758362 
	540.676025,483.894165 556.133545,452.740723 560.165955,427.908295 552.101196,403.978821 
	534.627502,367.858887 534.627502,356.345673 542.916321,371.019379 543.812378,381.178101 
	560.165955,397.883575 567.334656,413.460297 564.422363,448.677216 549.860962,477.573181 
	528.354919,510.758362 522.306335,510.758362 522.306335,510.758362 "
	style="fill-opacity:1.0; fill-rule:evenodd; fill:black; stroke:none" />
<polygon points="606.538391,279.816559 
	562.406189,301.488495 537.763855,339.865936 536.643677,354.313904 548.068787,371.019379 
	556.133545,352.282166 559.269836,317.065247 582.792114,296.296295 606.538391,279.816559 
	606.538391,279.816559 "
	style="fill-opacity:1.0; fill-rule:evenodd; fill:black; stroke:none" />
<polygon points="601.385925,285.008789 
	581.896057,315.033508 571.591064,345.058167 589.960876,323.160461 599.145691,303.520294 
	601.385925,285.008789 601.385925,285.008789 "
	style="fill-opacity:1.0; fill-rule:evenodd; fill:black; stroke:none" />
<polygon points="608.554565,266.271576 
	606.538391,304.649017 581.896057,348.218689 581.896057,371.922394 583.912231,386.370361 
	571.591064,375.082886 557.253662,389.530853 575.623474,399.915314 599.145691,398.786591 
	602.281982,375.082886 596.233459,356.345673 589.960876,366.730133 589.064758,349.121704 
	606.538391,320.225739 611.466858,298.328033 608.554565,266.271576 608.554565,266.271576 "
	style="fill-opacity:1.0; fill-rule:evenodd; fill:black; stroke:none" />
<polygon points="575.623474,298.328033 
	578.759766,276.656067 563.302246,210.285706 579.655823,262.208099 587.048584,278.687805 
	589.960876,289.072296 575.623474,298.328033 575.623474,298.328033 "
	style="fill-opacity:1.0; fill-rule:evenodd; fill:black; stroke:none" />
<polygon points="537.763855,343.026428 
	541.796204,315.033508 554.117371,278.687805 554.117371,241.439133 564.422363,287.040527 
	565.318481,305.777771 561.286072,291.104065 557.253662,270.335083 554.117371,296.296295 
	545.828613,315.936493 546.948669,334.673706 537.763855,343.026428 537.763855,343.026428 "
	style="fill-opacity:1.0; fill-rule:evenodd; fill:black; stroke:none" />
<polygon points="570.470947,238.278656 
	591.080933,264.239838 605.418274,226.991165 599.145691,269.432098 599.145691,285.008789 
	594.217224,287.040527 589.960876,272.592560 570.470947,238.278656 570.470947,238.278656 "
	style="fill-opacity:1.0; fill-rule:evenodd; fill:black; stroke:none" />
<polygon points="601.385925,324.289215 
	609.450684,351.153442 610.570862,380.275116 619.755737,367.858887 618.859619,345.961182 
	604.298218,315.936493 601.385925,324.289215 601.385925,324.289215 "
	style="fill-opacity:1.0; fill-rule:evenodd; fill:black; stroke:none" />
<polygon points="607.434509,309.841248 
	618.859619,329.481476 624.012085,354.313904 635.213196,335.576691 657.839417,315.936493 
	635.213196,341.897705 624.012085,373.051147 604.298218,397.883575 624.012085,383.435608 
	636.333313,360.634918 644.398071,339.865936 663.887939,309.841248 638.349487,327.449738 
	626.924377,338.737213 619.755737,321.128723 607.434509,301.488495 607.434509,309.841248 
	607.434509,309.841248 "
	style="fill-opacity:1.0; fill-rule:evenodd; fill:black; stroke:none" />
<polygon points="610.570862,397.883575 
	595.113342,415.492035 582.792114,423.844757 571.591064,456.804230 552.101196,489.989410 
	538.659851,510.758362 546.948669,510.758362 561.286072,481.862396 576.743530,456.804230 
	584.808289,429.940033 603.402100,414.363281 610.570862,397.883575 610.570862,397.883575 "
	style="fill-opacity:1.0; fill-rule:evenodd; fill:black; stroke:none" />
<polygon points="624.012085,330.610199 
	628.044495,304.649017 646.414246,262.208099 626.924377,297.425018 618.859619,308.712494 
	615.723328,318.193970 624.012085,330.610199 624.012085,330.610199 "
	style="fill-opacity:1.0; fill-rule:evenodd; fill:black; stroke:none" />
<polygon points="343.537079,482.765411 
	358.994598,502.405609 370.419678,510.758362 361.010773,510.758362 351.825897,501.502655 
	343.537079,482.765411 343.537079,482.765411 "
	style="fill-opacity:1.0; fill-rule:evenodd; fill:black; stroke:none" />
<polygon points="355.858276,483.894165 
	425.752991,510.758362 448.379181,510.758362 424.632904,502.405609 415.447998,487.957672 
	419.704437,503.534393 355.858276,483.894165 355.858276,483.894165 "
	style="fill-opacity:1.0; fill-rule:evenodd; fill:black; stroke:none" />
<polygon points="351.825897,457.932953 
	386.773254,457.932953 424.632904,473.509705 455.547882,510.758362 445.242889,487.957672 
	451.515503,478.701904 471.901459,467.188690 452.411591,471.477905 440.090393,483.894165 
	427.769196,469.446167 448.379181,466.285706 436.057983,464.253937 414.551941,464.253937 
	404.246948,457.932953 428.889313,453.869476 457.564087,453.869476 423.736816,440.324493 
	429.785400,449.580231 395.958160,453.869476 351.825897,457.932953 351.825897,457.932953 "
	style="fill-opacity:1.0; fill-rule:evenodd; fill:black; stroke:none" />
<polygon points="416.568146,408.268066 
	441.210510,416.620789 461.596466,435.132263 473.021545,466.285706 486.238831,466.285706 
	492.511475,423.844757 507.968933,401.044067 529.474976,392.691315 550.981079,393.594330 
	548.068787,388.627838 529.474976,388.627838 506.848816,397.883575 489.375122,420.684296 
	483.326538,446.419739 473.917633,446.419739 461.596466,425.876526 441.210510,411.428558 
	416.568146,408.268066 416.568146,408.268066 "
	style="fill-opacity:1.0; fill-rule:evenodd; fill:black; stroke:none" />
<polygon points="484.222626,467.188690 
	500.800232,484.797180 506.848816,510.758362 514.017517,510.758362 509.985107,487.957672 
	496.543854,470.349182 484.222626,467.188690 484.222626,467.188690 "
	style="fill-opacity:1.0; fill-rule:evenodd; fill:black; stroke:none" />
<polygon points="493.631561,472.380920 
	523.202393,472.380920 552.997253,465.156952 546.948669,474.412659 524.322510,477.573181 
	498.784058,477.573181 493.631561,472.380920 493.631561,472.380920 "
	style="fill-opacity:1.0; fill-rule:evenodd; fill:black; stroke:none" />
<polygon points="484.222626,465.156952 
	506.848816,457.932953 542.916321,434.003510 559.269836,408.268066 548.068787,431.971771 
	563.302246,427.908295 532.611267,445.516724 504.832642,461.996429 493.631561,473.509705 
	484.222626,465.156952 484.222626,465.156952 "
	style="fill-opacity:1.0; fill-rule:evenodd; fill:black; stroke:none" />
<polygon points="571.591064,461.093445 
	594.217224,431.068756 628.940552,405.107574 609.450684,401.947052 616.619446,399.915314 
	644.398071,403.075806 611.466858,421.587280 594.217224,439.195740 571.591064,461.093445 
	571.591064,461.093445 "
	style="fill-opacity:1.0; fill-rule:evenodd; fill:black; stroke:none" />
<polygon points="333.456116,305.777771 
	321.134949,336.705475 312.846130,375.082886 309.709808,366.730133 320.014801,328.352722 
	326.063416,306.680756 333.456116,305.777771 333.456116,305.777771 "
	style="fill-opacity:1.0; fill-rule:evenodd; fill:black; stroke:none" />
<polygon points="469.885254,510.758362 
	482.206451,479.604919 493.631561,502.405609 482.206451,489.989410 478.174072,510.758362 
	469.885254,510.758362 469.885254,510.758362 "
	style="fill-opacity:1.0; fill-rule:evenodd; fill:black; stroke:none" />
</svg>
